<?xml version="1.0" encoding="utf-8"?>
<!-- Generator: Adobe Illustrator 21.1.0, SVG Export Plug-In . SVG Version: 6.00 Build 0)  -->
<svg version="1.1" id="Capa_1" xmlns="http://www.w3.org/2000/svg" xmlns:xlink="http://www.w3.org/1999/xlink" x="0px" y="0px"
	 viewBox="0 0 1200 1200" enable-background="new 0 0 1200 1200" xml:space="preserve">
<g>
	<path fill="none" d="M762.914,302.969c0.398-0.135,0.799-0.267,1.217-0.38c-0.522-0.921-1.057-1.836-1.466-2.802
		C762.741,300.848,762.845,301.907,762.914,302.969z"/>
	<path fill="none" d="M452.002,302.177c0.021-0.491,0.044-0.981,0.066-1.471c-0.749,0.524-1.496,0.89-2.241,1.128
		C450.559,301.927,451.286,302.037,452.002,302.177z"/>
	<path fill="none" d="M464.485,602.112c-44.963-0.55-82.878,2.523-97.663,7.907c-1.886,0.686-3.325,1.646-4.374,2.856h103.723
		C465.355,609.376,464.733,605.717,464.485,602.112z"/>
	<path fill="#193864" d="M473.574,634.095c0,0-4.72-9.725-7.403-21.219H362.448c-8.766,10.117,10.038,37.954,29.315,73.494
		c27.027-1.69,49.762-3.333,52.882-4.24C459.824,677.728,480.229,665.88,473.574,634.095z"/>
	<path fill="#193864" d="M874.216,671.538c-2.007-0.979-3.905,1.515-2.39,3.161c4.72,5.13,11.754,11.464,19.17,18.705
		c0.077,0.074,0.2,0.194,0.29,0.282c14.086,2.967,28.189,5.867,42.117,9.448c-11.773-7.93-22.72-15.124-35.412-20.821
		C888.945,678.249,880.282,674.519,874.216,671.538z"/>
	<path fill="#193864" d="M321.636,1029.489c0.126-1.378,0.257-2.762,0.443-4.14c0.246-1.832,0.793-3.435,1.28-4.846
		c0.339-1.001,0.662-1.947,0.76-2.669c-0.022-0.137-0.268-0.979-0.432-1.537c-0.509-1.734-1.143-3.9-0.793-6.405
		c0.372-2.664,1.805-4.687,2.85-6.164l0.711-1.039l-0.427-1.11c-0.495-1.247-1.097-2.829-1.285-4.622
		c-43.828-20.352-92.239-54.945-136.084-98.338c35.756,52.527,80.718,98.282,132.557,134.959c0.021-0.186,0.019-0.361,0.044-0.55
		C321.412,1031.857,321.522,1030.676,321.636,1029.489z"/>
	<path fill="#193864" d="M976.494,667.447c0.64,1.187,1.531,2.855,1.378,4.272c-0.935,8.609-24.268-1.958-27.976-3.522
		c-15.61-6.569-29.174-16.304-46.249-19.214l-0.186-0.033c-12.755-2.149-14.335,2.111-3.424,9.063
		c14.237,9.074,34.534,21.708,43.536,28.479c3.665,2.757,7.121,5.88,10.146,9.331c2.177,2.483,7.668,8.516,4.6,12.038
		c-0.744,0.851-1.876,1.364-3.153,1.715c29.808,10.283,55.908,27.776,79.134,48.905l4.879-4.048
		c2.018,2.434,2.445,4.332,2.686,5.918l0.06,0.345c0,0,0.137,0.312,0.7,1.001c0.974,1.203,1.657,2.483,2.319,3.719
		c0.574,1.072,1.116,2.084,1.778,2.915l1.313,0.793c1.466,0.864,3.468,2.051,5.054,4.053c0.831,1.056,1.608,2.221,2.401,3.429
		c0.634,0.968,1.28,1.969,2.035,2.926c0.197,0.23,1.006,0.766,1.548,1.121c1.4,0.93,3.145,2.089,4.573,3.932
		c1.663,2.149,2.046,4.644,2.319,6.47l0.005,0.03c5.901,6.782,11.609,13.699,17.13,20.695c1.488,0.712,3.109,1.705,4.354,3.384
		c1.211,1.638,1.742,3.381,2.103,4.931c0.812,1.059,1.638,2.115,2.442,3.175c1.592,2.104,3.109,4.265,4.679,6.387
		c32.125-65.785,51.073-139.184,53.324-216.781H874.391c2.828,1.56,13.712,3.411,16.124,3.831
		C935.249,624.523,976.494,667.447,976.494,667.447z"/>
	<path fill="#312E4C" d="M386.219,338.725c-0.599,0.165-1.166,0.454-1.757,0.657c0.675,0.096,1.345,0.199,2.02,0.297
		L386.219,338.725z"/>
	<path fill="#EA6565" d="M783.211,359.137c3.249-1.209,6.115-3.194,8.467-5.568c1.243-1.276,2.348-2.666,3.312-4.141
		c-0.172,1.048-0.391,2.089-0.703,3.107c-0.673,2.242-1.668,4.386-2.855,6.465c-1.242,2.051-2.68,4.02-4.288,5.901
		c-3.189,3.801-7.045,7.143-10.961,10.627c4.928-1.778,9.582-4.43,13.613-8.013l1.482-1.384l1.389-1.493
		c0.952-0.979,1.728-2.117,2.554-3.221c1.531-2.303,2.789-4.835,3.61-7.531c1.663-5.42,1.231-11.365-0.722-16.463
		c-1.991-5.087-5.196-9.577-9.369-12.793c2.664,4.49,4.72,9.139,5.819,13.887c0.648,2.819,0.856,5.655,0.675,8.439
		c-1.808,1.555-3.614,3.041-5.483,4.354c-2.505,1.767-5.119,3.26-7.865,4.272c-2.735,1.039-5.612,1.537-8.576,1.471
		c-2.981-0.049-6-0.755-9.167-1.646c2.368,2.27,5.437,3.911,8.811,4.605C776.33,360.701,779.978,360.378,783.211,359.137z"/>
	<path fill="#FCB598" d="M419.818,337.423c1.991-5.087,5.196-9.577,9.369-12.793c-2.664,4.49-4.72,9.139-5.819,13.887
		c-0.541,2.358-0.814,4.734-0.782,7.077c12.603,2.245,24.77,4.52,36.173,6.511c21.462,3.751,42.101,8.971,62.221,15.463
		c-5.778-1.865-11.595-3.634-17.468-5.283c2.646-0.695,5.423-1.066,8.285-1.066c10.057,0,19.054,4.568,25.066,11.761
		c-4.031-1.453-8.1-2.798-12.169-4.147c68.463,22.699,131.106,60.215,199.543,105.612c16.87-24.16,27.958-52.38,33.842-81.971
		c4.855,6.094,19.537,1.825,24.552,0.216c13.127-4.206,24.169-11.059,30.18-26.04c11.666-29.075-7.777-64.905-34.687-65.206
		c-2.434-0.026-7.419-0.152-11.951,0.688c-0.429,0.637-0.845,1.307-1.291,1.894c-0.301-0.46-0.484-0.965-0.752-1.438
		c-0.418,0.113-0.819,0.245-1.217,0.38c-0.068-1.061-0.172-2.12-0.249-3.182c-4.635-10.971-2.532-24.584-6.867-36.294
		c-3.079-8.314-4.873-17.097-8.565-25.154c-17.765-38.729-55.591-34.233-88.971-47.573c-12.416-4.961-22.769-14.095-34.999-19.498
		c-26.806-11.836-57.762-4.206-86.006,3.588c-15.533,4.283-31.531,8.795-44.127,18.837c-25.684,20.467-28.84,55.662-32.483,85.908
		c-0.722,6.033-1.411,12.377-4.933,17.327c-1.213,1.704-2.43,2.926-3.645,3.778c-0.022,0.49-0.045,0.98-0.066,1.471
		c-0.716-0.139-1.444-0.25-2.175-0.343c-1.747,0.558-3.477,0.376-5.17-0.38c-1.97-0.053-3.701-0.021-4.849-0.008
		c-19.535,0.219-35.067,19.168-37.691,40.653c5.419,0.887,10.784,1.795,16.079,2.727
		C418.398,342.27,418.928,339.754,419.818,337.423z M773.311,357.053c2.964,0.066,5.841-0.432,8.576-1.471
		c2.746-1.012,5.36-2.505,7.865-4.272c1.869-1.313,3.675-2.799,5.483-4.354c0.18-2.784-0.027-5.62-0.675-8.439
		c-1.099-4.747-3.156-9.396-5.819-13.887c4.173,3.216,7.378,7.706,9.369,12.793c1.953,5.098,2.385,11.043,0.722,16.463
		c-0.82,2.696-2.078,5.229-3.61,7.531c-0.826,1.105-1.603,2.242-2.554,3.221l-1.389,1.493l-1.482,1.384
		c-4.031,3.582-8.685,6.235-13.613,8.013c3.916-3.484,7.772-6.826,10.961-10.627c1.608-1.881,3.046-3.85,4.288-5.901
		c1.187-2.078,2.182-4.222,2.855-6.465c0.312-1.019,0.531-2.059,0.703-3.107c-0.964,1.475-2.069,2.865-3.312,4.141
		c-2.352,2.374-5.218,4.359-8.467,5.568c-3.232,1.242-6.881,1.564-10.255,0.875c-3.375-0.695-6.443-2.335-8.811-4.605
		C767.311,356.298,770.33,357.004,773.311,357.053z M533.111,316.284c-2.855,0.711-5.748,1.28-8.56,2.182
		c-1.422,0.399-2.866,0.733-4.272,1.192c-1.395,0.487-2.811,0.935-4.233,1.362c-1.444,0.399-2.828,0.93-4.233,1.444l-4.25,1.477
		c-2.839,1.001-5.612,2.188-8.581,3.085c2.357-1.947,4.829-3.79,7.389-5.491c2.658-1.515,5.24-3.254,8.073-4.474
		c3.375-1.698,6.919-3.023,10.533-4.158c-2.037-0.172-4.094-0.511-6.102-1.207c1.98-2.095,3.265-4.753,3.856-7.586
		c3.932,0.044,7.936-0.656,12.126-1.362c2.882-0.465,5.847-0.946,8.899-1.077c3.041-0.131,6.246,0.12,9.309,1.116
		c3.074,0.957,6.098,2.609,8.751,5.13c2.642,2.521,4.868,6.038,6.016,10.097c-1.739-2.166-3.604-3.748-5.545-4.905
		c-3.953-0.012-7.864,0.135-11.739,0.469C544.668,314.145,538.859,315.031,533.111,316.284z M647.025,350.057
		c-1.726,0-3.492-0.388-5.121-1.447l-0.831-0.462l-0.767-0.626l-1.515-1.37c-0.457-0.544-0.908-1.118-1.365-1.674
		c-0.45-0.568-0.801-1.265-1.206-1.897c-1.515-2.646-2.587-5.754-3.231-8.974c-0.632-3.213-0.907-6.574-0.567-9.846
		c0.703,3.114,1.499,6.046,2.412,8.833c0.924,2.774,2.031,5.344,3.336,7.627c0.339,0.55,0.637,1.17,1.012,1.663
		c0.369,0.509,0.744,1.013,1.108,1.545c0.801,0.902,1.586,1.891,2.5,2.611c1.743,1.698,3.775,2.669,5.888,3.904
		C648.135,350.017,647.583,350.057,647.025,350.057z M739.425,392.583c0,18.269-14.681,33.079-32.786,33.079
		s-32.78-14.81-32.78-33.079c0-18.275,14.674-33.084,32.78-33.084S739.425,374.308,739.425,392.583z M709.297,323.941l-4.255-1.477
		c-1.4-0.514-2.789-1.045-4.228-1.444c-1.427-0.427-2.839-0.875-4.233-1.362c-1.411-0.459-2.855-0.793-4.272-1.192
		c-2.811-0.902-5.705-1.471-8.56-2.182c-5.748-1.253-11.557-2.139-17.436-2.707c-3.872-0.334-7.786-0.481-11.739-0.469
		c-1.94,1.157-3.805,2.739-5.545,4.905c1.149-4.058,3.369-7.575,6.011-10.097c2.658-2.521,5.683-4.173,8.751-5.13
		c3.063-0.995,6.268-1.247,9.314-1.116c3.052,0.131,6.011,0.613,8.893,1.077c4.693,0.793,9.15,1.57,13.537,1.302
		c0.919,2.221,2.046,4.359,3.243,6.383l0.552,0.755c-2.435,1.036-4.983,1.501-7.493,1.702c3.626,1.138,7.184,2.467,10.572,4.172
		c2.833,1.22,5.42,2.959,8.078,4.474c2.56,1.701,5.032,3.544,7.389,5.491C714.909,326.129,712.136,324.942,709.297,323.941z
		 M632.364,281.624c0.831-8.505,9.511-14.111,15.768-17.694c11.787-6.749,25.061-11.119,38.849-11.147
		c7.974-0.016,16.124,1.488,23.77,4.589c5.07,2.051,3.949,9.5-1.493,9.998c-5.18,0.47-10.321,1.192-15.402,2.155
		c-18.82,3.55-35.382,10.933-52.173,19.663C635.859,292.218,631.588,289.549,632.364,281.624z M581.493,365.864
		c7.947-11.458,7.203-23.699,9.708-36.705c1.285-6.64,6.049-20.904,15.254-15.265c6.738,4.135,6.547,19.389,8.215,26.554
		c2.073,8.915,4.737,18.366,8.013,26.477c1.116,2.778,2.882,5.901,3.588,8.997c0.585,2.554,0.448,5.092-1.362,7.4
		c-4.622,5.896-14.751,8.576-21.741,9.621c-7.148,1.072-16.468-3.309-22.031-7.657C573.081,378.996,576.642,372.854,581.493,365.864
		z M574.67,333.608c-0.644,3.219-1.715,6.328-3.237,8.974c-0.405,0.632-0.755,1.328-1.206,1.897
		c-0.457,0.556-0.901,1.129-1.365,1.674l-1.51,1.37l-0.767,0.626l-0.831,0.462c-1.633,1.058-3.396,1.447-5.125,1.447
		c-0.557,0-1.109-0.04-1.653-0.112c2.119-1.235,4.144-2.206,5.895-3.904c0.907-0.72,1.697-1.709,2.493-2.611
		c0.364-0.533,0.738-1.036,1.108-1.545c0.38-0.492,0.673-1.112,1.017-1.663c1.3-2.283,2.412-4.853,3.338-7.627
		c0.912-2.787,1.702-5.719,2.411-8.833C575.578,327.035,575.297,330.395,574.67,333.608z M498.812,257.969
		c5.934-2.56,12.202-4.168,18.454-4.824c13.717-1.433,27.374,1.499,39.812,6.957c6.607,2.899,15.834,7.553,17.562,15.921
		c1.608,7.799-2.352,10.906-8.467,8.516c-17.622-6.902-34.878-12.481-53.961-14.018c-3.604-0.29-7.225-0.459-10.851-0.509
		C494.579,269.92,492.583,260.654,498.812,257.969z"/>
	<path fill="#EA6565" d="M429.187,324.63c-4.173,3.216-7.378,7.706-9.369,12.793c-0.89,2.331-1.419,4.847-1.622,7.401
		c1.466,0.258,2.936,0.511,4.389,0.77c-0.031-2.344,0.241-4.719,0.782-7.077C424.467,333.77,426.523,329.121,429.187,324.63z"/>
	<path fill="#FCB598" d="M617.725,619.055c-26.067-6.491-56.403-10.932-86.977-13.635c22.776,11.504,53.69,22.064,90.937,22.533
		l-4.499-8.637C617.365,619.224,617.548,619.145,617.725,619.055z"/>
	<path fill="#FCB598" d="M629.673,626.115c-1.227,0.647-2.484,1.236-3.751,1.826c5.971-0.049,12.083-0.338,18.359-0.948
		c-3.558-1.278-7.229-2.512-11.065-3.682C632.255,624.299,631.162,625.316,629.673,626.115z"/>
	<path fill="#FDA893" d="M511.797,361.22c-2.862,0-5.639,0.371-8.285,1.066c5.873,1.649,11.69,3.418,17.468,5.283
		c1.246,0.402,2.472,0.853,3.714,1.265c4.069,1.35,8.138,2.694,12.169,4.147C530.851,365.787,521.854,361.22,511.797,361.22z"/>
	<ellipse fill="#FDA893" cx="706.641" cy="392.581" rx="32.783" ry="33.082"/>
	<path fill="#EA5467" d="M581.138,385.286c5.562,4.348,14.882,8.729,22.031,7.657c6.99-1.045,17.119-3.725,21.741-9.621
		c1.81-2.308,1.947-4.846,1.362-7.4c-0.706-3.096-2.472-6.219-3.588-8.997c-3.276-8.111-5.94-17.562-8.013-26.477
		c-1.668-7.165-1.477-22.419-8.215-26.554c-9.205-5.639-13.969,8.625-15.254,15.265c-2.505,13.006-1.761,25.247-9.708,36.705
		C576.642,372.854,573.081,378.996,581.138,385.286z"/>
	<path fill="#F9805B" d="M569.489,340.223c-0.345,0.55-0.637,1.17-1.017,1.663c-0.369,0.509-0.744,1.013-1.108,1.545
		c-0.796,0.902-1.586,1.891-2.493,2.611c-1.75,1.698-3.775,2.669-5.895,3.904c0.544,0.072,1.097,0.112,1.653,0.112
		c1.728,0,3.492-0.388,5.125-1.447l0.831-0.462l0.767-0.626l1.51-1.37c0.464-0.544,0.908-1.118,1.365-1.674
		c0.451-0.568,0.801-1.265,1.206-1.897c1.522-2.646,2.593-5.754,3.237-8.974c0.626-3.213,0.908-6.574,0.567-9.846
		c-0.708,3.114-1.499,6.046-2.411,8.833C571.901,335.37,570.79,337.94,569.489,340.223z"/>
	<path fill="#F9805B" d="M640.29,343.431c-0.364-0.533-0.738-1.036-1.108-1.545c-0.375-0.492-0.673-1.112-1.012-1.663
		c-1.306-2.283-2.412-4.853-3.336-7.627c-0.913-2.787-1.709-5.719-2.412-8.833c-0.339,3.272-0.064,6.632,0.567,9.846
		c0.644,3.219,1.716,6.328,3.231,8.974c0.405,0.632,0.756,1.328,1.206,1.897c0.457,0.556,0.908,1.129,1.365,1.674l1.515,1.37
		l0.767,0.626l0.831,0.462c1.629,1.058,3.395,1.447,5.121,1.447c0.558,0,1.11-0.04,1.652-0.112
		c-2.113-1.235-4.144-2.206-5.888-3.904C641.876,345.322,641.091,344.332,640.29,343.431z"/>
	<path fill="#312E4C" d="M641.684,289.188c16.791-8.729,33.352-16.113,52.173-19.663c5.081-0.963,10.222-1.685,15.402-2.155
		c5.442-0.498,6.563-7.947,1.493-9.998c-7.646-3.101-15.796-4.605-23.77-4.589c-13.788,0.027-27.063,4.397-38.849,11.147
		c-6.257,3.582-14.937,9.189-15.768,17.694C631.588,289.549,635.859,292.218,641.684,289.188z"/>
	<path fill="#312E4C" d="M501.361,270.013c3.626,0.049,7.247,0.219,10.851,0.509c19.083,1.537,36.339,7.116,53.961,14.018
		c6.115,2.39,10.075-0.716,8.467-8.516c-1.728-8.368-10.955-13.023-17.562-15.921c-12.437-5.458-26.094-8.39-39.812-6.957
		c-6.252,0.656-12.52,2.264-18.454,4.824C492.583,260.654,494.579,269.92,501.361,270.013z"/>
	<path fill="#312E4C" d="M702.411,317.06c-3.388-1.704-6.946-3.034-10.572-4.172c2.51-0.202,5.058-0.667,7.493-1.702l-0.552-0.755
		c-1.198-2.024-2.324-4.162-3.243-6.383c-4.386,0.268-8.844-0.509-13.537-1.302c-2.882-0.465-5.841-0.946-8.893-1.077
		c-3.046-0.131-6.252,0.12-9.314,1.116c-3.068,0.957-6.093,2.609-8.751,5.13c-2.642,2.521-4.862,6.038-6.011,10.097
		c1.739-2.166,3.604-3.748,5.545-4.905c3.953-0.012,7.866,0.135,11.739,0.469c5.88,0.569,11.688,1.455,17.436,2.707
		c2.855,0.711,5.748,1.28,8.56,2.182c1.417,0.399,2.86,0.733,4.272,1.192c1.395,0.487,2.806,0.935,4.233,1.362
		c1.438,0.399,2.828,0.93,4.228,1.444l4.255,1.477c2.839,1.001,5.612,2.188,8.581,3.085c-2.357-1.947-4.829-3.79-7.389-5.491
		C707.831,320.019,705.244,318.28,702.411,317.06z"/>
	<path fill="#312E4C" d="M567.831,318.012c-1.149-4.058-3.375-7.575-6.016-10.097c-2.653-2.521-5.677-4.173-8.751-5.13
		c-3.063-0.995-6.268-1.247-9.309-1.116c-3.052,0.131-6.016,0.613-8.899,1.077c-4.19,0.706-8.193,1.406-12.126,1.362
		c-0.591,2.833-1.876,5.491-3.856,7.586c2.009,0.696,4.065,1.035,6.102,1.207c-3.614,1.135-7.158,2.461-10.533,4.158
		c-2.833,1.22-5.415,2.959-8.073,4.474c-2.56,1.701-5.032,3.544-7.389,5.491c2.97-0.897,5.743-2.084,8.581-3.085l4.25-1.477
		c1.406-0.514,2.789-1.045,4.233-1.444c1.422-0.427,2.839-0.875,4.233-1.362c1.406-0.459,2.85-0.793,4.272-1.192
		c2.811-0.902,5.705-1.471,8.56-2.182c5.748-1.253,11.557-2.139,17.436-2.707c3.875-0.334,7.786-0.481,11.739-0.469
		C564.227,314.264,566.092,315.846,567.831,318.012z"/>
	<path fill="#312E4C" d="M449.827,301.834c0.745-0.238,1.492-0.604,2.241-1.128c1.216-0.852,2.433-2.074,3.645-3.778
		c3.522-4.95,4.211-11.294,4.933-17.327c3.643-30.246,6.798-65.441,32.483-85.908c12.596-10.042,28.594-14.554,44.127-18.837
		c28.244-7.794,59.201-15.424,86.006-3.588c12.23,5.404,22.583,14.538,34.999,19.498c33.38,13.34,71.206,8.844,88.971,47.573
		c3.692,8.056,5.486,16.84,8.565,25.154c4.334,11.71,2.232,25.323,6.867,36.294c0.409,0.965,0.943,1.881,1.466,2.802
		c0.268,0.473,0.451,0.978,0.752,1.438c0.446-0.587,0.861-1.257,1.291-1.894c11.917-17.7,17.521-54.047,23.212-81.422
		c2.538-12.197,4.43-24.848,1.914-37.05c-5.743-27.779-32.33-59.294-52.025-78.716c-15.107-14.899-34.102-26.718-55.132-29.518
		c-19.657-2.62-39.363,2.718-58.911,6.033c-44.608,7.559-78.584-17.032-120.535-27.309c-14.341-3.517-30.049-4.835-43.422,1.455
		c-13.925,6.552-36.733,25.433-30.131,42.897c1.898,5.01,5.032,9.5,6.662,14.609c7.417,23.278-14.756,43.908-20.871,64.862
		c-8.609,29.502-3.511,60.596,6.902,88.889c2.458,6.668,10.973,30.193,20.819,34.591C446.35,302.21,448.08,302.392,449.827,301.834z
		"/>
	<path fill="#4FB7AD" d="M1068.249,795.147c0.886,1.099,1.788,2.21,2.675,3.375c0.536,0.706,1.269,1.466,2.051,2.27
		c0.979,1.017,2.089,2.171,3.112,3.522c0.87,1.149,1.641,2.385,2.417,3.643c0.52,0.842,1.045,1.695,1.63,2.516l1.285,0.563
		c0.514,0.213,1.089,0.463,1.679,0.745c-5.521-6.995-11.229-13.913-17.13-20.695l0.29,1.556
		C1066.898,793.479,1067.571,794.305,1068.249,795.147z"/>
	<path fill="#4FB7AD" d="M1089.555,820.096c0.085,0.36,0.167,0.72,0.238,1.053c0.126,0.585,0.317,1.471,0.454,1.745
		c0.552,0.744,1.28,1.537,1.996,2.341c0.919,1.023,1.964,2.188,2.915,3.495c1.329,1.832,1.914,3.796,2.385,5.376
		c0.197,0.667,0.498,1.674,0.695,1.958c0.115,0.159,0.252,0.301,0.369,0.456c0.418-0.838,0.84-1.673,1.253-2.514
		c-1.056-1.453-2.117-2.904-3.183-4.348c-1.57-2.122-3.088-4.283-4.679-6.387C1091.193,822.21,1090.367,821.155,1089.555,820.096z"
		/>
	<path fill="#312E4C" d="M909.084,1000.226c-0.202-1.469-0.547-3.122-1.469-4.756c-0.596-1.071-1.135-2.166-1.668-3.249
		c-0.591-1.2-1.17-2.382-1.802-3.512l-3.695-6.638c-0.637-1.17-1.242-2.329-1.827-3.465c-0.566-1.112-1.129-2.201-1.709-3.267
		c-1.269-2.312-3.224-3.735-4.646-4.771l-1.102-0.743c-0.402-0.749-0.73-1.75-1.075-2.81c-0.44-1.329-0.933-2.839-1.728-4.326
		l-1.739-3.202c-0.654-1.2-1.285-2.353-1.884-3.489c-0.211-0.386-0.35-1.417-0.468-2.247c-0.216-1.54-0.487-3.466-1.458-5.327
		c-0.924-1.767-1.98-3.225-2.828-4.401c-0.55-0.767-1.078-1.492-1.335-1.99c-1.247-2.417-1.903-3.413-2.571-4.384
		c-0.361-0.521-0.602-0.872-1.233-2.143l-10.356,5.169c0.933,1.856,1.463,2.675,2.067,3.553c0.391,0.568,0.796,1.153,1.808,3.109
		c0.656,1.27,1.458,2.388,2.242,3.465c0.725,1.007,1.417,1.955,1.909,2.898c0.093,0.263,0.216,1.106,0.293,1.662
		c0.227,1.633,0.544,3.875,1.704,6.053c0.413,0.786,0.867,1.614,1.315,2.435C887.559,973.161,898.629,985.819,909.084,1000.226z"/>
	<path fill="#312E4C" d="M1097.543,834.105c-0.47-1.581-1.056-3.544-2.385-5.376c-0.952-1.307-1.996-2.472-2.915-3.495
		c-0.716-0.804-1.444-1.597-1.996-2.341c-0.137-0.273-0.328-1.159-0.454-1.745c-0.071-0.333-0.153-0.693-0.238-1.053
		c-0.361-1.549-0.891-3.293-2.103-4.931c-1.244-1.679-2.866-2.672-4.354-3.384c-0.591-0.282-1.165-0.532-1.679-0.745l-1.285-0.563
		c-0.585-0.82-1.11-1.674-1.63-2.516c-0.777-1.258-1.548-2.494-2.417-3.643c-1.023-1.351-2.133-2.505-3.112-3.522
		c-0.782-0.804-1.515-1.564-2.051-2.27c-0.886-1.165-1.789-2.275-2.675-3.375c-0.678-0.842-1.351-1.668-1.991-2.505l-0.29-1.556
		l-0.005-0.03c-0.273-1.827-0.656-4.321-2.319-6.47c-1.427-1.843-3.172-3.003-4.573-3.932c-0.541-0.356-1.351-0.891-1.548-1.121
		c-0.755-0.957-1.4-1.958-2.035-2.926c-0.793-1.209-1.57-2.374-2.401-3.429c-1.586-2.002-3.588-3.189-5.054-4.053l-1.313-0.793
		c-0.662-0.831-1.203-1.843-1.778-2.915c-0.662-1.236-1.345-2.516-2.319-3.719c-0.563-0.689-0.7-1.001-0.7-1.001l-0.06-0.345
		c-0.241-1.586-0.667-3.484-2.686-5.918l-4.879,4.048l-4.026,3.341l0.142,0.197l0.005,0.077c0.268,1.745,0.755,3.856,3.2,6.87
		c0.284,0.361,0.711,1.149,1.116,1.914c0.722,1.345,1.614,3.014,2.937,4.665c1.356,1.706,3.09,2.724,4.479,3.544
		c0.673,0.405,1.603,0.952,1.849,1.258c0.634,0.804,1.209,1.695,1.81,2.609c0.804,1.225,1.635,2.489,2.593,3.708
		c1.313,1.674,2.953,2.762,4.266,3.637c0.569,0.372,1.247,0.826,1.624,1.165l0.224,1.324c0.29,1.882,0.678,4.458,2.412,6.716
		c0.744,0.968,1.526,1.936,2.319,2.915c0.815,1.012,1.646,2.035,2.456,3.107c0.952,1.247,1.964,2.297,2.943,3.309
		c0.826,0.853,1.603,1.657,2.199,2.445c0.656,0.87,1.225,1.81,1.81,2.757c0.766,1.242,1.548,2.489,2.434,3.681
		c1.701,2.27,4.124,3.276,5.896,4.009l1.181,0.514l0.306,1.324c0.361,1.69,0.853,4.004,2.368,6.066
		c0.902,1.231,1.86,2.297,2.784,3.331c0.744,0.831,1.504,1.663,2.16,2.571c0.186,0.273,0.47,1.236,0.662,1.87
		c0.47,1.592,1.061,3.572,2.396,5.42c0.82,1.149,1.734,2.226,2.664,3.309c0.465,0.544,0.908,1.12,1.359,1.684
		c1.969-3.732,3.856-7.513,5.737-11.297c-0.118-0.155-0.254-0.297-0.369-0.456C1098.041,835.779,1097.74,834.773,1097.543,834.105z"
		/>
	<path fill="#188375" d="M499.265,616.388c1.786,1.78,1.827,1.838,2.851,3.331c0.386,0.567,0.878,1.282,1.597,2.288
		c1.101,1.546,2.325,3.706,3.618,5.988l0.175,0.31c0.628,1.095,1.19,2.482,1.786,3.945c0.369,0.913,0.755,1.856,1.177,2.792
		c0.339,0.766,0.719,1.54,1.106,2.329c0.696,1.429,1.422,2.904,1.92,4.384c0.421,1.241,0.703,2.687,1.001,4.22
		c0.193,0.984,0.392,1.979,0.626,2.974c0.164,0.691,0.082,1.756,0,2.868c-0.105,1.358-0.216,2.892,0.012,4.531
		c0.17,1.2,0.157,2.529,0.139,3.939c-0.011,1.071-0.023,2.16,0.036,3.278c0.105,2.16,1.211,3.957,2.096,5.397
		c0.368,0.597,0.989,1.604,1.035,1.92c-0.041,1.107-0.316,2.389-0.603,3.747c-0.257,1.2-0.509,2.417-0.66,3.635
		c-0.059,0.486-0.598,1.405-1.078,2.219c-0.778,1.335-1.674,2.851-2.055,4.724c-0.351,1.709-0.187,3.343-0.047,4.771
		c0.111,1.112,0.216,2.16,0.029,2.822c-0.105,0.34-0.883,1.177-1.399,1.739c-1.071,1.165-2.411,2.605-3.113,4.566
		c-0.346,0.954-0.644,1.926-0.937,2.897c-0.444,1.429-0.86,2.775-1.417,4.074c-0.744,1.721-0.837,3.454-0.919,4.982
		c-0.064,1.036-0.118,2.101-0.38,2.628c-1.008,2.008-2.15,4.028-3.308,6.076l-0.305,0.527c-0.31,0.556-1.071,1.235-1.873,1.949
		c-1.112,0.989-2.376,2.113-3.354,3.664c-1.229,1.961-2.551,3.869-3.933,5.859l-0.246,0.351c-1.019,1.487-1.516,3.108-1.95,4.531
		c-0.316,1.065-0.626,2.066-1.042,2.616l6.176,4.63c1.229-1.639,1.773-3.424,2.247-5.005c0.287-0.925,0.574-1.891,0.913-2.383
		l0.246-0.357c1.445-2.078,2.828-4.086,4.121-6.128c0.392-0.632,1.147-1.3,1.948-2.02c1.183-1.048,2.517-2.236,3.466-3.911
		l0.293-0.526c1.235-2.172,2.441-4.309,3.5-6.427c0.978-1.955,1.088-3.998,1.176-5.648c0.053-0.89,0.105-1.897,0.305-2.353
		c0.726-1.686,1.224-3.296,1.697-4.853c0.269-0.866,0.533-1.727,0.838-2.57c0.17-0.485,0.883-1.246,1.515-1.931
		c1.136-1.229,2.558-2.769,3.156-4.882c0.585-2.061,0.38-4.062,0.221-5.672c-0.088-0.931-0.18-1.903-0.07-2.465
		c0.129-0.626,0.649-1.51,1.147-2.37c0.86-1.452,1.832-3.109,2.084-5.175c0.129-1.001,0.346-2.002,0.557-2.986
		c0.339-1.609,0.69-3.278,0.76-5.034c0.1-2.564-1.158-4.624-2.171-6.269c-0.357-0.585-0.896-1.463-0.965-1.732
		c-0.041-0.971-0.03-1.908-0.023-2.827c0.011-1.633,0.034-3.319-0.217-5.093c-0.111-0.808-0.034-1.809,0.047-2.863
		c0.112-1.586,0.253-3.377-0.187-5.244c-0.216-0.89-0.386-1.786-0.562-2.67c-0.334-1.715-0.684-3.489-1.263-5.21
		c-0.662-1.955-1.534-3.734-2.307-5.303c-0.339-0.708-0.678-1.399-0.989-2.089c-0.387-0.855-0.732-1.715-1.078-2.552
		c-0.662-1.633-1.347-3.308-2.212-4.847l-0.176-0.31c-1.399-2.458-2.716-4.782-4.045-6.643c-0.678-0.966-1.158-1.651-1.522-2.184
		c-1.294-1.885-1.615-2.294-3.775-4.437L499.265,616.388z"/>
	<path fill="#188375" d="M554.078,659.757c0.954,1.352,2.294,2.248,3.477,3.038c0.953,0.644,1.943,1.305,2.305,1.943
		c0.328,0.58,0.562,1.628,0.808,2.734c0.305,1.364,0.649,2.909,1.34,4.449c0.51,1.136,0.908,2.505,1.324,3.951
		c0.293,0.995,0.585,2.008,0.924,3.009c0.334,0.995,0.503,2.219,0.685,3.512c0.17,1.206,0.346,2.435,0.639,3.664
		c0.409,1.715,1.281,3.126,2.054,4.367c0.562,0.907,1.142,1.844,1.229,2.458c0.041,0.357-0.345,1.44-0.596,2.154
		c-0.521,1.469-1.17,3.307-1.072,5.344c0.048,0.86,0.112,1.721,0.182,2.582c0.128,1.604,0.252,3.113,0.193,4.653
		c-0.052,1.183,0.023,2.383,0.105,3.594c0.094,1.335,0.182,2.593,0.036,3.74c-0.198,1.61-0.005,3.155,0.17,4.519
		c0.146,1.165,0.287,2.26,0.123,3.038c-0.175,0.878-0.334,1.773-0.498,2.687c-0.269,1.568-0.55,3.19-0.96,4.641
		c-0.134,0.334-0.919,1.112-1.44,1.627c-1.176,1.171-2.64,2.629-3.372,4.672c-0.609,1.691-1.329,3.331-2.072,5.028l-0.779,1.773
		c-0.883,2.048-0.632,4.203-0.427,5.941c0.082,0.697,0.216,1.873,0.134,2.177c-0.567,1.136-1.311,2.318-2.089,3.565
		c-0.609,0.972-1.224,1.949-1.791,2.951c-0.557,0.983-1.065,2.025-1.586,3.079c-0.632,1.311-1.242,2.541-1.943,3.653
		c-0.439,0.708-1.236,1.481-2.078,2.294c-0.995,0.96-2.119,2.054-3.056,3.413c-0.498,0.714-1.305,1.463-2.171,2.259
		c-0.995,0.92-2.13,1.961-3.103,3.26l6.164,4.631c0.557-0.732,1.335-1.451,2.166-2.219c1.083-0.995,2.307-2.125,3.29-3.548
		c0.509-0.732,1.276-1.475,2.089-2.259c1.072-1.048,2.294-2.231,3.231-3.717c0.919-1.464,1.645-2.945,2.348-4.373
		c0.439-0.919,0.883-1.821,1.363-2.675c0.51-0.896,1.065-1.773,1.611-2.646c0.848-1.346,1.72-2.751,2.464-4.226
		c1.124-2.254,0.842-4.613,0.621-6.521c-0.077-0.685-0.2-1.733-0.146-1.99l0.749-1.721c0.783-1.791,1.597-3.629,2.277-5.532
		c0.141-0.403,0.954-1.211,1.551-1.803c1.242-1.235,2.787-2.774,3.407-4.964c0.532-1.862,0.849-3.688,1.153-5.45
		c0.146-0.838,0.293-1.663,0.457-2.458c0.416-2.02,0.176-3.904-0.036-5.561c-0.122-1.001-0.245-1.944-0.163-2.599
		c0.234-1.885,0.116-3.658,0.005-5.215c-0.059-0.937-0.129-1.856-0.1-2.763c0.082-2.002-0.064-3.816-0.205-5.578
		c-0.064-0.784-0.129-1.557-0.164-2.335c-0.029-0.527,0.328-1.516,0.633-2.394c0.567-1.604,1.276-3.606,0.965-5.806
		c-0.31-2.225-1.417-4.01-2.318-5.45c-0.48-0.784-0.983-1.586-1.101-2.078c-0.234-0.989-0.362-1.979-0.498-2.945
		c-0.223-1.592-0.451-3.243-1.019-4.922c-0.31-0.907-0.567-1.803-0.819-2.693c-0.48-1.633-0.972-3.325-1.698-4.946
		c-0.375-0.831-0.603-1.879-0.855-2.979c-0.339-1.539-0.732-3.278-1.62-4.858c-1.265-2.224-3.185-3.512-4.73-4.542
		c-0.516-0.345-1.3-0.872-1.488-1.101c-0.814-1.159-1.305-1.896-1.674-2.441c-1.047-1.581-1.399-2.025-3.407-4.021l-5.438,5.473
		c1.616,1.604,1.663,1.674,2.424,2.822C552.655,657.714,553.182,658.51,554.078,659.757z"/>
	<path fill="#188375" d="M736,657.381c-0.989,1.352-2.218,3.038-2.698,5.245c-0.193,0.86-0.515,1.726-0.831,2.61
		c-0.55,1.534-1.176,3.272-1.422,5.216c-0.241,1.955,0.157,3.764,0.509,5.361c0.223,1.048,0.446,2.031,0.416,2.798
		c-0.023,0.714-0.059,1.446-0.105,2.184c-0.1,1.838-0.2,3.752-0.088,5.813c0.111,2.043,0.416,4.068,0.714,6.029l0.269,1.891
		c0.269,1.92,1.071,3.518,1.773,4.935c0.469,0.924,0.908,1.814,1.072,2.575c0.093,0.409-0.077,1.422-0.212,2.23
		c-0.286,1.691-0.632,3.793,0.03,5.988c0.503,1.68,1.17,3.278,1.809,4.817c0.362,0.861,0.719,1.727,1.053,2.623
		c0.633,1.668,1.593,3.079,2.448,4.314c0.608,0.902,1.194,1.756,1.563,2.575c1.117,2.488,2.376,4.94,3.465,7.048
		c0.216,0.409,0.328,1.458,0.416,2.306c0.17,1.663,0.387,3.74,1.504,5.648c0.492,0.831,0.949,1.715,1.411,2.599
		c0.737,1.422,1.504,2.886,2.446,4.343c1.399,2.142,2.881,4.378,4.444,6.567c1.417,1.979,3.606,2.798,5.361,3.459
		c0.655,0.246,1.745,0.656,1.979,0.861l6.093-4.73c-1.474-1.896-3.634-2.705-5.361-3.354c-0.649-0.24-1.627-0.615-1.791-0.72
		c-1.499-2.102-2.915-4.244-4.255-6.299c-0.744-1.136-1.393-2.37-2.073-3.682c-0.521-1.013-1.042-2.008-1.597-2.956
		c-0.276-0.462-0.387-1.563-0.492-2.541c-0.164-1.575-0.339-3.354-1.235-5.063c-1.042-2.013-2.242-4.349-3.272-6.644
		c-0.656-1.458-1.493-2.687-2.242-3.775c-0.662-0.966-1.281-1.879-1.586-2.681c-0.362-0.972-0.762-1.926-1.159-2.869
		c-0.591-1.422-1.153-2.774-1.54-4.068c-0.14-0.474,0.041-1.592,0.2-2.494c0.252-1.551,0.55-3.307,0.129-5.18
		c-0.375-1.686-1.077-3.096-1.704-4.349c-0.48-0.966-0.937-1.879-1.03-2.558l-0.287-1.961c-0.275-1.867-0.544-3.63-0.637-5.321
		c-0.094-1.627,0-3.243,0.093-4.958c0.041-0.796,0.088-1.581,0.105-2.359c0.064-1.727-0.287-3.308-0.591-4.695
		c-0.228-1.036-0.462-2.113-0.387-2.757c0.141-1.1,0.568-2.288,1.024-3.559c0.405-1.13,0.826-2.307,1.106-3.565
		c0.135-0.627,0.779-1.505,1.4-2.353c0.031-0.043,0.064-0.096,0.096-0.14c-2.216-1.768-4.272-3.43-6.004-4.873
		C736.215,657.072,736.115,657.223,736,657.381z"/>
	<path fill="#188375" d="M681.802,660.36c0.018,0.825,0.041,2.072-0.077,2.33c-0.211,0.252-1.047,0.79-1.597,1.147
		c-1.698,1.095-3.805,2.452-4.789,4.946c-0.726,1.844-0.767,3.723-0.803,5.379c-0.023,1.089-0.041,2.113-0.257,2.839
		c-0.544,1.897-0.439,3.723-0.334,5.332c0.064,1.048,0.129,2.031-0.018,2.781c-0.152,0.785-0.439,1.663-0.749,2.593
		c-0.498,1.499-1.065,3.19-1.253,5.14c-0.07,0.667-0.375,1.557-0.696,2.5c-0.551,1.575-1.159,3.366-1.183,5.438
		c-0.018,1.955,0.562,3.693,1.077,5.233c0.339,1.007,0.66,1.961,0.714,2.728c0.211,2.804,0.609,5.555,0.965,7.867
		c0.118,0.784,0.112,1.75,0.1,2.774c-0.018,1.569-0.036,3.349,0.398,5.221c0.398,1.739,1.16,3.273,1.827,4.624
		c0.485,0.984,0.948,1.903,1.211,2.775c0.129,0.427,0.041,1.481-0.023,2.329c-0.141,1.698-0.31,3.805,0.474,5.912
		c0.632,1.715,1.656,3.12,2.557,4.367c0.656,0.896,1.265,1.745,1.611,2.523c1.019,2.318,2.189,4.648,3.424,7.118
		c0.287,0.556,0.457,1.516,0.639,2.534c0.293,1.621,0.619,3.465,1.62,5.239c0.926,1.639,2.225,2.856,3.372,3.922
		c0.808,0.749,1.57,1.452,1.973,2.107c0.942,1.523,2.189,2.687,3.278,3.717c0.808,0.761,1.57,1.475,2.043,2.184l6.387-4.332
		c-0.954-1.41-2.119-2.505-3.144-3.477c-0.819-0.761-1.598-1.499-2.014-2.166c-0.948-1.527-2.182-2.675-3.272-3.682
		c-0.801-0.749-1.568-1.464-1.902-2.061c-0.351-0.632-0.544-1.691-0.749-2.815c-0.257-1.446-0.55-3.073-1.376-4.712
		c-1.142-2.271-2.248-4.484-3.22-6.68c-0.673-1.533-1.597-2.815-2.423-3.951c-0.667-0.93-1.306-1.803-1.581-2.529
		c-0.175-0.497-0.088-1.609-0.005-2.593c0.123-1.58,0.269-3.36-0.287-5.197c-0.457-1.482-1.106-2.798-1.674-3.957
		c-0.533-1.071-1.036-2.078-1.229-2.933c-0.228-0.978-0.217-2.16-0.2-3.407c0.012-1.294,0.03-2.623-0.193-4.033
		c-0.334-2.171-0.703-4.724-0.89-7.264c-0.129-1.727-0.644-3.26-1.094-4.613c-0.351-1.048-0.685-2.037-0.68-2.698
		c0.005-0.82,0.375-1.885,0.762-3.003c0.433-1.259,0.924-2.693,1.076-4.261c0.112-1.078,0.492-2.231,0.902-3.454
		c0.368-1.124,0.755-2.289,1.006-3.583c0.328-1.703,0.228-3.301,0.141-4.7c-0.071-1.077-0.135-2.102,0.041-2.716
		c0.491-1.691,0.532-3.354,0.562-4.823c0.018-1.054,0.047-2.154,0.228-2.634c0.211-0.322,1.222-0.971,1.825-1.364
		c1.447-0.937,3.238-2.089,4.221-4.027c1.065-2.084,1.024-4.302,0.989-6.076c-0.005-0.656-0.029-1.639-0.023-1.768
		c0.551-0.866,1.516-1.633,2.541-2.435c1.013-0.802,2.061-1.627,2.915-2.71c1.142-1.44,1.445-1.581,1.991-1.832
		c1.03-0.462,2.077-0.995,3.599-2.365l-5.162-5.731c-0.762,0.679-1.083,0.831-1.616,1.071c-1.458,0.656-2.739,1.376-4.876,4.092
		c-0.287,0.357-0.96,0.896-1.622,1.41c-1.345,1.065-3.026,2.383-4.284,4.361C681.733,656.292,681.767,658.546,681.802,660.36z"/>
	<path fill="#188375" d="M624.256,702.043c0,2.711,0.615,4.25,1.071,5.368c0.328,0.819,0.51,1.276,0.51,2.493
		c0,2.681,0.585,4.209,1.006,5.315c0.328,0.837,0.498,1.3,0.498,2.552c0,1.791-0.077,2.693-0.152,3.589
		c-0.094,1.065-0.182,2.125-0.182,4.255c0,1.124-0.17,1.505-0.55,2.33c-0.528,1.153-1.242,2.728-1.242,5.525
		c0,1.832-0.064,2.751-0.128,3.664c-0.077,1.054-0.152,2.102-0.152,4.209c0,2.482,0.375,3.846,0.673,4.946
		c0.228,0.848,0.398,1.469,0.398,2.921c0,1.317-0.17,1.832-0.468,2.675c-0.392,1.147-0.89,2.582-0.89,5.192
		c0,2.166,0.111,3.313,0.216,4.332c0.088,0.89,0.182,1.78,0.182,3.559c0,3.044,1.054,4.782,1.75,5.936
		c0.485,0.807,0.632,1.047,0.632,1.943h7.721c0-3.044-1.06-4.789-1.756-5.941c-0.487-0.808-0.639-1.048-0.639-1.938
		c0-2.166-0.111-3.319-0.216-4.332c-0.089-0.889-0.176-1.78-0.176-3.559c0-1.317,0.176-1.826,0.469-2.674
		c0.398-1.148,0.896-2.576,0.896-5.193c0-2.488-0.375-3.852-0.674-4.952c-0.228-0.849-0.398-1.464-0.398-2.915
		c0-1.838,0.064-2.751,0.129-3.67c0.071-1.048,0.141-2.102,0.141-4.203c0-1.124,0.176-1.499,0.557-2.329
		c0.526-1.148,1.24-2.722,1.24-5.526c0-1.797,0.077-2.692,0.153-3.588c0.093-1.066,0.187-2.131,0.187-4.256
		c0-2.681-0.585-4.209-1.013-5.315c-0.321-0.837-0.498-1.3-0.498-2.552c0-2.71-0.621-4.25-1.065-5.367
		c-0.334-0.82-0.516-1.276-0.516-2.494c0-1.088,0.176-1.463,0.557-2.271c0.562-1.159,1.311-2.751,1.311-5.584
		c0-2.154-0.105-3.307-0.211-4.314c-0.082-0.889-0.17-1.773-0.17-3.553c0-1.3,0.175-1.803,0.468-2.64
		c0.41-1.153,0.913-2.588,0.913-5.216c0-2.681-0.585-4.209-1.013-5.321c-0.327-0.831-0.503-1.287-0.503-2.534
		c0-2.417-0.316-3.752-0.573-4.823c-0.217-0.884-0.369-1.522-0.369-3.027c0-0.585,0.064-0.673,0.732-1.504
		c0.919-1.124,2.453-3.026,2.453-6.357c0-3.418-1.686-5.333-2.692-6.474c-0.767-0.866-0.767-0.913-0.767-1.376h-7.709
		c0,3.418,1.686,5.333,2.687,6.474c0.76,0.866,0.76,0.919,0.76,1.376c0,0.585-0.059,0.673-0.726,1.504
		c-0.919,1.13-2.446,3.027-2.446,6.357c0,2.417,0.316,3.747,0.574,4.818c0.211,0.889,0.357,1.522,0.357,3.032
		c0,2.687,0.591,4.209,1.024,5.321c0.321,0.831,0.498,1.287,0.498,2.534c0,1.305-0.176,1.815-0.469,2.652
		c-0.403,1.147-0.913,2.587-0.913,5.203c0,2.154,0.112,3.301,0.212,4.309c0.088,0.889,0.175,1.779,0.175,3.559
		c0,1.089-0.175,1.458-0.562,2.271C625.011,697.618,624.256,699.21,624.256,702.043z"/>
	<path fill="#188375" d="M915.349,1035.071c-0.892-1.505-1.488-3.003-2.026-4.332c-0.405-1.001-0.79-1.955-1.206-2.664
		c-0.602-1.042-1.233-2.066-1.854-3.073c-0.727-1.165-1.436-2.312-2.108-3.483c-0.602-1.03-1.236-2.031-1.873-3.027
		c-0.738-1.17-1.469-2.324-2.141-3.5c-0.353-0.608-1.006-1.34-1.698-2.125c-0.995-1.124-2.114-2.382-3.033-4.004
		c-1.228-2.166-1.474-4.373-1.679-6.14c-0.06-0.574-0.159-1.434-0.257-1.71c-0.651-1.136-1.283-2.417-1.909-3.688
		c-0.498-1.013-0.99-2.019-1.534-2.997l-3.711-6.673c-0.697-1.259-1.345-2.511-1.977-3.752c-0.528-1.019-1.05-2.031-1.581-3.009
		l-1.307-0.972c-1.458-1.06-3.271-2.376-4.466-4.589c-0.902-1.674-1.433-3.289-1.903-4.724c-0.309-0.96-0.607-1.873-0.924-2.458
		l-1.685-3.108c-0.224-0.407-0.446-0.81-0.662-1.209c-0.84-0.666-1.682-1.315-2.53-1.946c-11.945,22.611-0.637,67.618,7.712,102.324
		c12.621-7.009,24.954-14.473,36.916-22.459c-0.829-1.552-1.351-3.115-1.737-4.395
		C915.904,1036.463,915.622,1035.544,915.349,1035.071z"/>
	<path fill="#188375" d="M909.086,1000.23c0.057,0.417,0.101,0.818,0.145,1.199c0.071,0.609,0.17,1.522,0.287,1.809
		c0.273,0.474,0.913,1.188,1.586,1.949c1.001,1.13,2.13,2.406,3.079,4.051c0.585,1.024,1.222,2.031,1.868,3.044
		c0.719,1.13,1.438,2.271,2.125,3.448c0.607,1.065,1.269,2.119,1.925,3.185c0.673,1.095,1.356,2.201,2.013,3.325
		c0.837,1.44,1.422,2.897,1.944,4.174c0.421,1.047,0.812,2.025,1.258,2.78c0.984,1.674,1.493,3.349,1.936,4.823
		c0.112,0.372,0.221,0.715,0.331,1.052c0.957-0.67,1.923-1.329,2.874-2.006C923.632,1021.628,916.522,1010.477,909.086,1000.23z"/>
	<path fill="#0F2134" d="M925.317,1029.193c-0.446-0.755-0.837-1.732-1.258-2.78c-0.522-1.276-1.108-2.734-1.944-4.174
		c-0.656-1.124-1.34-2.23-2.013-3.325c-0.656-1.066-1.318-2.119-1.925-3.185c-0.686-1.177-1.406-2.318-2.125-3.448
		c-0.645-1.013-1.283-2.02-1.868-3.044c-0.949-1.645-2.078-2.921-3.079-4.051c-0.673-0.761-1.313-1.475-1.586-1.949
		c-0.118-0.287-0.216-1.2-0.287-1.809c-0.044-0.381-0.087-0.782-0.145-1.199c0,0-0.003-0.003-0.003-0.004
		c-10.455-14.407-21.525-27.065-33.254-36.377c-0.005-0.005-0.011-0.01-0.016-0.014c0.216,0.399,0.438,0.802,0.662,1.209
		l1.685,3.108c0.317,0.585,0.615,1.499,0.924,2.458c0.47,1.434,1.001,3.05,1.903,4.724c1.195,2.213,3.008,3.53,4.466,4.589
		l1.307,0.972c0.531,0.978,1.053,1.99,1.581,3.009c0.632,1.241,1.28,2.493,1.977,3.752l3.711,6.673
		c0.544,0.978,1.036,1.984,1.534,2.997c0.626,1.27,1.258,2.552,1.909,3.688c0.098,0.276,0.197,1.136,0.257,1.71
		c0.205,1.767,0.451,3.974,1.679,6.14c0.919,1.622,2.037,2.88,3.033,4.004c0.692,0.785,1.345,1.516,1.698,2.125
		c0.673,1.177,1.403,2.33,2.141,3.5c0.637,0.995,1.272,1.996,1.873,3.027c0.673,1.17,1.381,2.318,2.108,3.483
		c0.621,1.007,1.253,2.031,1.854,3.073c0.416,0.708,0.801,1.663,1.206,2.664c0.539,1.328,1.135,2.827,2.026,4.332
		c0.273,0.474,0.555,1.393,0.826,2.288c0.386,1.28,0.908,2.843,1.737,4.395c3.263-2.177,6.462-4.438,9.673-6.686
		c-0.109-0.336-0.219-0.68-0.331-1.052C926.81,1032.542,926.301,1030.867,925.317,1029.193z"/>
	<path fill="#FCB598" d="M744.963,575.074c-20.77,14.432-42.992,29.098-60.388,47.896l50.969,33.337l0.432,0.323
		c0.104,0.086,0.246,0.199,0.35,0.287c1.732,1.443,3.788,3.105,6.004,4.873c12.589,10.045,31.569,24.268,41.782,31.315
		c20.975,14.477,43.739,29.103,68.488,36.098c2.926,0.826,5.885,1.417,8.844,2.073c5.24,1.16,2.981-5.065,1.717-7.258
		c-4.392-7.635-12.782-13.345-18.716-18.569c-3.457-3.041-7.367-5.469-11.163-8.067c-4.365-2.992-1.406-9.785,3.725-8.614
		c6.864,1.57,13.548,3.386,19.241,5.77c11.327,4.747,21.057,14.242,31.794,20.242c3.446,1.925,10.879,6.974,15.178,5.541
		c11.964-3.993-7.775-22.606-11.934-26.633c-0.09-0.088-0.213-0.208-0.29-0.282c-7.417-7.242-14.45-13.575-19.17-18.705
		c-1.515-1.646,0.383-4.14,2.39-3.161c6.066,2.981,14.729,6.711,23.776,10.775c12.692,5.697,23.639,12.891,35.412,20.821
		c1.914,1.289,3.796,2.551,5.768,3.878c2.918,1.967,10.972,3.946,15.995,2.563c1.277-0.351,2.409-0.864,3.153-1.715
		c3.068-3.522-2.423-9.555-4.6-12.038c-3.025-3.451-6.481-6.574-10.146-9.331c-9.003-6.771-29.3-19.405-43.536-28.479
		c-10.911-6.952-9.331-11.212,3.424-9.063l0.186,0.033c17.076,2.91,30.64,12.645,46.249,19.214
		c3.708,1.564,27.041,12.131,27.976,3.522c0.153-1.417-0.738-3.085-1.378-4.272c0,0-41.245-42.924-85.979-50.74
		c-2.412-0.42-13.296-2.271-16.124-3.831c-0.777-0.428-0.982-0.835-0.197-1.184c2.204-0.979,40.971-3.189,46.495-3.309
		c5.568-0.12,11.147,0.7,16.714,0.317c3.457-0.241,4.19-4.419,2.335-6.946c-2.871-3.916-8.603-5.929-12.875-7.75
		c-12.574-5.376-25.334-7.012-38.696-8.844c-12.755-1.756-23.529-0.913-36.268-2.746c-5.814-0.837-27.697-0.164-33.489-1.176
		c-4.821-0.841-20.52-13.851-41.126-32.177C768.654,559.551,755.105,568.027,744.963,575.074z"/>
	<path fill="#4FB7AD" d="M274.292,338.574c0.235-0.051,0.462-0.117,0.699-0.167C274.754,338.457,274.527,338.522,274.292,338.574z"
		/>
	<path fill="#4FB7AD" d="M311.247,334.314c1.443-0.046,2.891-0.078,4.34-0.102C314.136,334.236,312.69,334.267,311.247,334.314z"/>
	<path fill="#4FB7AD" d="M261.733,341.887c0.868-0.269,1.742-0.53,2.62-0.783C263.475,341.358,262.601,341.618,261.733,341.887z"/>
	<path fill="#4FB7AD" d="M782.051,513.447c-0.623-0.472-1.261-0.933-1.914-1.376l2.121,2.093
		C782.21,513.93,782.08,513.676,782.051,513.447z"/>
	<path fill="#4FB7AD" d="M285.735,336.526c1.109-0.164,2.223-0.316,3.342-0.461C287.959,336.21,286.844,336.362,285.735,336.526z"/>
	<path fill="#4FB7AD" d="M298.345,335.064c0.796-0.067,1.583-0.157,2.383-0.216C299.928,334.909,299.141,334.997,298.345,335.064z"
		/>
	<path fill="#4FB7AD" d="M140.326,810.866c13.339,30.893,29.598,60.23,48.333,87.753c43.846,43.393,92.257,77.986,136.084,98.338
		c-0.079-0.762-0.104-1.553,0.016-2.389c0.197-1.351,0.421-2.702,0.64-4.053c0.191-1.192,0.388-2.385,0.563-3.577
		c0.17-1.149,0.273-2.308,0.377-3.468c0.131-1.411,0.263-2.822,0.47-4.222c0.273-1.81,0.831-3.396,1.318-4.797
		c0.355-1.006,0.689-1.964,0.799-2.702l1.203-7.641c0.17-1.105,0.252-2.226,0.339-3.347c0.109-1.46,0.23-2.921,0.459-4.365
		c0.23-1.4,0.531-2.789,0.837-4.179c0.252-1.132,0.503-2.27,0.695-3.413c0.323-1.98,1.061-3.697,1.657-5.076
		c0.394-0.913,0.766-1.778,0.864-2.352c0.361-2.128,1.242-3.889,1.947-5.311c0.366-0.727,0.815-1.63,0.892-2.051
		c-0.044-0.016-0.29-0.837-0.454-1.373c-0.514-1.717-1.22-4.069-0.755-6.689c0.153-0.881,0.197-1.942,0.241-3.068
		c0.055-1.411,0.12-3.014,0.421-4.682c0.202-1.099,0.301-2.21,0.405-3.32c0.142-1.477,0.29-2.943,0.563-4.381
		c0.263-1.406,0.558-2.8,0.853-4.19c0.241-1.143,0.481-2.275,0.7-3.407c0.301-1.564,0.722-2.986,1.121-4.359
		c0.312-1.05,0.629-2.1,0.837-3.167c0.552-2.773,2.248-4.742,3.49-6.18l0.881-1.061c-0.027-0.405-0.153-1.132-0.241-1.652
		c-0.284-1.695-0.645-3.801-0.148-6.131c0.416-1.964,1.187-3.577,1.871-5.005c0.432-0.897,0.837-1.745,0.963-2.319
		c0.016-0.246-0.142-1.17-0.246-1.783c-0.301-1.728-0.678-3.878-0.137-6.257c0.334-1.455,0.771-2.888,1.214-4.304
		c0.328-1.061,0.656-2.117,0.908-3.178c0.509-2.128,1.515-3.85,2.324-5.234c0.41-0.689,0.913-1.559,1.017-1.964
		c0.498-2.018,1.422-3.697,2.166-5.048c0.443-0.809,0.902-1.641,1.034-2.149c0.17-0.651,0.208-1.613,0.246-2.636
		c0.055-1.542,0.12-3.293,0.634-5.163c0.246-0.902,0.405-1.958,0.569-3.074c0.208-1.4,0.443-2.992,0.913-4.6
		c0.432-1.493,0.946-2.943,1.455-4.375c0.361-1.017,0.722-2.018,1.034-3.025c0.509-1.619,1.138-3.112,1.69-4.43
		c0.405-0.957,0.815-1.898,1.132-2.86l10.977,3.67c-0.416,1.242-0.924,2.461-1.444,3.692c-0.465,1.099-0.941,2.204-1.302,3.369
		c-0.361,1.154-0.771,2.303-1.181,3.468c-0.438,1.225-0.881,2.456-1.253,3.73c-0.246,0.848-0.405,1.914-0.574,3.052
		c-0.197,1.345-0.421,2.871-0.859,4.452c-0.159,0.574-0.191,1.526-0.23,2.532c-0.055,1.52-0.12,3.249-0.613,5.119
		c-0.492,1.898-1.34,3.44-2.089,4.802c-0.459,0.842-0.941,1.712-1.077,2.27c-0.503,2.018-1.477,3.681-2.259,5.015
		c-0.438,0.755-0.946,1.619-1.05,2.067c-0.312,1.313-0.711,2.614-1.116,3.927c-0.356,1.138-0.716,2.281-0.984,3.451
		c-0.005,0.208,0.148,1.105,0.252,1.701c0.301,1.723,0.673,3.867,0.153,6.252c-0.416,1.876-1.165,3.446-1.832,4.829
		c-0.443,0.924-0.859,1.794-0.984,2.401c-0.022,0.263,0.131,1.192,0.235,1.805c0.29,1.69,0.645,3.796,0.17,6.126
		c-0.558,2.713-2.232,4.654-3.457,6.071l-0.963,1.181c-0.273,1.302-0.64,2.587-1.017,3.872c-0.323,1.083-0.651,2.177-0.864,3.287
		c-0.23,1.209-0.487,2.412-0.749,3.626c-0.273,1.296-0.552,2.598-0.799,3.911c-0.202,1.105-0.306,2.232-0.41,3.358
		c-0.142,1.433-0.284,2.871-0.541,4.288c-0.159,0.864-0.202,1.936-0.246,3.068c-0.055,1.395-0.115,2.975-0.41,4.627
		c0.044,0,0.284,0.81,0.448,1.34c0.514,1.712,1.22,4.064,0.766,6.673c-0.361,2.095-1.231,3.845-1.931,5.251
		c-0.366,0.733-0.82,1.641-0.892,2.073c-0.334,1.942-1.034,3.566-1.652,4.999c-0.394,0.924-0.771,1.799-0.87,2.379
		c-0.219,1.345-0.514,2.685-0.809,4.025c-0.257,1.17-0.52,2.346-0.711,3.528c-0.181,1.127-0.257,2.264-0.35,3.407
		c-0.104,1.422-0.219,2.85-0.443,4.255l-1.192,7.608c-0.279,1.794-0.826,3.369-1.313,4.758c-0.355,1.012-0.689,1.969-0.799,2.707
		c-0.181,1.17-0.284,2.357-0.394,3.544c-0.12,1.373-0.252,2.746-0.448,4.108c-0.186,1.252-0.394,2.505-0.596,3.752
		c-0.191,1.176-0.383,2.346-0.558,3.517l0.514,1.395c0.706,1.761,1.668,4.173,1.269,6.963c-0.377,2.658-1.81,4.682-2.855,6.159
		l-0.804,1.198l0.41,1.438c0.503,1.723,1.132,3.872,0.788,6.355c-0.252,1.838-0.793,3.435-1.274,4.84
		c-0.345,1.001-0.667,1.942-0.76,2.647c-0.164,1.225-0.279,2.45-0.394,3.675c-0.12,1.334-0.246,2.658-0.421,3.976
		c-0.12,0.913-0.12,1.996-0.12,3.145c0,1.129-0.025,2.398-0.141,3.711c83.89,56.157,184.68,88.946,292.995,88.946
		c92.649,0,179.758-24.049,255.528-66.131c-8.349-34.707-19.657-79.713-7.712-102.324c0.848,0.631,1.69,1.28,2.53,1.946
		c0.005,0.005,0.011,0.01,0.016,0.014c-0.448-0.82-0.902-1.649-1.315-2.435c-1.159-2.177-1.477-4.419-1.704-6.053
		c-0.077-0.556-0.2-1.399-0.293-1.662c-0.492-0.943-1.184-1.891-1.909-2.898c-0.785-1.077-1.586-2.195-2.242-3.465
		c-1.012-1.955-1.417-2.541-1.808-3.109c-0.604-0.878-1.135-1.697-2.067-3.553l10.356-5.169c0.632,1.27,0.872,1.622,1.233,2.143
		c0.667,0.972,1.324,1.967,2.571,4.384c0.257,0.498,0.785,1.223,1.335,1.99c0.848,1.177,1.903,2.634,2.828,4.401
		c0.971,1.862,1.242,3.788,1.458,5.327c0.118,0.831,0.257,1.861,0.468,2.247c0.599,1.136,1.231,2.289,1.884,3.489l1.739,3.202
		c0.796,1.486,1.288,2.997,1.728,4.326c0.345,1.06,0.673,2.061,1.075,2.81l1.102,0.743c1.422,1.036,3.377,2.458,4.646,4.771
		c0.58,1.065,1.143,2.154,1.709,3.267c0.585,1.136,1.19,2.294,1.827,3.465l3.695,6.638c0.632,1.13,1.211,2.312,1.802,3.512
		c0.533,1.083,1.072,2.178,1.668,3.249c0.922,1.633,1.266,3.287,1.469,4.756c0,0.001,0.003,0.003,0.003,0.003
		c7.436,10.248,14.546,21.399,21.372,32.833c67.61-48.006,123.488-111.475,162.411-185.245c-0.451-0.564-0.894-1.14-1.359-1.684
		c-0.93-1.083-1.843-2.16-2.664-3.309c-1.335-1.849-1.925-3.829-2.396-5.42c-0.191-0.634-0.476-1.597-0.662-1.87
		c-0.656-0.908-1.417-1.739-2.16-2.571c-0.924-1.034-1.881-2.1-2.784-3.331c-1.515-2.062-2.007-4.376-2.368-6.066l-0.306-1.324
		l-1.181-0.514c-1.772-0.733-4.195-1.739-5.896-4.009c-0.886-1.192-1.668-2.439-2.434-3.681c-0.585-0.946-1.154-1.887-1.81-2.757
		c-0.596-0.788-1.373-1.592-2.199-2.445c-0.979-1.012-1.991-2.062-2.943-3.309c-0.81-1.072-1.641-2.095-2.456-3.107
		c-0.793-0.979-1.575-1.947-2.319-2.915c-1.734-2.259-2.122-4.835-2.412-6.716l-0.224-1.324c-0.377-0.339-1.056-0.793-1.624-1.165
		c-1.313-0.875-2.953-1.964-4.266-3.637c-0.957-1.22-1.788-2.483-2.593-3.708c-0.602-0.913-1.176-1.805-1.81-2.609
		c-0.246-0.306-1.176-0.853-1.849-1.258c-1.389-0.82-3.123-1.838-4.479-3.544c-1.324-1.652-2.215-3.32-2.937-4.665
		c-0.405-0.766-0.831-1.553-1.116-1.914c-2.445-3.014-2.932-5.125-3.2-6.87l-0.005-0.077l-0.142-0.197l4.026-3.341
		c-23.226-21.129-49.326-38.622-79.134-48.905c-5.024,1.383-13.077-0.596-15.995-2.563c-1.972-1.328-3.853-2.589-5.768-3.878
		c-13.928-3.58-28.031-6.481-42.117-9.448c4.159,4.028,23.899,22.64,11.934,26.633c-4.299,1.433-11.732-3.615-15.178-5.541
		c-10.736-6-20.466-15.495-31.794-20.242c-5.694-2.385-12.377-4.201-19.241-5.77c-5.13-1.17-8.089,5.623-3.725,8.614
		c3.796,2.598,7.706,5.026,11.163,8.067c5.934,5.223,14.324,10.933,18.716,18.569c1.263,2.193,3.522,8.417-1.717,7.258
		c-2.959-0.656-5.918-1.247-8.844-2.073c-24.749-6.995-47.513-21.621-68.488-36.098c-10.213-7.047-29.193-21.271-41.782-31.315
		c-0.031,0.044-0.064,0.097-0.096,0.14c-0.621,0.848-1.265,1.726-1.4,2.353c-0.28,1.258-0.701,2.435-1.106,3.565
		c-0.457,1.27-0.883,2.458-1.024,3.559c-0.075,0.644,0.159,1.721,0.387,2.757c0.304,1.387,0.655,2.968,0.591,4.695
		c-0.018,0.778-0.064,1.563-0.105,2.359c-0.093,1.715-0.187,3.331-0.093,4.958c0.093,1.691,0.362,3.454,0.637,5.321l0.287,1.961
		c0.093,0.679,0.55,1.592,1.03,2.558c0.626,1.253,1.329,2.663,1.704,4.349c0.421,1.873,0.123,3.629-0.129,5.18
		c-0.159,0.902-0.339,2.02-0.2,2.494c0.387,1.294,0.949,2.646,1.54,4.068c0.398,0.943,0.797,1.896,1.159,2.869
		c0.305,0.802,0.924,1.715,1.586,2.681c0.749,1.088,1.586,2.318,2.242,3.775c1.03,2.295,2.23,4.63,3.272,6.644
		c0.896,1.709,1.071,3.489,1.235,5.063c0.105,0.978,0.216,2.078,0.492,2.541c0.555,0.948,1.076,1.944,1.597,2.956
		c0.68,1.311,1.329,2.546,2.073,3.682c1.34,2.054,2.757,4.197,4.255,6.299c0.164,0.105,1.142,0.48,1.791,0.72
		c1.727,0.649,3.887,1.458,5.361,3.354l-6.093,4.73c-0.234-0.205-1.324-0.615-1.979-0.861c-1.756-0.661-3.945-1.481-5.361-3.459
		c-1.563-2.189-3.045-4.425-4.444-6.567c-0.942-1.458-1.709-2.921-2.446-4.343c-0.462-0.884-0.919-1.768-1.411-2.599
		c-1.117-1.908-1.335-3.986-1.504-5.648c-0.088-0.848-0.2-1.897-0.416-2.306c-1.088-2.108-2.348-4.56-3.465-7.048
		c-0.369-0.819-0.954-1.674-1.563-2.575c-0.855-1.235-1.815-2.646-2.448-4.314c-0.334-0.896-0.69-1.762-1.053-2.623
		c-0.639-1.54-1.306-3.137-1.809-4.817c-0.662-2.195-0.316-4.297-0.03-5.988c0.135-0.808,0.305-1.821,0.212-2.23
		c-0.164-0.761-0.603-1.651-1.072-2.575c-0.703-1.417-1.504-3.015-1.773-4.935l-0.269-1.891c-0.298-1.961-0.603-3.986-0.714-6.029
		c-0.112-2.061-0.012-3.975,0.088-5.813c0.047-0.738,0.082-1.469,0.105-2.184c0.03-0.767-0.193-1.75-0.416-2.798
		c-0.351-1.598-0.749-3.407-0.509-5.361c0.246-1.944,0.872-3.682,1.422-5.216c0.316-0.884,0.639-1.75,0.831-2.61
		c0.48-2.207,1.709-3.893,2.698-5.245c0.115-0.158,0.215-0.308,0.327-0.465c-0.104-0.088-0.246-0.201-0.35-0.287l-0.432-0.323
		l-50.969-33.337c17.395-18.798,39.618-33.464,60.388-47.896c10.142-7.047,23.691-15.523,32.323-26.012
		c7.443-9.042,11.186-19.587,5.845-32.052c-1.302,1.155-2.286,1.717-3.235,2.189c-0.449,0.224-0.842,0.416-1.865,1.335l-0.323,1.028
		c-0.602,1.903-1.504,4.769-3.932,6.935c-1.914,1.712-4.168,2.275-5.978,2.724c-0.634,0.159-1.586,0.394-1.876,0.563
		c-0.361,0.323-0.941,1.056-1.559,1.838c-0.946,1.192-2.122,2.68-3.692,3.998c-0.284,0.235-0.848,1.088-1.263,1.712
		c-0.924,1.384-2.073,3.107-3.84,4.556c-1.121,0.908-2.341,1.75-3.599,2.603c-0.952,0.645-1.925,1.296-2.85,2.035
		c-2.193,1.75-4.775,2.133-6.662,2.406c-0.509,0.077-1.247,0.186-1.608,0.29c-0.607,0.498-1.269,1.17-1.964,1.881
		c-1.039,1.056-2.215,2.253-3.659,3.347c-0.623,0.476-1.329,1.209-2.078,1.991c-1.05,1.088-2.237,2.319-3.73,3.429
		c-0.837,0.618-1.608,1.34-2.396,2.062c-1.061,0.968-2.27,2.067-3.654,3.074c-1.706,1.242-3.55,1.903-5.026,2.434
		c-0.897,0.317-1.827,0.651-2.27,0.963c-0.569,0.405-1.253,1.121-1.974,1.881c-1.072,1.121-2.292,2.396-3.889,3.506
		c-0.279,0.202-0.908,1.045-1.329,1.608c-1.012,1.351-2.27,3.03-4.184,4.332c-1.198,0.81-2.445,1.575-3.703,2.341
		c-1.001,0.607-2.018,1.22-3.003,1.881c-2.1,1.395-4.326,1.772-6.12,2.073c-0.618,0.109-1.548,0.263-1.838,0.399
		c-0.859,0.563-1.767,1.236-2.68,1.903c-1.209,0.886-2.434,1.778-3.714,2.598c-0.465,0.295-1.138,1.012-1.794,1.701
		c-1.067,1.138-2.401,2.554-4.179,3.664c-1.953,1.22-3.943,2.428-5.945,3.648l-0.81,0.498c-1.75,1.067-3.517,1.592-5.07,2.057
		c-0.974,0.29-1.892,0.563-2.407,0.87c-1.488,0.886-3.003,1.515-4.337,2.067c-1.056,0.438-2.051,0.848-2.839,1.307
		c-0.995,0.58-1.974,1.192-2.953,1.805c-1.258,0.782-2.516,1.564-3.812,2.303l-0.799,1.247c-1.023,1.531-2.423,3.621-4.808,4.95
		c-2.259,1.263-4.567,1.422-6.421,1.553c-0.607,0.044-1.521,0.109-1.816,0.208c-0.164,0.109-0.875,0.891-1.351,1.406
		c-0.315,0.343-0.719,0.729-1.083,1.101c3.835,1.17,7.507,2.403,11.065,3.682c-6.276,0.61-12.388,0.9-18.359,0.948
		c-0.073,0.034-0.142,0.07-0.215,0.105c-1.067,0.498-2.133,0.99-3.178,1.531l-0.845-1.624c-37.247-0.47-68.161-11.03-90.937-22.533
		c30.574,2.703,60.91,7.144,86.977,13.635c1.026-0.52,2.059-1.02,3.098-1.5c1.154-0.536,2.297-1.067,3.407-1.657
		c0.312-0.17,1.05-0.974,1.537-1.51c1.116-1.214,2.505-2.729,4.474-3.807c2.27-1.236,4.561-1.395,6.41-1.526l1.548-0.148
		l0.886-1.263c1.006-1.493,2.374-3.539,4.676-4.851c1.159-0.662,2.292-1.367,3.418-2.073c1.078-0.673,2.155-1.34,3.243-1.974
		c1.466-0.853,2.943-1.471,4.244-2.007c1.067-0.443,2.078-0.859,2.839-1.313c1.75-1.045,3.572-1.592,5.032-2.024
		c0.924-0.273,1.876-0.558,2.346-0.848l0.815-0.498c1.969-1.198,3.922-2.39,5.847-3.582c0.498-0.317,1.198-1.061,1.876-1.778
		c1.083-1.154,2.314-2.461,3.998-3.533c1.067-0.684,2.084-1.428,3.09-2.166c1.088-0.799,2.171-1.592,3.287-2.319
		c2.122-1.378,4.348-1.756,6.137-2.062c0.596-0.098,1.493-0.252,1.772-0.377c0.995-0.673,2.138-1.367,3.282-2.062
		c1.088-0.662,2.166-1.313,3.2-2.018c0.317-0.213,0.963-1.072,1.433-1.696c0.968-1.302,2.182-2.921,3.987-4.173
		c0.634-0.443,1.356-1.198,2.117-1.996c1.017-1.067,2.171-2.275,3.648-3.325c1.739-1.236,3.582-1.892,5.065-2.428
		c0.826-0.295,1.767-0.629,2.133-0.897c0.859-0.624,1.728-1.417,2.647-2.253c1.017-0.935,2.073-1.898,3.298-2.806
		c0.722-0.536,1.482-1.329,2.292-2.166c0.974-1.017,2.078-2.16,3.418-3.183c0.777-0.591,1.57-1.395,2.406-2.248
		c0.957-0.968,2.035-2.067,3.309-3.057c2.286-1.778,4.917-2.16,6.831-2.445l1.433-0.246c1.072-0.831,2.177-1.586,3.265-2.33
		c0.963-0.651,1.909-1.28,2.768-1.98c0.432-0.356,0.99-1.198,1.537-2.018c0.892-1.335,1.903-2.85,3.451-4.151
		c0.667-0.563,1.351-1.417,2.062-2.324c0.881-1.11,1.876-2.368,3.161-3.479c2.171-1.876,4.704-2.505,6.552-2.97l1.138-0.295
		c0.131-0.35,0.361-1.083,0.525-1.603c0.552-1.761,1.247-3.949,3.09-5.672c2.357-2.188,3.708-2.943,4.988-3.582
		c0.141-0.068,0.232-0.13,0.334-0.191c-17.397-11.799-34.293-23.22-50.841-34.197c-68.437-45.397-131.08-82.913-199.543-105.612
		c-1.242-0.412-2.468-0.863-3.714-1.265c-20.121-6.492-40.759-11.713-62.221-15.463c-11.404-1.992-23.57-4.266-36.173-6.511
		c-1.453-0.259-2.923-0.512-4.389-0.77c-5.294-0.931-10.66-1.84-16.079-2.727c-5.175-0.846-10.385-1.653-15.636-2.419
		c-0.674-0.098-1.344-0.201-2.02-0.297c-22.125-3.166-44.671-5.346-66.334-5.176c-3.7,35.894-28.589,71.059-67.73,89.683
		c-38.483,18.317-80.707,15.878-110.805-3.003c30.369-33.037,65.975-56.776,111.438-75.213
		c-86.017,34.869-140.113,87.204-183.484,188.583c-41.428,96.829-4.723,204.637,60.24,293.786c-2.587-5.678-5.1-11.398-7.496-17.177
		H140.326z M362.448,612.876c1.049-1.211,2.489-2.17,4.374-2.856c14.785-5.385,52.7-8.457,97.663-7.907
		c0.247,3.604,0.87,7.263,1.686,10.764c2.683,11.494,7.403,21.219,7.403,21.219c6.655,31.785-13.75,43.632-28.929,48.034
		c-3.12,0.907-25.855,2.55-52.882,4.24C372.485,650.83,353.682,622.993,362.448,612.876z M508.478,615.358
		c0.364,0.533,0.844,1.218,1.522,2.184c1.329,1.861,2.646,4.185,4.045,6.643l0.176,0.31c0.866,1.54,1.551,3.214,2.212,4.847
		c0.346,0.837,0.691,1.697,1.078,2.552c0.31,0.69,0.649,1.381,0.989,2.089c0.773,1.569,1.645,3.349,2.307,5.303
		c0.58,1.721,0.93,3.495,1.263,5.21c0.176,0.884,0.346,1.78,0.562,2.67c0.44,1.867,0.299,3.658,0.187,5.244
		c-0.081,1.054-0.157,2.054-0.047,2.863c0.252,1.773,0.228,3.459,0.217,5.093c-0.007,0.919-0.018,1.856,0.023,2.827
		c0.07,0.269,0.608,1.147,0.965,1.732c1.013,1.645,2.271,3.706,2.171,6.269c-0.07,1.756-0.421,3.425-0.76,5.034
		c-0.211,0.984-0.428,1.985-0.557,2.986c-0.252,2.066-1.224,3.723-2.084,5.175c-0.498,0.86-1.019,1.744-1.147,2.37
		c-0.111,0.562-0.018,1.534,0.07,2.465c0.159,1.609,0.364,3.611-0.221,5.672c-0.598,2.113-2.02,3.653-3.156,4.882
		c-0.632,0.685-1.346,1.446-1.515,1.931c-0.305,0.843-0.569,1.704-0.838,2.57c-0.473,1.557-0.971,3.167-1.697,4.853
		c-0.2,0.457-0.252,1.463-0.305,2.353c-0.088,1.65-0.198,3.693-1.176,5.648c-1.06,2.119-2.266,4.255-3.5,6.427l-0.293,0.526
		c-0.949,1.674-2.283,2.863-3.466,3.911c-0.801,0.72-1.556,1.387-1.948,2.02c-1.294,2.043-2.676,4.051-4.121,6.128l-0.246,0.357
		c-0.339,0.492-0.626,1.458-0.913,2.383c-0.473,1.581-1.017,3.366-2.247,5.005l-6.176-4.63c0.416-0.55,0.726-1.551,1.042-2.616
		c0.433-1.423,0.931-3.044,1.95-4.531l0.246-0.351c1.381-1.99,2.703-3.898,3.933-5.859c0.978-1.551,2.242-2.675,3.354-3.664
		c0.803-0.714,1.563-1.393,1.873-1.949l0.305-0.527c1.158-2.048,2.3-4.068,3.308-6.076c0.263-0.527,0.316-1.592,0.38-2.628
		c0.082-1.528,0.175-3.26,0.919-4.982c0.556-1.299,0.972-2.645,1.417-4.074c0.293-0.971,0.591-1.943,0.937-2.897
		c0.703-1.961,2.043-3.401,3.113-4.566c0.516-0.562,1.294-1.399,1.399-1.739c0.187-0.661,0.082-1.709-0.029-2.822
		c-0.141-1.428-0.305-3.061,0.047-4.771c0.381-1.873,1.277-3.389,2.055-4.724c0.48-0.814,1.019-1.732,1.078-2.219
		c0.152-1.218,0.403-2.435,0.66-3.635c0.287-1.358,0.562-2.64,0.603-3.747c-0.047-0.316-0.667-1.323-1.035-1.92
		c-0.885-1.44-1.991-3.237-2.096-5.397c-0.059-1.118-0.046-2.207-0.036-3.278c0.018-1.41,0.03-2.74-0.139-3.939
		c-0.228-1.639-0.118-3.172-0.012-4.531c0.082-1.112,0.164-2.177,0-2.868c-0.234-0.995-0.433-1.99-0.626-2.974
		c-0.298-1.534-0.58-2.979-1.001-4.22c-0.498-1.481-1.224-2.956-1.92-4.384c-0.387-0.79-0.767-1.563-1.106-2.329
		c-0.423-0.937-0.808-1.879-1.177-2.792c-0.596-1.464-1.158-2.851-1.786-3.945l-0.175-0.31c-1.294-2.283-2.517-4.443-3.618-5.988
		c-0.719-1.006-1.211-1.721-1.597-2.288c-1.024-1.493-1.065-1.551-2.851-3.331l5.438-5.467
		C506.863,613.063,507.185,613.473,508.478,615.358z M687.264,649.953c0.662-0.515,1.335-1.054,1.622-1.41
		c2.137-2.716,3.418-3.436,4.876-4.092c0.533-0.24,0.855-0.392,1.616-1.071l5.162,5.731c-1.522,1.37-2.569,1.903-3.599,2.365
		c-0.546,0.252-0.849,0.392-1.991,1.832c-0.855,1.083-1.902,1.908-2.915,2.71c-1.024,0.802-1.99,1.569-2.541,2.435
		c-0.005,0.129,0.018,1.112,0.023,1.768c0.036,1.773,0.077,3.992-0.989,6.076c-0.983,1.938-2.774,3.09-4.221,4.027
		c-0.603,0.392-1.615,1.042-1.825,1.364c-0.182,0.48-0.211,1.581-0.228,2.634c-0.03,1.469-0.071,3.132-0.562,4.823
		c-0.176,0.615-0.112,1.639-0.041,2.716c0.088,1.399,0.187,2.997-0.141,4.7c-0.252,1.294-0.639,2.459-1.006,3.583
		c-0.41,1.223-0.79,2.376-0.902,3.454c-0.152,1.568-0.643,3.003-1.076,4.261c-0.387,1.118-0.756,2.183-0.762,3.003
		c-0.005,0.661,0.328,1.65,0.68,2.698c0.45,1.352,0.965,2.886,1.094,4.613c0.187,2.541,0.557,5.093,0.89,7.264
		c0.223,1.41,0.205,2.739,0.193,4.033c-0.018,1.247-0.029,2.429,0.2,3.407c0.193,0.855,0.696,1.862,1.229,2.933
		c0.567,1.159,1.217,2.476,1.674,3.957c0.557,1.838,0.41,3.617,0.287,5.197c-0.082,0.984-0.17,2.096,0.005,2.593
		c0.275,0.726,0.913,1.598,1.581,2.529c0.826,1.136,1.75,2.417,2.423,3.951c0.972,2.195,2.078,4.408,3.22,6.68
		c0.826,1.639,1.119,3.266,1.376,4.712c0.205,1.124,0.398,2.183,0.749,2.815c0.334,0.597,1.101,1.311,1.902,2.061
		c1.09,1.007,2.325,2.154,3.272,3.682c0.416,0.667,1.195,1.405,2.014,2.166c1.024,0.972,2.189,2.067,3.144,3.477l-6.387,4.332
		c-0.473-0.708-1.235-1.423-2.043-2.184c-1.088-1.03-2.335-2.195-3.278-3.717c-0.403-0.655-1.165-1.358-1.973-2.107
		c-1.147-1.065-2.446-2.283-3.372-3.922c-1.001-1.774-1.328-3.618-1.62-5.239c-0.182-1.019-0.351-1.979-0.639-2.534
		c-1.235-2.471-2.405-4.8-3.424-7.118c-0.346-0.778-0.954-1.627-1.611-2.523c-0.901-1.247-1.925-2.651-2.557-4.367
		c-0.785-2.107-0.615-4.215-0.474-5.912c0.064-0.848,0.152-1.902,0.023-2.329c-0.264-0.872-0.726-1.791-1.211-2.775
		c-0.667-1.352-1.429-2.886-1.827-4.624c-0.433-1.873-0.416-3.652-0.398-5.221c0.012-1.024,0.018-1.99-0.1-2.774
		c-0.357-2.312-0.755-5.063-0.965-7.867c-0.053-0.767-0.375-1.721-0.714-2.728c-0.516-1.54-1.095-3.278-1.077-5.233
		c0.023-2.072,0.632-3.863,1.183-5.438c0.321-0.943,0.626-1.832,0.696-2.5c0.187-1.95,0.755-3.641,1.253-5.14
		c0.31-0.93,0.598-1.808,0.749-2.593c0.146-0.749,0.082-1.732,0.018-2.781c-0.105-1.609-0.211-3.435,0.334-5.332
		c0.216-0.726,0.234-1.75,0.257-2.839c0.036-1.657,0.077-3.535,0.803-5.379c0.983-2.494,3.09-3.852,4.789-4.946
		c0.55-0.357,1.386-0.896,1.597-1.147c0.118-0.258,0.094-1.505,0.077-2.33c-0.036-1.814-0.07-4.068,1.177-6.046
		C684.238,652.335,685.918,651.018,687.264,649.953z M625.954,690.629c-0.1-1.007-0.212-2.154-0.212-4.309
		c0-2.616,0.51-4.056,0.913-5.203c0.293-0.837,0.469-1.347,0.469-2.652c0-1.247-0.176-1.704-0.498-2.534
		c-0.433-1.112-1.024-2.634-1.024-5.321c0-1.51-0.146-2.143-0.357-3.032c-0.258-1.071-0.574-2.4-0.574-4.818
		c0-3.33,1.527-5.227,2.446-6.357c0.667-0.831,0.726-0.919,0.726-1.504c0-0.457,0-0.509-0.76-1.376
		c-1.001-1.142-2.687-3.056-2.687-6.474h7.709c0,0.463,0,0.509,0.767,1.376c1.006,1.142,2.692,3.056,2.692,6.474
		c0,3.331-1.534,5.233-2.453,6.357c-0.667,0.831-0.732,0.919-0.732,1.504c0,1.505,0.152,2.143,0.369,3.027
		c0.257,1.071,0.573,2.406,0.573,4.823c0,1.247,0.176,1.703,0.503,2.534c0.428,1.112,1.013,2.64,1.013,5.321
		c0,2.628-0.503,4.062-0.913,5.216c-0.293,0.837-0.468,1.34-0.468,2.64c0,1.78,0.088,2.664,0.17,3.553
		c0.105,1.007,0.211,2.16,0.211,4.314c0,2.833-0.749,4.425-1.311,5.584c-0.38,0.808-0.557,1.183-0.557,2.271
		c0,1.218,0.182,1.674,0.516,2.494c0.444,1.118,1.065,2.657,1.065,5.367c0,1.253,0.176,1.715,0.498,2.552
		c0.428,1.106,1.013,2.634,1.013,5.315c0,2.125-0.094,3.19-0.187,4.256c-0.077,0.896-0.153,1.791-0.153,3.588
		c0,2.804-0.714,4.378-1.24,5.526c-0.38,0.831-0.557,1.205-0.557,2.329c0,2.102-0.07,3.155-0.141,4.203
		c-0.064,0.919-0.129,1.832-0.129,3.67c0,1.451,0.17,2.066,0.398,2.915c0.299,1.1,0.674,2.464,0.674,4.952
		c0,2.616-0.498,4.045-0.896,5.193c-0.293,0.848-0.469,1.358-0.469,2.674c0,1.78,0.088,2.67,0.176,3.559
		c0.105,1.013,0.216,2.166,0.216,4.332c0,0.889,0.152,1.129,0.639,1.938c0.696,1.153,1.756,2.897,1.756,5.941h-7.721
		c0-0.896-0.146-1.136-0.632-1.943c-0.696-1.153-1.75-2.892-1.75-5.936c0-1.78-0.094-2.669-0.182-3.559
		c-0.105-1.019-0.216-2.166-0.216-4.332c0-2.61,0.498-4.045,0.89-5.192c0.298-0.843,0.468-1.358,0.468-2.675
		c0-1.451-0.17-2.072-0.398-2.921c-0.298-1.101-0.673-2.465-0.673-4.946c0-2.107,0.075-3.155,0.152-4.209
		c0.064-0.913,0.128-1.832,0.128-3.664c0-2.798,0.714-4.373,1.242-5.525c0.38-0.825,0.55-1.206,0.55-2.33
		c0-2.13,0.088-3.19,0.182-4.255c0.075-0.896,0.152-1.797,0.152-3.589c0-1.253-0.17-1.715-0.498-2.552
		c-0.421-1.106-1.006-2.634-1.006-5.315c0-1.218-0.182-1.674-0.51-2.493c-0.455-1.118-1.071-2.657-1.071-5.368
		c0-2.833,0.755-4.425,1.311-5.584c0.387-0.814,0.562-1.182,0.562-2.271C626.129,692.408,626.042,691.519,625.954,690.629z
		 M555.277,648.829c2.009,1.996,2.36,2.441,3.407,4.021c0.369,0.544,0.86,1.282,1.674,2.441c0.187,0.228,0.972,0.755,1.488,1.101
		c1.545,1.03,3.465,2.318,4.73,4.542c0.889,1.581,1.281,3.319,1.62,4.858c0.252,1.101,0.48,2.149,0.855,2.979
		c0.726,1.622,1.218,3.314,1.698,4.946c0.252,0.89,0.509,1.786,0.819,2.693c0.567,1.68,0.796,3.331,1.019,4.922
		c0.135,0.966,0.264,1.955,0.498,2.945c0.118,0.492,0.621,1.294,1.101,2.078c0.901,1.44,2.007,3.226,2.318,5.45
		c0.31,2.201-0.398,4.203-0.965,5.806c-0.305,0.878-0.662,1.867-0.633,2.394c0.036,0.779,0.1,1.551,0.164,2.335
		c0.141,1.762,0.287,3.576,0.205,5.578c-0.029,0.908,0.041,1.827,0.1,2.763c0.111,1.557,0.228,3.33-0.005,5.215
		c-0.082,0.656,0.041,1.598,0.163,2.599c0.212,1.657,0.451,3.541,0.036,5.561c-0.164,0.796-0.31,1.621-0.457,2.458
		c-0.304,1.762-0.621,3.588-1.153,5.45c-0.621,2.189-2.166,3.729-3.407,4.964c-0.596,0.591-1.41,1.399-1.551,1.803
		c-0.68,1.903-1.493,3.74-2.277,5.532l-0.749,1.721c-0.053,0.257,0.07,1.305,0.146,1.99c0.221,1.908,0.503,4.267-0.621,6.521
		c-0.744,1.475-1.616,2.88-2.464,4.226c-0.546,0.872-1.101,1.75-1.611,2.646c-0.48,0.855-0.924,1.756-1.363,2.675
		c-0.703,1.428-1.429,2.909-2.348,4.373c-0.937,1.486-2.159,2.669-3.231,3.717c-0.814,0.784-1.581,1.527-2.089,2.259
		c-0.983,1.423-2.207,2.552-3.29,3.548c-0.831,0.767-1.609,1.487-2.166,2.219l-6.164-4.631c0.972-1.299,2.107-2.341,3.103-3.26
		c0.867-0.796,1.674-1.545,2.171-2.259c0.937-1.359,2.061-2.453,3.056-3.413c0.842-0.814,1.639-1.586,2.078-2.294
		c0.701-1.112,1.311-2.342,1.943-3.653c0.521-1.054,1.03-2.095,1.586-3.079c0.567-1.002,1.183-1.979,1.791-2.951
		c0.778-1.246,1.522-2.429,2.089-3.565c0.082-0.304-0.052-1.481-0.134-2.177c-0.205-1.739-0.457-3.893,0.427-5.941l0.779-1.773
		c0.742-1.698,1.463-3.337,2.072-5.028c0.732-2.043,2.196-3.5,3.372-4.672c0.521-0.515,1.306-1.293,1.44-1.627
		c0.41-1.451,0.69-3.073,0.96-4.641c0.164-0.913,0.323-1.809,0.498-2.687c0.164-0.779,0.023-1.873-0.123-3.038
		c-0.175-1.364-0.368-2.909-0.17-4.519c0.146-1.147,0.059-2.406-0.036-3.74c-0.082-1.211-0.157-2.411-0.105-3.594
		c0.059-1.54-0.064-3.049-0.193-4.653c-0.07-0.861-0.134-1.721-0.182-2.582c-0.098-2.037,0.551-3.875,1.072-5.344
		c0.252-0.714,0.637-1.797,0.596-2.154c-0.087-0.615-0.667-1.551-1.229-2.458c-0.773-1.241-1.645-2.652-2.054-4.367
		c-0.293-1.229-0.469-2.458-0.639-3.664c-0.182-1.294-0.351-2.517-0.685-3.512c-0.339-1.001-0.632-2.013-0.924-3.009
		c-0.416-1.446-0.814-2.815-1.324-3.951c-0.691-1.54-1.035-3.085-1.34-4.449c-0.246-1.106-0.48-2.154-0.808-2.734
		c-0.362-0.638-1.352-1.299-2.305-1.943c-1.183-0.79-2.523-1.686-3.477-3.038c-0.896-1.247-1.423-2.043-1.814-2.634
		c-0.762-1.147-0.808-1.218-2.424-2.822L555.277,648.829z M569.422,600.135c-1.772,0.427-3.785,0.722-5.584-0.164
		c-1.903-0.952-2.106-3.211-1.996-4.89c0.109,1.723,0.662,3.736,2.308,4.239c1.531,0.574,3.309,0.186,4.901-0.388
		c3.183-1.285,6.295-3.123,8.259-5.874c4.551-5.322,8.111-11.453,9.867-18.104c3.599-13.389,0.799-27.566-2.844-41.168
		c-3.517-13.712-8.259-27.522-9.26-42.18c-0.443-7.28-0.055-14.746,2.144-21.763c0.525-1.756,1.176-3.462,1.953-5.119
		c0.651-1.674,1.564-3.375,2.724-4.819c2.253-2.91,5.683-5.114,9.331-5.152c-3.588,0.563-6.459,3.025-8.319,5.88
		c-0.941,1.466-1.592,3.014-2.078,4.737c-0.585,1.657-1.045,3.347-1.378,5.07c-1.646,6.809-1.614,13.892-0.76,20.828
		c1.788,13.92,6.52,27.391,10.228,41.316c1.805,6.974,3.407,14.106,4.009,21.446c0.602,7.307,0.131,14.91-2.259,21.987
		c-2.346,7.088-6.558,13.406-11.644,18.612C576.467,597.477,572.934,599.112,569.422,600.135z M605.92,437.13
		c-2.089,1.192-3.271,3.347-3.774,5.502c-0.547,2.149,0.044,4.534,0.137,6.788c0.235,2.259,0.897,4.479,1.477,6.651
		c0.908,2.111,1.455,4.31,2.631,6.317c4.075,8.215,9.85,15.599,15.134,23.584c5.054,7.947,10.37,16.977,10.129,27.27
		c0.208,5.059-1.531,9.922-3.599,14.292c-1.012,2.407-3.019,4.14-5.054,5.502c-1.056,0.629-2.303,1.231-3.675,1.017
		c-1.455-0.252-2.018-1.685-2.264-2.768c0.47,1.056,1.285,2.144,2.357,2.057c1.017,0,2.007-0.624,2.85-1.329
		c1.635-1.51,3.183-3.304,3.659-5.42c0.536-2.232,1.668-4.293,1.717-6.58l0.432-3.331c0.071-1.11-0.093-2.232-0.12-3.336
		c-0.454-8.937-5.365-17.021-10.397-24.782c-5.048-7.816-10.884-15.577-14.543-24.689c-1.039-2.204-1.553-4.66-2.242-6.995
		c-0.377-2.428-0.837-4.873-0.799-7.313c0.263-2.445,0.005-4.901,0.979-7.307C601.818,439.936,603.601,437.841,605.92,437.13z
		 M557.707,447.916c2.91-6.689,6.645-13.165,11.787-18.421c1.269-1.324,2.62-2.549,4.064-3.675c1.34-1.192,2.926-2.297,4.616-3.057
		c3.325-1.57,7.384-1.98,10.649-0.355c-3.451-1.127-7.127-0.241-10.08,1.466c-1.504,0.875-2.784,1.964-3.998,3.271
		c-1.274,1.214-2.45,2.516-3.528,3.9c-4.561,5.316-7.745,11.644-10.135,18.208c-4.726,13.22-6.618,27.369-9.637,41.458
		c-1.559,7.034-3.364,14.117-6.164,20.931c-2.778,6.788-6.645,13.345-11.994,18.569c-5.305,5.251-11.923,8.97-18.815,11.3
		c-3.577,1.378-7.466,1.231-11.059,0.547c-1.772-0.421-3.703-1.072-4.895-2.68c-1.269-1.712-0.427-3.818,0.438-5.262
		c-0.689,1.586-1.11,3.632,0.131,4.829c1.105,1.203,2.866,1.663,4.545,1.871c3.418,0.301,7.023,0.077,10.025-1.482
		c6.47-2.68,12.421-6.525,17.004-11.655c9.287-10.293,13.225-24.197,16.151-37.974C549.908,475.887,551.948,461.431,557.707,447.916
		z M240.596,507.347l1.209,0.777c1.449,0.99,3.254,2.226,4.545,4.299c0.902,1.455,1.471,2.904,1.98,4.19
		c0.388,0.984,0.755,1.92,1.132,2.456l1.378,0.859c1.428,0.853,3.2,1.92,4.616,3.752c1.488,1.936,2.013,4.031,2.439,5.721
		c0.137,0.536,0.394,1.318,0.47,1.597c0.093,0.077,1.012,0.624,1.619,0.99c1.291,0.771,2.899,1.734,4.283,3.238
		c1.313,1.422,2.171,2.997,2.861,4.261c0.421,0.766,0.897,1.635,1.225,1.964c1.176,1.176,2.084,2.428,2.888,3.533
		c0.645,0.891,1.258,1.728,1.799,2.237c0.547,0.503,1.433,1.039,2.374,1.603c1.176,0.711,2.51,1.52,3.779,2.614
		c0.257,0.224,1.247,0.618,1.903,0.881c1.411,0.569,3.178,1.269,4.791,2.571c1.942,1.559,2.992,3.604,3.763,5.103l0.815,1.438
		c0.671,0.484,1.455,1.128,2.248,1.791c-0.742-3.682-0.942-7.155-0.156-10.073c1.273-4.749,4.6-6.588,8.746-6.588
		c4.433,0,9.804,2.104,14.598,5.002c1.354,0.814,2.814,1.695,4.028,1.695c0.278,0,0.541-0.046,0.789-0.15
		c0.139-0.057,0.215-0.208,0.334-0.295c0.092-0.813,0.205-1.609,0.321-2.299c0.164-0.974,0.317-1.892,0.295-2.505
		c-0.071-2.308,0.022-4.529,0.109-6.678l0.06-1.608c0.082-2.303,0.782-4.283,1.34-5.874c0.295-0.842,0.602-1.712,0.651-2.204
		c0.038-0.394-0.191-1.411-0.361-2.16c-0.383-1.706-0.859-3.834-0.487-6.202c0.345-2.226,1.198-4.107,1.881-5.623
		c0.372-0.82,0.755-1.668,0.859-2.177c0.421-1.98,1.05-3.703,1.603-5.223c0.317-0.864,0.634-1.701,0.853-2.532
		c0.252-0.952,0.481-1.871,0.7-2.751c0.47-1.865,0.897-3.572,1.384-5.076c1.012-3.139,1.624-4.266,2.374-5.519
		c0.306-0.514,0.552-0.919,1.023-2.04l10.66,4.507c-0.788,1.871-1.351,2.806-1.761,3.489c-0.355,0.602-0.596,0.995-1.274,3.107
		c-0.416,1.285-0.777,2.746-1.176,4.343c-0.23,0.924-0.476,1.892-0.738,2.904c-0.312,1.165-0.733,2.335-1.17,3.544
		c-0.465,1.269-0.902,2.467-1.149,3.632c-0.366,1.739-1.045,3.238-1.641,4.556c-0.459,1.012-0.886,1.964-0.99,2.642
		c-0.016,0.284,0.202,1.253,0.345,1.887c0.118,0.528,0.224,1.156,0.335,1.763c0.777-0.217,1.563-0.408,2.398-0.479
		c0.353-0.029,0.71-0.044,1.072-0.044c7.943,0,17.895,7.054,23.847,17.921c11.033,20.153,4.7,65.057-6.305,72.807
		c-1.482,1.044-2.992,1.499-4.526,1.499c-6.504,0-13.481-8.175-20.901-14.413c-8.237-6.919-20.424-10.799-27.571-18.322
		c-2.084-2.195-3.535-5.315-4.853-8.306c-0.232-0.53-0.459-1.077-0.689-1.616c-0.031-0.023-0.067-0.06-0.097-0.082l-1.428-0.202
		c-1.843-0.213-4.376-0.503-6.656-2.117c-1.247-0.881-2.445-1.876-3.648-2.888c-0.793-0.667-1.597-1.34-2.428-1.964
		c-2.062-1.559-3.156-3.675-3.949-5.223l-0.848-1.488c-0.148-0.104-1.056-0.47-1.717-0.733c-1.531-0.613-3.435-1.378-5.163-2.86
		c-0.531-0.459-1.345-0.952-2.204-1.471c-1.329-0.804-2.833-1.712-4.25-3.019c-1.384-1.28-2.401-2.685-3.304-3.927
		c-0.602-0.831-1.176-1.619-1.706-2.149c-1.504-1.51-2.445-3.221-3.2-4.605c-0.427-0.777-0.864-1.586-1.209-1.964
		c-0.257-0.273-1.072-0.76-1.723-1.154c-1.422-0.848-3.183-1.903-4.649-3.643c-1.696-2.002-2.286-4.337-2.713-6.038
		c-0.137-0.547-0.284-1.417-0.481-1.619l-1.302-0.76c-1.471-0.881-3.484-2.084-4.939-4.184c-1.149-1.641-1.805-3.331-2.396-4.808
		c-0.356-0.913-0.695-1.772-1.045-2.335l-1.242-0.848c-1.493-1.023-3.544-2.423-4.835-4.791L240.596,507.347z"/>
	<path fill="#EA5467" d="M139.593,420.886c30.098,18.88,72.322,21.32,110.805,3.003c39.142-18.625,64.03-53.789,67.73-89.683
		c0.003-0.018,0.007-0.036,0.008-0.053c-0.855,0.007-1.696,0.045-2.549,0.059c-1.449,0.024-2.897,0.055-4.34,0.102
		c-3.535,0.113-7.049,0.276-10.519,0.535c-0.8,0.059-1.587,0.149-2.383,0.216c-3.123,0.267-6.211,0.604-9.268,1.001
		c-1.118,0.145-2.233,0.297-3.342,0.461c-3.629,0.535-7.226,1.136-10.745,1.88c-0.237,0.051-0.464,0.116-0.699,0.167
		c-3.377,0.729-6.681,1.591-9.939,2.53c-0.878,0.254-1.752,0.514-2.62,0.783c-3.447,1.067-6.848,2.214-10.138,3.543
		c-0.194,0.078-0.372,0.165-0.565,0.243C205.567,364.11,169.962,387.849,139.593,420.886z"/>
	<path fill="#479293" d="M295.865,565.76l1.51,0.219c1.745,0.202,4.129,0.476,6.29,1.909c1.4,0.93,2.549,1.969,3.561,2.877
		c0.799,0.727,1.553,1.406,2.199,1.81c1.783,1.11,3.544,2.144,5.262,3.15l1.088,0.634c1.231,0.722,2.379,1.537,3.5,2.346
		c0.957,0.684,1.854,1.329,2.664,1.772c1.028,0.569,2.018,1.149,2.986,1.712c1.181,0.695,2.319,1.367,3.451,1.953
		c0.771,0.399,1.81,0.689,2.904,0.995l0.831,0.235c-0.448-1.072-0.826-2.106-1.181-3.068c-0.263-0.727-0.525-1.46-0.82-2.182
		l-1.121-0.946c-1.51-1.34-3.582-3.167-4.425-6.071l-0.191-0.662c-0.722-2.461-1.471-5.01-1.974-7.608l-0.12-0.64
		c-0.492-2.516-1.001-5.119-1.285-7.728c-0.141-1.301-0.067-2.513,0.062-3.657c-0.119,0.087-0.194,0.237-0.334,0.295
		c-0.247,0.104-0.511,0.15-0.789,0.15c-1.214,0-2.675-0.881-4.028-1.695c-4.794-2.898-10.165-5.002-14.598-5.002
		c-4.146,0-7.473,1.839-8.746,6.588c-0.786,2.918-0.587,6.391,0.156,10.073c0.156,0.131,0.308,0.255,0.465,0.386
		C294.065,564.349,294.946,565.098,295.865,565.76z"/>
	<path fill="#479293" d="M334.101,537.68c-0.334,0.941-0.673,1.909-0.695,2.456l-0.066,1.679c-0.088,2.024-0.164,3.938-0.104,5.814
		c0.055,1.761-0.213,3.375-0.448,4.791c-0.175,1.061-0.361,2.16-0.295,2.795c0.235,2.122,0.695,4.479,1.143,6.76l0.126,0.656
		c0.399,2.067,1.067,4.354,1.712,6.563l0.088,0.295l1.11,1.034c1.345,1.192,3.194,2.85,4.162,5.262
		c0.345,0.848,0.656,1.701,0.968,2.554c0.536,1.466,1.056,2.844,1.685,4.058c0.394,0.733,1.099,1.542,1.914,2.472
		c0.782,0.897,1.663,1.914,2.494,3.118c1.46,2.128,1.739,4.179,1.925,5.541l0.082,0.607l2.904,3.364l-2.91,3.741
		c-1.865,2.401-4.042,3.457-6.459,3.139c-3.555-0.47-4.835-3.468-5.24-4.469l-0.317-0.667c-0.366-0.159-1.214-0.339-1.898-0.487
		c-1.575-0.334-3.533-0.755-5.601-1.756c-0.492-0.235-1.329-0.47-2.215-0.716c-1.46-0.41-3.276-0.919-5.108-1.865
		c-1.307-0.678-2.631-1.444-3.987-2.242c-0.886-0.52-1.794-1.05-2.729-1.57c-1.4-0.771-2.625-1.652-3.812-2.5
		c-0.842-0.607-1.696-1.225-2.62-1.772l-1.067-0.624c-1.816-1.061-3.675-2.149-5.551-3.325c-1.504-0.935-2.74-2.046-3.823-3.025
		c-0.671-0.608-1.302-1.167-1.899-1.603c0.23,0.539,0.457,1.086,0.689,1.616c1.318,2.991,2.769,6.111,4.853,8.306
		c7.147,7.523,19.334,11.403,27.571,18.322c7.421,6.237,14.397,14.413,20.901,14.413c1.534,0,3.044-0.455,4.526-1.499
		c11.004-7.75,17.338-52.653,6.305-72.807c-5.952-10.867-15.904-17.921-23.847-17.921c-0.362,0-0.719,0.015-1.072,0.044
		c-0.835,0.07-1.622,0.262-2.398,0.479c0.223,1.231,0.395,2.558,0.245,4.056C335.162,534.65,334.593,536.258,334.101,537.68z"/>
	<path fill="#312E4C" d="M235.274,517.678l1.242,0.848c0.35,0.563,0.689,1.422,1.045,2.335c0.591,1.477,1.247,3.167,2.396,4.808
		c1.455,2.1,3.468,3.304,4.939,4.184l1.302,0.76c0.197,0.202,0.345,1.072,0.481,1.619c0.427,1.701,1.017,4.036,2.713,6.038
		c1.466,1.739,3.227,2.795,4.649,3.643c0.651,0.394,1.466,0.881,1.723,1.154c0.345,0.377,0.782,1.187,1.209,1.964
		c0.755,1.384,1.696,3.096,3.2,4.605c0.531,0.531,1.105,1.318,1.706,2.149c0.902,1.242,1.92,2.647,3.304,3.927
		c1.417,1.307,2.921,2.215,4.25,3.019c0.859,0.52,1.674,1.012,2.204,1.471c1.728,1.482,3.632,2.248,5.163,2.86
		c0.662,0.263,1.57,0.629,1.717,0.733l0.848,1.488c0.793,1.548,1.887,3.664,3.949,5.223c0.831,0.624,1.635,1.296,2.428,1.964
		c1.203,1.012,2.401,2.007,3.648,2.888c2.281,1.613,4.813,1.903,6.656,2.117l1.428,0.202c0.03,0.022,0.066,0.059,0.097,0.082
		c0.598,0.435,1.228,0.994,1.899,1.603c1.083,0.979,2.319,2.089,3.823,3.025c1.876,1.176,3.736,2.264,5.551,3.325l1.067,0.624
		c0.924,0.547,1.778,1.165,2.62,1.772c1.187,0.848,2.412,1.728,3.812,2.5c0.935,0.52,1.843,1.05,2.729,1.57
		c1.356,0.799,2.68,1.564,3.987,2.242c1.832,0.946,3.648,1.455,5.108,1.865c0.886,0.246,1.723,0.481,2.215,0.716
		c2.067,1.001,4.025,1.422,5.601,1.756c0.684,0.148,1.531,0.328,1.898,0.487l0.317,0.667c0.405,1.001,1.685,3.998,5.24,4.469
		c2.417,0.317,4.594-0.738,6.459-3.139l2.91-3.741l-2.904-3.364l-0.082-0.607c-0.186-1.362-0.465-3.413-1.925-5.541
		c-0.831-1.203-1.712-2.221-2.494-3.118c-0.815-0.93-1.52-1.739-1.914-2.472c-0.629-1.214-1.149-2.592-1.685-4.058
		c-0.312-0.853-0.624-1.706-0.968-2.554c-0.968-2.412-2.817-4.069-4.162-5.262l-1.11-1.034l-0.088-0.295
		c-0.645-2.21-1.313-4.496-1.712-6.563l-0.126-0.656c-0.449-2.281-0.908-4.638-1.143-6.76c-0.066-0.634,0.12-1.734,0.295-2.795
		c0.235-1.417,0.503-3.03,0.448-4.791c-0.06-1.876,0.016-3.79,0.104-5.814l0.066-1.679c0.022-0.547,0.361-1.515,0.695-2.456
		c0.492-1.422,1.061-3.03,1.242-4.911c0.15-1.499-0.022-2.825-0.245-4.056c-0.111-0.607-0.217-1.235-0.335-1.763
		c-0.142-0.634-0.361-1.603-0.345-1.887c0.104-0.678,0.531-1.63,0.99-2.642c0.596-1.318,1.274-2.817,1.641-4.556
		c0.246-1.165,0.684-2.363,1.149-3.632c0.438-1.209,0.859-2.379,1.17-3.544c0.263-1.012,0.509-1.98,0.738-2.904
		c0.399-1.597,0.76-3.057,1.176-4.343c0.678-2.111,0.919-2.505,1.274-3.107c0.41-0.684,0.974-1.619,1.761-3.489l-10.66-4.507
		c-0.47,1.121-0.716,1.526-1.023,2.04c-0.749,1.253-1.362,2.379-2.374,5.519c-0.487,1.504-0.913,3.211-1.384,5.076
		c-0.219,0.881-0.448,1.799-0.7,2.751c-0.219,0.831-0.536,1.668-0.853,2.532c-0.552,1.521-1.181,3.243-1.603,5.223
		c-0.104,0.509-0.487,1.356-0.859,2.177c-0.684,1.515-1.537,3.397-1.881,5.623c-0.372,2.368,0.104,4.496,0.487,6.202
		c0.17,0.749,0.399,1.767,0.361,2.16c-0.049,0.492-0.355,1.362-0.651,2.204c-0.558,1.592-1.258,3.572-1.34,5.874l-0.06,1.608
		c-0.087,2.149-0.18,4.37-0.109,6.678c0.022,0.613-0.131,1.531-0.295,2.505c-0.116,0.691-0.23,1.486-0.321,2.299
		c-0.129,1.144-0.202,2.356-0.062,3.657c0.284,2.609,0.793,5.212,1.285,7.728l0.12,0.64c0.503,2.598,1.253,5.147,1.974,7.608
		l0.191,0.662c0.842,2.904,2.915,4.731,4.425,6.071l1.121,0.946c0.295,0.722,0.558,1.455,0.82,2.182
		c0.355,0.963,0.733,1.996,1.181,3.068l-0.831-0.235c-1.094-0.306-2.133-0.596-2.904-0.995c-1.132-0.585-2.27-1.258-3.451-1.953
		c-0.968-0.563-1.958-1.143-2.986-1.712c-0.809-0.443-1.706-1.088-2.664-1.772c-1.121-0.81-2.27-1.624-3.5-2.346l-1.088-0.634
		c-1.717-1.006-3.479-2.04-5.262-3.15c-0.645-0.405-1.4-1.083-2.199-1.81c-1.012-0.908-2.16-1.947-3.561-2.877
		c-2.16-1.433-4.545-1.706-6.29-1.909l-1.51-0.219c-0.919-0.662-1.799-1.411-2.685-2.155c-0.157-0.131-0.309-0.256-0.465-0.386
		c-0.793-0.662-1.577-1.307-2.248-1.791l-0.815-1.438c-0.771-1.499-1.821-3.544-3.763-5.103c-1.613-1.302-3.38-2.002-4.791-2.571
		c-0.656-0.263-1.646-0.656-1.903-0.881c-1.269-1.094-2.603-1.903-3.779-2.614c-0.941-0.563-1.827-1.099-2.374-1.603
		c-0.541-0.509-1.154-1.346-1.799-2.237c-0.804-1.105-1.712-2.357-2.888-3.533c-0.328-0.328-0.804-1.198-1.225-1.964
		c-0.689-1.263-1.548-2.839-2.861-4.261c-1.384-1.504-2.992-2.467-4.283-3.238c-0.607-0.366-1.526-0.913-1.619-0.99
		c-0.077-0.279-0.334-1.061-0.47-1.597c-0.427-1.69-0.952-3.785-2.439-5.721c-1.417-1.832-3.189-2.899-4.616-3.752l-1.378-0.859
		c-0.377-0.536-0.744-1.471-1.132-2.456c-0.509-1.285-1.077-2.735-1.98-4.19c-1.291-2.073-3.096-3.309-4.545-4.299l-1.209-0.777
		l-10.157,5.541C231.73,515.255,233.781,516.656,235.274,517.678z"/>
	<path fill="#312E4C" d="M769.756,512.417c-1.843,1.723-2.538,3.911-3.09,5.672c-0.164,0.52-0.394,1.252-0.525,1.603l-1.138,0.295
		c-1.849,0.465-4.381,1.094-6.552,2.97c-1.285,1.11-2.281,2.368-3.161,3.479c-0.711,0.908-1.395,1.761-2.062,2.324
		c-1.548,1.302-2.56,2.817-3.451,4.151c-0.547,0.82-1.105,1.663-1.537,2.018c-0.859,0.7-1.805,1.329-2.768,1.98
		c-1.088,0.744-2.193,1.499-3.265,2.33l-1.433,0.246c-1.914,0.284-4.545,0.667-6.831,2.445c-1.274,0.99-2.352,2.089-3.309,3.057
		c-0.837,0.853-1.63,1.657-2.406,2.248c-1.34,1.023-2.445,2.166-3.418,3.183c-0.809,0.837-1.57,1.63-2.292,2.166
		c-1.225,0.908-2.281,1.871-3.298,2.806c-0.919,0.837-1.789,1.63-2.647,2.253c-0.366,0.268-1.307,0.602-2.133,0.897
		c-1.482,0.536-3.325,1.192-5.065,2.428c-1.477,1.05-2.631,2.259-3.648,3.325c-0.76,0.799-1.482,1.553-2.117,1.996
		c-1.805,1.253-3.019,2.871-3.987,4.173c-0.47,0.624-1.116,1.482-1.433,1.696c-1.034,0.706-2.111,1.356-3.2,2.018
		c-1.143,0.695-2.286,1.389-3.282,2.062c-0.279,0.126-1.176,0.279-1.772,0.377c-1.789,0.306-4.015,0.684-6.137,2.062
		c-1.116,0.727-2.199,1.52-3.287,2.319c-1.006,0.738-2.024,1.482-3.09,2.166c-1.685,1.072-2.915,2.379-3.998,3.533
		c-0.678,0.716-1.378,1.46-1.876,1.778c-1.925,1.192-3.878,2.385-5.847,3.582l-0.815,0.498c-0.47,0.29-1.422,0.574-2.346,0.848
		c-1.46,0.432-3.282,0.979-5.032,2.024c-0.76,0.454-1.772,0.87-2.839,1.313c-1.302,0.536-2.778,1.154-4.244,2.007
		c-1.088,0.634-2.166,1.302-3.243,1.974c-1.127,0.706-2.259,1.411-3.418,2.073c-2.303,1.313-3.67,3.358-4.676,4.851l-0.886,1.263
		l-1.548,0.148c-1.849,0.131-4.14,0.29-6.41,1.526c-1.969,1.078-3.358,2.593-4.474,3.807c-0.487,0.536-1.225,1.34-1.537,1.51
		c-1.11,0.591-2.253,1.121-3.407,1.657c-1.039,0.48-2.073,0.98-3.098,1.5c-0.178,0.09-0.361,0.169-0.539,0.261l4.499,8.637
		l0.845,1.624c1.045-0.541,2.111-1.034,3.178-1.531c0.073-0.034,0.142-0.071,0.215-0.105c1.266-0.59,2.524-1.179,3.751-1.826
		c1.489-0.799,2.582-1.816,3.544-2.804c0.364-0.373,0.768-0.758,1.083-1.101c0.476-0.514,1.187-1.296,1.351-1.406
		c0.295-0.098,1.209-0.164,1.816-0.208c1.854-0.131,4.162-0.29,6.421-1.553c2.385-1.329,3.785-3.418,4.808-4.95l0.799-1.247
		c1.296-0.738,2.554-1.521,3.812-2.303c0.979-0.613,1.958-1.225,2.953-1.805c0.788-0.459,1.783-0.87,2.839-1.307
		c1.335-0.552,2.85-1.181,4.337-2.067c0.514-0.306,1.433-0.58,2.407-0.87c1.553-0.465,3.32-0.99,5.07-2.057l0.81-0.498
		c2.002-1.22,3.993-2.428,5.945-3.648c1.778-1.11,3.112-2.527,4.179-3.664c0.656-0.689,1.329-1.406,1.794-1.701
		c1.28-0.82,2.505-1.712,3.714-2.598c0.913-0.667,1.821-1.34,2.68-1.903c0.29-0.137,1.22-0.29,1.838-0.399
		c1.794-0.301,4.02-0.678,6.12-2.073c0.984-0.662,2.002-1.274,3.003-1.881c1.258-0.766,2.505-1.531,3.703-2.341
		c1.914-1.302,3.172-2.981,4.184-4.332c0.421-0.563,1.05-1.406,1.329-1.608c1.597-1.11,2.817-2.385,3.889-3.506
		c0.722-0.76,1.406-1.477,1.974-1.881c0.443-0.312,1.373-0.645,2.27-0.963c1.477-0.531,3.32-1.192,5.026-2.434
		c1.384-1.006,2.593-2.106,3.654-3.074c0.788-0.722,1.559-1.444,2.396-2.062c1.493-1.11,2.68-2.341,3.73-3.429
		c0.749-0.782,1.455-1.515,2.078-1.991c1.444-1.094,2.62-2.292,3.659-3.347c0.695-0.711,1.356-1.384,1.964-1.881
		c0.361-0.104,1.099-0.213,1.608-0.29c1.887-0.273,4.469-0.656,6.662-2.406c0.924-0.738,1.898-1.389,2.85-2.035
		c1.258-0.853,2.478-1.695,3.599-2.603c1.767-1.449,2.915-3.172,3.84-4.556c0.416-0.624,0.979-1.477,1.263-1.712
		c1.57-1.318,2.746-2.806,3.692-3.998c0.618-0.782,1.198-1.515,1.559-1.838c0.29-0.17,1.242-0.405,1.876-0.563
		c1.81-0.448,4.064-1.012,5.978-2.724c2.428-2.166,3.331-5.032,3.932-6.935l0.323-1.028c1.023-0.919,1.417-1.11,1.865-1.335
		c0.949-0.472,1.933-1.034,3.235-2.189c0.325-0.29,0.658-0.589,1.031-0.967l-1.905-1.879l-2.121-2.093l-4.211-4.155
		c-0.439,0.443-0.643,0.602-0.848,0.727c-0.101,0.062-0.193,0.123-0.334,0.191C773.464,509.474,772.113,510.229,769.756,512.417z"/>
	<path fill="#312E4C" d="M332.734,1034.543c0.175-1.318,0.301-2.642,0.421-3.976c0.115-1.225,0.23-2.45,0.394-3.675
		c0.093-0.706,0.416-1.646,0.76-2.647c0.481-1.406,1.023-3.003,1.274-4.84c0.345-2.483-0.284-4.633-0.788-6.355l-0.41-1.438
		l0.804-1.198c1.045-1.477,2.478-3.5,2.855-6.159c0.399-2.789-0.563-5.201-1.269-6.963l-0.514-1.395
		c0.175-1.17,0.366-2.341,0.558-3.517c0.202-1.247,0.41-2.5,0.596-3.752c0.197-1.362,0.328-2.735,0.448-4.108
		c0.109-1.187,0.213-2.374,0.394-3.544c0.109-0.738,0.443-1.695,0.799-2.707c0.487-1.389,1.034-2.964,1.313-4.758l1.192-7.608
		c0.224-1.406,0.339-2.833,0.443-4.255c0.093-1.143,0.17-2.281,0.35-3.407c0.191-1.181,0.454-2.357,0.711-3.528
		c0.295-1.34,0.591-2.68,0.809-4.025c0.098-0.58,0.476-1.455,0.87-2.379c0.618-1.433,1.318-3.057,1.652-4.999
		c0.071-0.432,0.525-1.34,0.892-2.073c0.7-1.406,1.57-3.156,1.931-5.251c0.454-2.609-0.252-4.961-0.766-6.673
		c-0.164-0.531-0.405-1.34-0.448-1.34c0.295-1.652,0.355-3.232,0.41-4.627c0.044-1.132,0.088-2.204,0.246-3.068
		c0.257-1.417,0.399-2.855,0.541-4.288c0.104-1.127,0.208-2.253,0.41-3.358c0.246-1.313,0.525-2.614,0.799-3.911
		c0.263-1.214,0.52-2.417,0.749-3.626c0.213-1.11,0.541-2.204,0.864-3.287c0.377-1.285,0.744-2.571,1.017-3.872l0.963-1.181
		c1.225-1.417,2.899-3.358,3.457-6.071c0.476-2.33,0.12-4.436-0.17-6.126c-0.104-0.613-0.257-1.542-0.235-1.805
		c0.126-0.607,0.541-1.477,0.984-2.401c0.667-1.384,1.417-2.953,1.832-4.829c0.52-2.385,0.148-4.529-0.153-6.252
		c-0.104-0.596-0.257-1.493-0.252-1.701c0.268-1.17,0.629-2.314,0.984-3.451c0.405-1.313,0.804-2.614,1.116-3.927
		c0.104-0.448,0.613-1.313,1.05-2.067c0.782-1.335,1.756-2.997,2.259-5.015c0.137-0.558,0.618-1.427,1.077-2.27
		c0.749-1.362,1.597-2.904,2.089-4.802c0.492-1.871,0.558-3.599,0.613-5.119c0.038-1.006,0.071-1.958,0.23-2.532
		c0.438-1.581,0.662-3.107,0.859-4.452c0.17-1.138,0.328-2.204,0.574-3.052c0.372-1.274,0.815-2.505,1.253-3.73
		c0.41-1.165,0.82-2.314,1.181-3.468c0.361-1.165,0.837-2.27,1.302-3.369c0.52-1.231,1.028-2.45,1.444-3.692l-10.977-3.67
		c-0.317,0.963-0.727,1.903-1.132,2.86c-0.552,1.318-1.181,2.811-1.69,4.43c-0.312,1.006-0.673,2.007-1.034,3.025
		c-0.509,1.433-1.023,2.882-1.455,4.375c-0.47,1.608-0.706,3.2-0.913,4.6c-0.164,1.116-0.323,2.171-0.569,3.074
		c-0.514,1.871-0.58,3.621-0.634,5.163c-0.038,1.023-0.077,1.985-0.246,2.636c-0.131,0.509-0.591,1.34-1.034,2.149
		c-0.744,1.351-1.668,3.03-2.166,5.048c-0.104,0.405-0.607,1.274-1.017,1.964c-0.809,1.384-1.816,3.107-2.324,5.234
		c-0.252,1.061-0.58,2.117-0.908,3.178c-0.443,1.417-0.881,2.85-1.214,4.304c-0.541,2.379-0.164,4.529,0.137,6.257
		c0.104,0.613,0.263,1.537,0.246,1.783c-0.126,0.574-0.531,1.422-0.963,2.319c-0.684,1.427-1.455,3.041-1.871,5.005
		c-0.498,2.33-0.137,4.436,0.148,6.131c0.087,0.52,0.213,1.247,0.241,1.652l-0.881,1.061c-1.242,1.438-2.937,3.407-3.49,6.18
		c-0.208,1.067-0.525,2.117-0.837,3.167c-0.399,1.373-0.82,2.795-1.121,4.359c-0.219,1.132-0.459,2.264-0.7,3.407
		c-0.295,1.389-0.591,2.784-0.853,4.19c-0.273,1.438-0.421,2.904-0.563,4.381c-0.104,1.11-0.202,2.221-0.405,3.32
		c-0.301,1.668-0.366,3.271-0.421,4.682c-0.044,1.127-0.088,2.188-0.241,3.068c-0.465,2.62,0.241,4.972,0.755,6.689
		c0.164,0.536,0.41,1.356,0.454,1.373c-0.077,0.421-0.525,1.324-0.892,2.051c-0.706,1.422-1.586,3.183-1.947,5.311
		c-0.098,0.574-0.47,1.438-0.864,2.352c-0.596,1.378-1.335,3.096-1.657,5.076c-0.191,1.143-0.443,2.281-0.695,3.413
		c-0.306,1.389-0.607,2.778-0.837,4.179c-0.23,1.444-0.35,2.904-0.459,4.365c-0.087,1.121-0.17,2.242-0.339,3.347l-1.203,7.641
		c-0.109,0.738-0.443,1.695-0.799,2.702c-0.487,1.4-1.045,2.986-1.318,4.797c-0.208,1.4-0.339,2.811-0.47,4.222
		c-0.104,1.159-0.208,2.319-0.377,3.468c-0.175,1.192-0.372,2.385-0.563,3.577c-0.219,1.351-0.443,2.702-0.64,4.053
		c-0.12,0.837-0.096,1.627-0.016,2.389c0.189,1.793,0.79,3.375,1.285,4.622l0.427,1.11l-0.711,1.039
		c-1.045,1.477-2.478,3.5-2.85,6.164c-0.35,2.505,0.284,4.671,0.793,6.405c0.164,0.558,0.41,1.4,0.432,1.537
		c-0.098,0.722-0.421,1.668-0.76,2.669c-0.487,1.411-1.034,3.014-1.28,4.846c-0.186,1.378-0.317,2.762-0.443,4.14
		c-0.115,1.187-0.224,2.368-0.377,3.539c-0.025,0.189-0.023,0.364-0.044,0.55c3.73,2.639,7.458,5.278,11.257,7.821
		c0.116-1.313,0.141-2.582,0.141-3.711C332.613,1036.539,332.613,1035.456,332.734,1034.543z"/>
	<path fill="#FFFFFF" d="M530.661,527.676c-4.583,5.13-10.534,8.975-17.004,11.655c-3.003,1.559-6.607,1.783-10.025,1.482
		c-1.679-0.208-3.44-0.667-4.545-1.871c-1.242-1.198-0.82-3.243-0.131-4.829c-0.864,1.444-1.706,3.55-0.438,5.262
		c1.192,1.608,3.123,2.259,4.895,2.68c3.593,0.684,7.482,0.831,11.059-0.547c6.891-2.33,13.509-6.049,18.815-11.3
		c5.349-5.223,9.216-11.781,11.994-18.569c2.8-6.815,4.605-13.898,6.164-20.931c3.019-14.089,4.912-28.239,9.637-41.458
		c2.39-6.563,5.573-12.891,10.135-18.208c1.078-1.384,2.253-2.685,3.528-3.9c1.214-1.307,2.494-2.396,3.998-3.271
		c2.953-1.706,6.629-2.592,10.08-1.466c-3.265-1.624-7.323-1.214-10.649,0.355c-1.69,0.76-3.276,1.865-4.616,3.057
		c-1.444,1.127-2.795,2.352-4.064,3.675c-5.141,5.256-8.877,11.732-11.787,18.421c-5.759,13.515-7.799,27.971-10.895,41.786
		C543.886,503.48,539.948,517.383,530.661,527.676z"/>
	<path fill="#FFFFFF" d="M592.924,554.028c-0.602-7.34-2.204-14.472-4.009-21.446c-3.708-13.925-8.439-27.396-10.228-41.316
		c-0.853-6.935-0.886-14.018,0.76-20.828c0.334-1.723,0.793-3.413,1.378-5.07c0.487-1.723,1.138-3.271,2.078-4.737
		c1.86-2.855,4.731-5.316,8.319-5.88c-3.648,0.038-7.077,2.242-9.331,5.152c-1.16,1.444-2.073,3.145-2.724,4.819
		c-0.777,1.657-1.427,3.364-1.953,5.119c-2.199,7.017-2.587,14.483-2.144,21.763c1.001,14.658,5.743,28.468,9.26,42.18
		c3.643,13.602,6.443,27.779,2.844,41.168c-1.756,6.651-5.316,12.782-9.867,18.104c-1.964,2.751-5.076,4.589-8.259,5.874
		c-1.592,0.574-3.369,0.963-4.901,0.388c-1.646-0.503-2.199-2.516-2.308-4.239c-0.109,1.679,0.093,3.938,1.996,4.89
		c1.799,0.886,3.812,0.591,5.584,0.164c3.511-1.023,7.045-2.658,9.599-5.508c5.087-5.207,9.298-11.524,11.644-18.612
		C593.056,568.938,593.526,561.335,592.924,554.028z"/>
	<path fill="#FFFFFF" d="M600.954,442.261c-0.974,2.407-0.716,4.862-0.979,7.307c-0.038,2.439,0.421,4.884,0.799,7.313
		c0.689,2.335,1.203,4.791,2.242,6.995c3.659,9.112,9.495,16.873,14.543,24.689c5.032,7.761,9.943,15.845,10.397,24.782
		c0.027,1.105,0.191,2.226,0.12,3.336l-0.432,3.331c-0.049,2.286-1.181,4.348-1.717,6.58c-0.476,2.117-2.024,3.911-3.659,5.42
		c-0.842,0.706-1.832,1.329-2.85,1.329c-1.072,0.088-1.887-1.001-2.357-2.057c0.246,1.083,0.809,2.516,2.264,2.768
		c1.373,0.213,2.62-0.388,3.675-1.017c2.035-1.362,4.042-3.096,5.054-5.502c2.067-4.37,3.807-9.232,3.599-14.292
		c0.241-10.293-5.076-19.323-10.129-27.27c-5.283-7.985-11.059-15.369-15.134-23.584c-1.176-2.007-1.723-4.206-2.631-6.317
		c-0.58-2.171-1.242-4.392-1.477-6.651c-0.093-2.253-0.684-4.638-0.137-6.788c0.503-2.155,1.685-4.31,3.774-5.502
		C603.601,437.841,601.818,439.936,600.954,442.261z"/>
	<path fill="#EA5467" d="M1130.644,810.866h-20.034c-3.38,7.825-7.009,15.515-10.75,23.14c-0.413,0.841-0.834,1.676-1.253,2.514
		c-1.881,3.784-3.768,7.565-5.737,11.297c-38.923,73.771-94.801,137.24-162.411,185.245c-0.952,0.677-1.917,1.336-2.874,2.006
		c-3.211,2.248-6.41,4.509-9.673,6.686c-11.962,7.986-24.295,15.45-36.916,22.459c-75.77,42.082-162.879,66.131-255.528,66.131
		c-108.315,0-209.105-32.789-292.995-88.946c-3.8-2.543-7.527-5.182-11.257-7.821c-51.839-36.676-96.8-82.432-132.557-134.959
		c-18.735-27.523-34.995-56.86-48.333-87.753h-20.034c2.396,5.78,4.909,11.499,7.496,17.177
		c86.121,189.018,276.783,320.755,497.681,320.755C853,1148.799,1048.477,1009.039,1130.644,810.866z"/>
</g>
</svg>
