<svg width="128" height="128" xmlns="http://www.w3.org/2000/svg">

 <title/>
 <g>
  <title>background</title>
  <rect fill="none" id="canvas_background" height="402" width="582" y="-1" x="-1"/>
 </g>
 <g>
  <title>Layer 1</title>
  <path stroke="null" fill="#34c1ad" id="svg_1" d="m112.33258,79.29578c-1.09976,-9.65912 -11.41127,-12.54598 -24.09383,-15.0275c-21.9044,-4.29074 -48.18767,-7.55329 -48.18767,-7.55329l-2.19952,9.65912l36.7663,15.05715c-4.03582,11.86381 -13.33593,19.63988 -24.7472,19.63988c-11.7745,0 -21.66471,-8.43846 -25.70052,-18.36452c-11.50209,3.89529 -19.17014,12.76349 -19.17014,25.22049l0,11.07289l87.61761,0s-1.09976,-8.58149 0,-11.80449c0.50448,-1.48298 7.48644,-7.00954 12.04692,-11.8045c5.32728,-5.60565 8.2936,-10.79606 7.66805,-16.09523z" class="cls-1"/>
  <path stroke="#252d32" stroke-width="3px" stroke-linejoin="round" stroke-linecap="round" fill="none" id="svg_2" d="m100.28,48.2c-1.09,8.69 -5.43,11.95 -5.43,11.95" class="cls-2"/>
  <path stroke="#252d32" stroke-width="3px" stroke-linejoin="round" stroke-linecap="round" fill="none" id="svg_3" d="m4.5,118.5l0,-9.59c0,-19.4 13.89,-25.32 23.21,-28.75c6.19,-2.27 14.06,-3 18.17,-10.42" class="cls-2"/>
  <path stroke="#252d32" stroke-width="3px" stroke-linejoin="round" stroke-linecap="round" fill="none" id="svg_4" d="m76.4,55.8l2.5,-5.36c1.43,-3.22 3.36,-3.39 5.1,-3.32a13.54,13.54 0 0 1 2.69,0.55" class="cls-2"/>
  <line stroke="#252d32" stroke-width="3px" stroke-linejoin="round" stroke-linecap="round" fill="none" id="svg_5" y2="118.5" y1="108.5" x2="25.5" x1="25.5" class="cls-2"/>
  <line stroke="#252d32" stroke-width="3px" stroke-linejoin="round" stroke-linecap="round" fill="none" id="svg_6" y2="57.97" y1="47.12" x2="90.51" x1="94.85" class="cls-2"/>
  <path stroke="#252d32" stroke-width="3px" stroke-linejoin="round" stroke-linecap="round" fill="#5e3616" id="svg_7" d="m52.13,48.82a24.68,24.68 0 0 1 2,-8.79c4.25,-1.62 11.38,-2.68 14.64,-10.28c0,0 6.69,5.13 14.11,9.77a92.88,92.88 0 0 0 19.54,8.68c3.81,-11.67 -1.53,-31.74 -17.37,-36.9c-5,-1.62 -12.33,-1.92 -16.56,0.22c-13.43,-2 -21.15,7.2 -23.57,14.63c-3.47,10.64 -3.63,18.21 -6.9,24.65" class="cls-2"/>
  <path stroke="#252d32" stroke-width="3px" stroke-linejoin="round" stroke-linecap="round" fill="none" id="svg_8" d="m29.85,81.38a20.54,20.54 0 0 0 38.73,0l0.8,-2.8" class="cls-2"/>
  <path stroke="#252d32" stroke-width="3px" stroke-linejoin="round" stroke-linecap="round" fill="none" id="svg_9" d="m27.098329,63.16c-5.11,-0.64 -13.83,0 -17.78,4a1.9,1.9 0 0 1 -3,0c0,-7.9 4.94,-11.85 7.9,-13.83s9.88,-2 9.88,-2s9.57,3.27 13.33,4.5c10.86,3 62.07,6.59 70.66,15.19c11.7,11.69 -4.33,25.92 -12.93,32.94a9.39,9.39 0 0 0 -3.46,7.21l0,7.36" class="cls-2"/>
  <path stroke="#252d32" stroke-width="3px" stroke-linejoin="round" stroke-linecap="round" fill="none" id="svg_10" d="m19.05,68.1c1.73,1 5,1.4 7.91,1c6.91,-1 6,-3.75 10.86,-3s38.53,17.8 54.33,16.82" class="cls-2"/>
  <line stroke="#252d32" stroke-width="3px" stroke-linejoin="round" stroke-linecap="round" fill="none" id="svg_11" y2="52.5" y1="53.5" x2="82.5" x1="85.5" class="cls-2"/>
  <line stroke="#252d32" stroke-width="3px" stroke-linejoin="round" stroke-linecap="round" fill="none" id="svg_12" y2="49.29" y1="48.2" x2="69.88" x1="66.63" class="cls-2"/>
  <line stroke="#252d32" stroke-width="3px" stroke-linejoin="round" stroke-linecap="round" fill="none" id="svg_13" y2="44.95" y1="42.78" x2="73.14" x1="67.71" class="cls-2"/>
  <line stroke="#ffc960" stroke-width="3px" stroke-linejoin="round" stroke-linecap="round" fill="none" id="svg_14" y2="43.86" y1="50.38" x2="123.07" x1="108.96" class="cls-3"/>
  <line stroke="#ffc960" stroke-width="3px" stroke-linejoin="round" stroke-linecap="round" fill="none" id="svg_15" y2="67.74" y1="61.23" x2="123.07" x1="107.88" class="cls-3"/>
  <line stroke="#ffc960" stroke-width="3px" stroke-linejoin="round" stroke-linecap="round" fill="none" id="svg_16" y2="55.5" y1="55.5" x2="125.5" x1="116.5" class="cls-3"/>
 </g>
</svg>