<?xml version="1.0" ?><svg style="enable-background:new 0 0 512 512;" version="1.1" viewBox="0 0 512 512" xml:space="preserve" xmlns="http://www.w3.org/2000/svg" xmlns:xlink="http://www.w3.org/1999/xlink"><g id="_x33_5_x2C__Coffin_x2C__coronavirus_x2C__death_x2C__infection_x2C__skull"><g id="XMLID_3904_"><g id="XMLID_3905_"><path d="M284.645,108.54l-93.63-28.15l-90.09,90.09l-21.21,21.21l28.15,93.63     l236.62,144.96l21.22-21.21l63.9-63.91C424.63,337.039,284.725,108.671,284.645,108.54z" id="XMLID_985_" style="fill:#BEC8F7;"/><path d="M429.125,155.53c20.005,26.171,20.094,62.654,0,88.94     c-13.3,17.456-34.455,28.86-58.3,28.86c-23.335,0-44.694-11.004-58.3-28.86c-24.581-32.157-18.346-78.254,13.83-102.77     C358.258,117.317,404.39,123.067,429.125,155.53z" id="XMLID_3979_" style="fill:#F07281;"/><path d="M445.825,40c11.05,0,20,8.95,20,20s-8.95,20-20,20s-20-8.95-20-20     S434.775,40,445.825,40z" id="XMLID_983_" style="fill:#70F2A4;"/><circle cx="110.825" cy="425" id="XMLID_982_" r="35" style="fill:#70F2A4;"/><path d="M409.935,182.89c4.05,0,7.33,3.28,7.33,7.33c0,4.05-3.28,7.34-7.33,7.34     c-4.05,0-7.33-3.29-7.33-7.34C402.605,186.17,405.885,182.89,409.935,182.89z" id="XMLID_981_" style="fill:#FEE45A;"/><circle cx="392.825" cy="239" id="XMLID_980_" r="7.33" style="fill:#FEE45A;"/><circle cx="343.935" cy="197.22" id="XMLID_979_" r="12.22" style="fill:#FEE45A;"/><path d="M326.345,141.69l0.01,0.01c-5.21,3.97-9.86,8.62-13.83,13.83l-0.01-0.01     l-14.29-14.29l-0.86,0.87c-1.67,1.67-3.86,2.5-6.05,2.5c-2.19,0-4.38-0.83-6.05-2.5c-3.34-3.35-3.34-8.76,0-12.1l7.77-7.77     l7.79-7.79c1.67-1.67,3.86-2.5,6.05-2.5c2.19,0,4.37,0.83,6.05,2.5c3.34,3.34,3.34,8.76,0,12.1l-0.87,0.86L326.345,141.69z" id="XMLID_978_" style="fill:#D8566C;"/><path d="M387.875,92.51c1.55,1.55,2.51,3.69,2.51,6.05c0,4.72-3.84,8.55-8.56,8.55h-1.22     v20.21c-3.2-0.43-6.46-0.65-9.78-0.65s-6.58,0.22-9.78,0.65v-20.21h-1.22c-2.36,0-4.5-0.96-6.05-2.51     c-1.55-1.54-2.51-3.68-2.51-6.04c0-4.73,3.84-8.56,8.56-8.56h22C384.185,90,386.325,90.96,387.875,92.51z" id="XMLID_977_" style="fill:#D8566C;"/><path d="M456.385,130c1.67,1.67,2.5,3.86,2.5,6.05c0,2.19-0.83,4.37-2.5,6.05     c-3.34,3.34-8.76,3.34-12.1,0l-0.86-0.87l-14.29,14.29l-0.01,0.01c-3.97-5.21-8.62-9.86-13.83-13.83l0.01-0.01l14.29-14.29     l-0.87-0.86c-1.67-1.67-2.5-3.86-2.5-6.05c0-2.19,0.83-4.38,2.5-6.05c3.35-3.34,8.76-3.34,12.1,0L456.385,130z" id="XMLID_976_" style="fill:#D8566C;"/><path d="M480.825,189v22c0,2.36-0.96,4.5-2.51,6.05c-1.55,1.55-3.69,2.51-6.05,2.51     c-4.72,0-8.55-3.83-8.55-8.56v-1.22h-20.21c0.43-3.2,0.65-6.46,0.65-9.78s-0.22-6.58-0.65-9.78h20.21V189     c0-2.36,0.96-4.5,2.51-6.05c1.54-1.55,3.68-2.51,6.04-2.51C476.995,180.44,480.825,184.27,480.825,189z" id="XMLID_975_" style="fill:#D8566C;"/><path d="M456.385,257.9c3.34,3.35,3.34,8.76,0,12.1l-15.56,15.56     c-0.15,0.15-0.3,0.29-0.45,0.41c-1.6,1.4-3.6,2.09-5.6,2.09c-2.19,0-4.37-0.829-6.05-2.5c-3.34-3.34-3.34-8.76,0-12.1l0.87-0.86     l-14.29-14.29l-0.01-0.01c5.21-3.97,9.86-8.62,13.83-13.83l0.01,0.01l14.29,14.29l0.86-0.869c1.67-1.67,3.86-2.5,6.05-2.5     C452.525,255.4,454.715,256.23,456.385,257.9z" id="XMLID_974_" style="fill:#D8566C;"/><path d="M387.875,295.4c1.55,1.54,2.51,3.68,2.51,6.04c0,4.729-3.84,8.56-8.56,8.56h-22     c-2.36,0-4.5-0.96-6.05-2.51c-1.55-1.55-2.51-3.69-2.51-6.05c0-4.721,3.84-8.551,8.56-8.551h1.22v-20.21     c3.2,0.431,6.46,0.65,9.78,0.65s6.58-0.22,9.78-0.65v20.21h1.22C384.185,292.89,386.325,293.85,387.875,295.4z" id="XMLID_973_" style="fill:#D8566C;"/><path d="M326.355,258.3l-0.01,0.01l-14.29,14.29l0.87,0.86c1.67,1.67,2.5,3.86,2.5,6.05     c0,2.19-0.83,4.38-2.5,6.05c-3.35,3.341-8.76,3.341-12.1,0L285.265,270c-1.67-1.67-2.5-3.86-2.5-6.05c0-2.19,0.83-4.37,2.5-6.05     c3.34-3.34,8.76-3.34,12.1,0l0.86,0.869l14.29-14.29l0.01-0.01C316.495,249.68,321.145,254.33,326.355,258.3z" id="XMLID_972_" style="fill:#D8566C;"/><path d="M277.935,190.22h20.21c-0.43,3.2-0.65,6.46-0.65,9.78s0.22,6.58,0.65,9.78h-20.21     V211c0,2.36-0.96,4.5-2.51,6.05c-1.54,1.55-3.68,2.51-6.04,2.51c-4.73,0-8.56-3.83-8.56-8.56v-22c0-2.36,0.96-4.5,2.51-6.05     c1.55-1.55,3.69-2.51,6.05-2.51c4.72,0,8.55,3.83,8.55,8.56V190.22z" id="XMLID_971_" style="fill:#D8566C;"/><path d="M440.375,285.97l41.26,67.971L353.265,482.31L67.565,308.9l-37.2-130.19     l147.67-147.67l130.19,37.2l38.03,62.65c-7.22,2.57-13.92,6.24-19.9,10.81l-0.01-0.01l-14.29-14.29l0.87-0.86     c3.34-3.34,3.34-8.76,0-12.1c-1.68-1.67-3.86-2.5-6.05-2.5c-2.19,0-4.38,0.83-6.05,2.5l-7.79,7.79l-8.39-13.69l-93.63-28.15     l-90.09,90.09l-21.21,21.21l28.15,93.63l236.62,144.96l21.22-21.21l63.9-63.91l-41.11-70.83l-0.72-2.97     c10.15-2.4,19.49-6.92,27.52-13.061l0.01,0.01l14.29,14.29l-0.87,0.86c-3.34,3.34-3.34,8.76,0,12.1c1.68,1.671,3.86,2.5,6.05,2.5     C436.775,288.06,438.775,287.37,440.375,285.97z" id="XMLID_970_" style="fill:#AFA3AE;"/><circle cx="448.325" cy="452.5" id="XMLID_969_" r="7.5" style="fill:#99E6FC;"/><path d="M378.155,185.33c4.05,0,7.34,3.29,7.34,7.34c0,4.05-3.29,7.33-7.34,7.33     c-4.05,0-7.33-3.28-7.33-7.33C370.825,188.62,374.105,185.33,378.155,185.33z" id="XMLID_968_" style="fill:#D8566C;"/><circle cx="368.325" cy="57.5" id="XMLID_967_" r="7.5" style="fill:#99E6FC;"/><polygon id="XMLID_966_" points="365.705,409.07 344.485,430.28 107.865,285.32 79.715,191.69      100.925,170.48 129.085,264.11 365.695,409.06    " style="fill:#A8B7EF;"/><circle cx="326.825" cy="229.33" id="XMLID_965_" r="4.89" style="fill:#D8566C;"/><circle cx="293.325" cy="482.5" id="XMLID_964_" r="7.5" style="fill:#99E6FC;"/><circle cx="188.325" cy="427.5" id="XMLID_963_" r="7.5" style="fill:#99E6FC;"/><circle cx="63.325" cy="62.5" id="XMLID_962_" r="7.5" style="fill:#99E6FC;"/><circle cx="48.325" cy="362.5" id="XMLID_961_" r="7.5" style="fill:#99E6FC;"/><path d="M347.131,171.055c-3.029,0-5.811-1.388-7.631-3.809l-1.403-1.875     c-1.392,2.001-4.076,2.735-6.326,1.617c-2.473-1.229-3.482-4.229-2.253-6.703c1.479-2.978,4.341-4.938,7.654-5.243     c3.329-0.301,6.504,1.105,8.511,3.773l1.449,1.939l1.457-1.939c1.988-2.657,5.161-4.067,8.479-3.775     c3.074,0.275,5.763,1.974,7.328,4.59l0.617-0.819c2-2.66,5.173-4.069,8.497-3.77c3.068,0.279,5.754,1.977,7.316,4.589     l0.617-0.819c2-2.66,5.175-4.075,8.497-3.77c3.085,0.28,5.784,1.995,7.342,4.632c1.728-1.742,4.519-1.987,6.539-0.477     c2.211,1.654,2.663,4.787,1.009,6.998c-1.818,2.431-4.601,3.825-7.634,3.825c-3.398,0-6.471-1.759-8.185-4.637l-0.622,0.826     c-1.807,2.417-4.586,3.811-7.613,3.811c-3.404,0-6.48-1.759-8.194-4.637l-0.623,0.826c-1.807,2.417-4.586,3.811-7.613,3.811     c-3.401,0-6.475-1.756-8.189-4.629l-1.394,1.855C352.94,169.667,350.159,171.055,347.131,171.055z" id="XMLID_960_" style="fill:#D8566C;"/><path d="M348.839,241.451c-2.521,0-4.688-1.9-4.965-4.463     c-0.314-2.912,0.878-5.723,3.188-7.519c2.31-1.796,5.327-2.256,8.07-1.234l0.079,0.029l0.008-0.111     c0.209-2.897,1.88-5.446,4.471-6.801c1.861-0.974,3.961-1.206,5.926-0.707c0.464-2.536,2.052-4.702,4.375-5.91     c1.858-0.966,3.947-1.197,5.905-0.695c0.464-2.529,2.044-4.688,4.356-5.897c1.994-1.043,4.259-1.238,6.343-0.593     c0.918-1.631,2.716-2.679,4.708-2.539c2.755,0.192,4.832,2.582,4.64,5.336c-0.305,4.37-3.976,7.792-8.358,7.792     c-0.69,0-1.375-0.086-2.039-0.254c-0.721,3.917-4.179,6.864-8.251,6.864c-0.687,0-1.369-0.085-2.031-0.252     c-0.722,3.909-4.174,6.852-8.239,6.852c-0.677,0-1.349-0.083-2-0.243l-0.004,0.049c-0.188,2.641-1.583,4.993-3.826,6.433     c-2.24,1.439-4.956,1.729-7.453,0.793l-0.247-0.091c-0.663,1.669-2.204,2.924-4.113,3.13     C349.199,241.441,349.018,241.451,348.839,241.451z" id="XMLID_959_" style="fill:#D8566C;"/></g></g></g><g id="Layer_1"/></svg>