<?xml version="1.0" standalone="no"?>
<svg version="1.1" id="downloadSvg" xmlns="http://www.w3.org/2000/svg" xmlns:xlink="http://www.w3.org/1999/xlink" x="0px" y="0px" viewBox="0 0 1200 1200" enable-background="new 0 0 1200 1200" xml:space="preserve" height="512" width="512">
<g>
	<path fill="#C02B3F" d="M277.493,484.253c0.309-8.429-6.479-15.023-22.232-16.849l0.429-15.49&#10;&#9;&#9;c22.135-2.161,42.841-9.189,60.96-20.119l8.742-5.747c20.293-14.317,36.793-33.65,47.632-56.233l22.424,8.503&#10;&#9;&#9;c-2.867,13.272-0.435,24.663,6.614,27.406c8.683,3.379,21.076-7.643,27.684-24.62c6.607-16.976,8.112-40.541-0.572-43.92&#10;&#9;&#9;c-7.858-3.059-17.257,4.322-24.156,18.602l-23.527-8.158c1.662-4.926,5.836-23.583,5.836-40.894&#10;&#9;&#9;c0-26.356-7.022-51.057-19.243-72.399l12.099-7.051c8.51,10.582,18.893,15.86,25.46,12.108c8.091-4.62,7.326-21.189-1.708-37.008&#10;&#9;&#9;c-9.035-15.818-25.044-28.427-33.133-23.807c-7.323,4.183-7.469,16.286-0.712,30.632l-13.832,7.564&#10;&#9;&#9;c-14.008-18.104-35.265-35.611-61.743-45.972c0,0-9.892-3.839-15.994-5.295c-10.829-2.803-21.946-4.692-36.844-4.72l-1.154-12.514&#10;&#9;&#9;c9.255-2.28,15.689-7.324,15.248-12.614c-0.543-6.517-11.313-10.938-24.055-9.876c-12.742,1.063-25.389,6.016-24.847,12.532&#10;&#9;&#9;c0.493,5.9,6.346,10.862,17.477,10.813l0.528,12.677c-9.112,1.029-18.001,2.799-26.526,5.425l-14.004,5.111&#10;&#9;&#9;c-26.509,11.263-48.986,30.15-64.72,53.898l-28.276-12.184c3.764-13.047,2.11-24.577-4.735-27.792&#10;&#9;&#9;c-8.433-3.962-24.6,3.605-32.346,20.092c-7.747,16.487-4.138,35.652,4.295,39.614c7.633,3.587,14.399,2.514,22.251-11.264&#10;&#9;&#9;l26.95,13.279c-4.97,10.612-12.353,34.368-12.353,58.751c0,22.596,5.138,43.989,14.304,63.084l-18.615,8.394&#10;&#9;&#9;c-4.962-8.138-11.71-12.754-16.622-10.74c-6.05,2.481-7.022,14.082-2.17,25.912c4.851,11.83,16.234,22.431,22.285,19.951&#10;&#9;&#9;c5.476-2.246,5.74-8.405,2.341-19.004l21.406-9.104c13.053,23.455,44.75,50.434,81.094,61.32l14.482,3.53&#10;&#9;&#9;c7.076,1.347,14.366,2.045,21.762,2.34l-0.395,14.173c-13.478,1.649-23.438,7.688-23.716,15.245&#10;&#9;&#9;c-0.342,9.31,14.14,17.399,32.344,18.066C262.117,500.57,277.152,493.563,277.493,484.253z M314.829,274.604&#10;&#9;&#9;c23.611,0,42.75,19.14,42.75,42.75c0,23.61-19.139,42.75-42.75,42.75c-23.611,0-42.75-19.14-42.75-42.75&#10;&#9;&#9;C272.079,293.744,291.218,274.604,314.829,274.604z M189.379,399.054c-19.643,0-35.567-15.924-35.567-35.566&#10;&#9;&#9;c0-19.643,15.924-35.566,35.567-35.566c19.642,0,35.565,15.923,35.565,35.566C224.945,383.131,209.021,399.054,189.379,399.054z&#10;&#9;&#9; M215.802,258.596c-17.177,0-31.104-13.925-31.104-31.104s13.927-31.104,31.104-31.104c17.178,0,31.103,13.926,31.103,31.104&#10;&#9;&#9;S232.98,258.596,215.802,258.596z" style="fill: rgb(255, 198, 205);"/>
	<circle fill="#FFD898" cx="314.829" cy="317.354" r="42.75" style="fill: rgb(255, 198, 205);"/>
	<path fill="#FFD898" d="M189.379,327.922c-19.643,0-35.567,15.923-35.567,35.566c0,19.643,15.924,35.566,35.567,35.566&#10;&#9;&#9;c19.642,0,35.565-15.924,35.565-35.566C224.945,343.845,209.021,327.922,189.379,327.922z" style="fill: rgb(255, 198, 205);"/>
	<path fill="#FFD898" d="M215.802,196.388c-17.177,0-31.104,13.926-31.104,31.104s13.927,31.104,31.104,31.104&#10;&#9;&#9;c17.178,0,31.103-13.925,31.103-31.104S232.98,196.388,215.802,196.388z" style="fill: rgb(255, 198, 205);"/>
	<path fill="#C02B3F" d="M710.615,790.842c-7.79-0.235-11.41,7.031-13.004,21.602l-30.63-0.529&#10;&#9;&#9;c-3.121-35.209-26.777-84.653-64.652-117.234l-15.524-12.011c-7.786-5.415-16.183-10.163-24.918-14.483l8.075-16.834&#10;&#9;&#9;c17.095,5.244,32.312,3.322,36.698-5.62c5.402-11.014-7.677-28.507-29.215-39.072c-21.536-10.563-43.374-10.199-48.776,0.816&#10;&#9;&#9;c-4.893,9.972-0.266,21.543,17.701,32.186l-8.82,18.4c-27.781-9.269-56.453-11.92-84.105-8.49l-13.597,2.224&#10;&#9;&#9;c-32.085,6.338-62.296,20.742-87.443,42.09l-22.409-22.25c10.566-14.425,13.747-29.43,6.74-36.508&#10;&#9;&#9;c-8.63-8.72-29.447-2.109-46.497,14.766c-17.049,16.874-31.495,44.409-22.863,53.129c7.812,7.894,23.073,4.056,39.027-9.421&#10;&#9;&#9;l23.924,22.427c-4.64,5.033-19.666,25.235-28.947,46.054c-14.132,31.698-18.932,65.171-15.679,97.392l-18.331,1.993&#10;&#9;&#9;c-4.561-17.291-14.22-29.205-24.13-28.215c-12.208,1.218-20.171,21.556-17.789,45.426c2.384,23.868,14.878,47.617,27.083,46.398&#10;&#9;&#9;c11.052-1.104,17.716-15.582,17.282-36.459l20.691-1.681c7.141,29.285,23.319,61.739,49.609,88.399c0,0,9.838,9.921,16.397,14.944&#10;&#9;&#9;c11.523,9.178,23.878,17.411,41.783,25.433l-5.323,15.67c-12.354-2.22-22.797,0.396-25.102,6.995&#10;&#9;&#9;c-2.843,8.129,7.74,19.222,23.635,24.777c15.894,5.554,33.763,6.379,36.603-1.75c2.571-7.359-1.808-16.467-15.221-22.376&#10;&#9;&#9;l6.164-15.529c11.51,3.648,23.148,6.286,34.811,7.699l19.584,1.362c37.923,0.668,75.083-9.995,106.739-30.12l27.475,29.816&#10;&#9;&#9;c-11.523,13.674-15.717,28.428-9.206,35.965c8.014,9.287,31.519,8.855,49.675-6.821c18.158-15.675,24.095-40.66,16.078-49.946&#10;&#9;&#9;c-7.258-8.407-15.972-10.744-32.803,1.616l-25.293-30.421c11.67-10.098,33.286-34.711,46.359-64.037&#10;&#9;&#9;c12.116-27.176,17.409-55.662,16.623-83.541l26.89-0.114c1.606,12.448,7.245,21.619,14.233,21.829&#10;&#9;&#9;c8.607,0.261,15.996-13.171,16.504-30.002C727.23,809.956,719.224,791.103,710.615,790.842z M371.349,839.604&#10;&#9;&#9;c-28.398-12.661-41.154-45.943-28.494-74.339c12.66-28.396,45.944-41.154,74.341-28.493c28.397,12.66,41.151,45.943,28.491,74.34&#10;&#9;&#9;C433.027,839.507,399.745,852.264,371.349,839.604z M539.992,965.052c-11.463,25.714-41.604,37.266-67.318,25.802&#10;&#9;&#9;c-25.715-11.464-37.266-41.603-25.801-67.318s41.602-37.266,67.316-25.802C539.903,909.198,551.459,939.338,539.992,965.052z&#10;&#9;&#9; M609.767,825.542c-8.93,20.034-32.414,29.034-52.448,20.102c-20.034-8.932-29.034-32.413-20.102-52.448&#10;&#9;&#9;c8.932-20.034,32.414-29.034,52.449-20.102C609.699,782.026,618.699,805.507,609.767,825.542z" style="fill: rgb(255, 198, 205);"/>
	<path fill="#FFD898" d="M417.195,736.772c-28.397-12.661-61.681,0.097-74.341,28.493c-12.66,28.396,0.096,61.679,28.494,74.339&#10;&#9;&#9;c28.397,12.661,61.678-0.097,74.338-28.493C458.347,782.714,445.592,749.432,417.195,736.772z" style="fill: rgb(255, 198, 205);"/>
	<path fill="#FFD898" d="M589.666,773.094c-20.035-8.931-43.517,0.069-52.449,20.102c-8.932,20.034,0.068,43.516,20.102,52.448&#10;&#9;&#9;c20.034,8.932,43.517-0.068,52.448-20.102C618.699,805.507,609.699,782.026,589.666,773.094z" style="fill: rgb(255, 198, 205);"/>
	<path fill="#FFD898" d="M514.19,897.735c-25.715-11.464-55.852,0.087-67.316,25.802s0.086,55.853,25.801,67.318&#10;&#9;&#9;c25.713,11.463,55.854-0.088,67.318-25.802C551.459,939.338,539.903,909.198,514.19,897.735z" style="fill: rgb(255, 198, 205);"/>
	<path fill="#C02B3F" d="M1140.975,338.934c-6.394-0.576-12.789,4.75-14.815,16.649l-13.64-1.804&#10;&#9;&#9;c0.603-9.925,0.374-19.75-0.841-29.347l-2.845-15.912c-7.08-30.42-23.057-57.955-45.486-79.197l18.295-27.928&#10;&#9;&#9;c13.233,6.457,25.861,6.844,30.572,0.133c5.808-8.267,0.743-26.95-15.421-38.304c-16.163-11.354-37.309-11.078-43.115-2.81&#10;&#9;&#9;c-5.256,7.483-5.375,14.911,7.875,25.872l-19.217,26.308c-10.407-7.292-34.404-19.614-60.448-24.168&#10;&#9;&#9;c-24.138-4.219-47.949-2.726-70.055,3.498l-5.49-21.452c9.617-3.781,15.809-10.126,14.573-15.749&#10;&#9;&#9;c-1.518-6.926-13.729-10.131-27.271-7.157c-13.545,2.973-26.993,13.151-25.474,20.078c1.376,6.269,7.908,7.701,19.864,6.05&#10;&#9;&#9;l5.726,24.565c-27.493,9.562-62.228,38.382-80.645,75.17l-6.475,14.81c-2.76,7.307-4.868,14.964-6.563,22.808l-15.066-3.068&#10;&#9;&#9;c0.755-14.705-3.834-26.472-11.856-28.179c-9.882-2.104-21.225,11.854-25.338,31.175c-4.112,19.32,0.565,36.688,10.445,38.791&#10;&#9;&#9;c8.946,1.904,17.257-4.114,22.151-20.6l16.464,3.35c-1.825,24.048,1.815,47.478,10.107,68.872l4.505,10.412&#10;&#9;&#9;c11.505,24.35,29.072,45.585,51.172,61.381l-13.27,22.364c-13.643-5.542-26.264-5.07-30.511,1.947&#10;&#9;&#9;c-5.232,8.643,4.228,23.941,21.129,34.169c16.898,10.228,41.79,16.236,47.02,7.592c4.735-7.824-1.393-19.241-15.359-29.276&#10;&#9;&#9;l13.106-23.609c4.952,2.695,24.101,10.638,42.593,13.871c28.152,4.922,55.847,2.036,80.926-7.033l5.273,14.24&#10;&#9;&#9;c-12.895,7.114-20.469,17.22-17.691,24.935c3.425,9.506,21.266,11.782,39.852,5.086c18.583-6.696,35.04-21.441,31.616-30.945&#10;&#9;&#9;c-3.099-8.604-16-11.019-32.586-6.481l-5.497-16.186c21.953-11.582,44.625-31.019,60.636-57.367c0,0,5.947-9.849,8.643-16.095&#10;&#9;&#9;c5.017-11.044,9.11-22.565,11.922-38.475l13.583,1.105c0.707,10.312,4.892,18.125,10.627,18.643&#10;&#9;&#9;c7.063,0.637,13.795-10.042,15.042-23.851C1150.966,354.006,1148.037,339.571,1140.975,338.934z M865.727,271.556&#10;&#9;&#9;c3.67-20.982,23.652-35.017,44.635-31.349c20.981,3.669,35.016,23.651,31.347,44.633c-3.667,20.981-23.65,35.017-44.632,31.349&#10;&#9;&#9;C876.095,312.52,862.06,292.537,865.727,271.556z M973.756,413.954c-3.35,19.146-21.583,31.953-40.728,28.606&#10;&#9;&#9;c-19.145-3.347-31.953-21.581-28.605-40.727c3.346-19.146,21.582-31.952,40.727-28.605&#10;&#9;&#9;C964.295,376.574,977.102,394.808,973.756,413.954z M1077.275,337.628c-3.208,18.349-20.683,30.623-39.033,27.415&#10;&#9;&#9;c-18.348-3.208-30.622-20.683-27.414-39.032c3.208-18.348,20.683-30.623,39.032-27.415&#10;&#9;&#9;C1068.208,301.804,1080.484,319.279,1077.275,337.628z" style="fill: rgb(255, 198, 205);"/>
	<path fill="#FFD898" d="M945.15,373.227c-19.145-3.347-37.381,9.459-40.727,28.605c-3.349,19.146,9.46,37.38,28.605,40.727&#10;&#9;&#9;c19.145,3.347,37.378-9.46,40.728-28.606C977.102,394.808,964.295,376.574,945.15,373.227z" style="fill: rgb(255, 198, 205);"/>
	<path fill="#FFD898" d="M941.709,284.84c3.669-20.982-10.366-40.964-31.347-44.633c-20.983-3.668-40.964,10.367-44.635,31.349&#10;&#9;&#9;c-3.667,20.981,10.367,40.964,31.35,44.632C918.059,319.857,938.042,305.821,941.709,284.84z" style="fill: rgb(255, 198, 205);"/>
	<path fill="#FFD898" d="M1049.86,298.595c-18.349-3.208-35.823,9.067-39.032,27.415c-3.208,18.349,9.066,35.824,27.414,39.032&#10;&#9;&#9;c18.351,3.208,35.825-9.066,39.033-27.415C1080.484,319.279,1068.208,301.804,1049.86,298.595z" style="fill: rgb(255, 198, 205);"/>
</g>
</svg>