<?xml version="1.0" ?><svg style="enable-background:new 0 0 512 512;" version="1.1" viewBox="0 0 512 512" xml:space="preserve" xmlns="http://www.w3.org/2000/svg" xmlns:xlink="http://www.w3.org/1999/xlink"><g id="_x33_7_x2C__worldwide_x2C__Bacteria_x2C__virus_x2C__infected"><g id="XMLID_8588_"><path d="M393.177,98.75c27.67,0,50.11,22.43,50.11,50.1c0,13.84-5.61,26.37-14.68,35.43    c-19.559,19.559-51.268,19.593-70.86,0c-19.554-19.553-19.57-51.258,0-70.85v-0.01C366.817,104.36,379.347,98.75,393.177,98.75z" id="XMLID_8865_" style="fill:#FFFFFF;"/><path d="M404.747,121.88c6.38,0,11.56,5.17,11.56,11.56c0,6.38-5.18,11.56-11.56,11.56    c-6.39,0-11.57-5.18-11.57-11.56C393.177,127.05,398.357,121.88,404.747,121.88z" id="XMLID_2024_" style="fill:#9BC9FF;"/><path d="M381.617,160.42c4.26,0,7.71,3.45,7.71,7.7c0,4.26-3.45,7.71-7.71,7.71    c-4.26,0-7.71-3.45-7.71-7.71C373.907,163.87,377.357,160.42,381.617,160.42z" id="XMLID_2023_" style="fill:#9BC9FF;"/><path d="M344.127,197.91c4.51,4.52,4.51,11.84,0,16.35c-4.52,4.52-11.84,4.52-16.35,0    c-4.52-4.51-4.52-11.83,0-16.35C332.287,193.39,339.607,193.39,344.127,197.91z" id="XMLID_2022_" style="fill:#FFFFFF;"/><path d="M393.177,218.23c6.39,0,11.57,5.18,11.57,11.56c0,6.39-5.18,11.56-11.57,11.56    c-6.38,0-11.56-5.17-11.56-11.56C381.617,223.41,386.797,218.23,393.177,218.23z" id="XMLID_2021_" style="fill:#FFFFFF;"/><path d="M301.027,133.44c8.71,0,15.77,7.06,15.77,15.76c0,8.71-7.06,15.77-15.77,15.77    c-8.7,0-15.76-7.06-15.76-15.77C285.267,140.5,292.327,133.44,301.027,133.44z" id="XMLID_2020_" style="fill:#FFFFFF;"/><path d="M344.127,83.45c4.51,4.51,4.51,11.83,0,16.35c-4.52,4.51-11.84,4.51-16.35,0    c-4.52-4.52-4.52-11.84,0-16.35C332.287,78.93,339.607,78.93,344.127,83.45z" id="XMLID_2019_" style="fill:#FFFFFF;"/><path d="M458.587,197.91c4.52,4.52,4.52,11.84,0,16.35c-4.52,4.52-11.84,4.52-16.35,0    c-4.52-4.51-4.52-11.83,0-16.35C446.747,193.39,454.067,193.39,458.587,197.91z" id="XMLID_2018_" style="fill:#FFFFFF;"/><path d="M393.177,31.35c6.39,0,11.57,5.18,11.57,11.57c0,6.38-5.18,11.56-11.57,11.56    c-6.38,0-11.56-5.18-11.56-11.56C381.617,36.53,386.797,31.35,393.177,31.35z" id="XMLID_2017_" style="fill:#FFFFFF;"/><path d="M480.657,70.83c7.13,7.13,7.13,18.69,0,25.82c-7.12,7.12-18.68,7.12-25.81,0    c-7.13-7.13-7.13-18.69,0-25.82C461.977,63.71,473.537,63.71,480.657,70.83z" id="XMLID_2016_" style="fill:#FFFFFF;"/><path d="M474.117,137.29c6.39,0,11.56,5.18,11.56,11.56c0,6.39-5.17,11.57-11.56,11.57    c-6.39,0-11.56-5.18-11.56-11.57C462.557,142.47,467.727,137.29,474.117,137.29z" id="XMLID_2015_" style="fill:#FFFFFF;"/><circle cx="406.007" cy="380" id="XMLID_2014_" r="30" style="fill:#FFFFFF;"/><circle cx="111.007" cy="100" id="XMLID_2013_" r="35" style="fill:#FFFFFF;"/><path d="M306.007,256.5v192c0,22.92-18.58,41.5-41.5,41.5h-197    c-22.92,0-41.5-18.58-41.5-41.5v-192c0-22.92,18.58-41.5,41.5-41.5h197C287.427,215,306.007,233.58,306.007,256.5z" id="XMLID_8823_" style="fill:#FFFFFF;"/><path d="M166.007,389.38c16.1,0,31.29,3.88,44.69,10.77    c-8.8,29.76-25.51,49.85-44.69,49.85V389.38z" id="XMLID_2011_" style="fill:#9BC9FF;"/><path d="M121.317,400.16c8.79,29.76,25.51,49.84,44.69,49.84    c-27.87,0-53.01-11.63-70.84-30.31l0.27-0.271C102.907,411.65,111.637,405.12,121.317,400.16z" id="XMLID_2010_" style="fill:#9BC9FF;"/><path d="M166.007,352.07v37.31c-16.1,0-31.29,3.88-44.69,10.78    c-4.21-14.2-6.61-30.61-6.61-48.09H166.007z" id="XMLID_2009_" style="fill:#9BC9FF;"/><path d="M217.297,352.07h46.63c0,26.229-10.31,50.04-27.09,67.62    c-7.52-7.881-16.35-14.521-26.14-19.54C214.897,385.95,217.297,369.55,217.297,352.07z" id="XMLID_2008_" style="fill:#9BC9FF;"/><path d="M166.007,254.14c27.86,0,53,11.64,70.83,30.31    c-7.52,7.88-16.35,14.52-26.14,19.54C201.897,274.23,185.187,254.14,166.007,254.14z" id="XMLID_2007_" style="fill:#9BC9FF;"/><path d="M217.297,352.07h-51.29V314.76c16.1,0,31.29-3.88,44.69-10.77    C214.897,318.19,217.297,334.6,217.297,352.07z" id="XMLID_2006_" style="fill:#9BC9FF;"/><path d="M166.007,254.14v60.62c-16.1,0-31.29-3.88-44.69-10.77    C130.107,274.23,146.827,254.14,166.007,254.14z" id="XMLID_2005_" style="fill:#9BC9FF;"/><path d="M121.317,303.99c-4.21,14.2-6.61,30.609-6.61,48.08h-46.63    c0-26.23,10.31-50.04,27.09-67.63l0.01,0.01C102.697,292.33,111.527,298.97,121.317,303.99z" id="XMLID_2004_" style="fill:#9BC9FF;"/><path d="M236.837,419.69c-17.83,18.68-42.97,30.31-70.83,30.31    c19.18,0,35.89-20.09,44.69-49.85C220.487,405.17,229.317,411.81,236.837,419.69z" id="XMLID_2003_" style="fill:#9BC9FF;"/><path d="M166.007,389.38V450c-19.18,0-35.9-20.08-44.69-49.84    C134.717,393.26,149.907,389.38,166.007,389.38z" id="XMLID_2002_" style="fill:#9BC9FF;"/><path d="M166.007,352.07h51.29c0,17.479-2.4,33.88-6.6,48.08    c-13.4-6.891-28.59-10.77-44.69-10.77V352.07z" id="XMLID_2001_" style="fill:#9BC9FF;"/><path d="M114.707,352.07c0,17.479,2.4,33.89,6.61,48.09    c-9.68,4.96-18.41,11.49-25.88,19.26l-0.27,0.271c-16.78-17.58-27.09-41.391-27.09-67.62H114.707z" id="XMLID_2000_" style="fill:#9BC9FF;"/><path d="M263.927,352.07h-46.63c0-17.471-2.4-33.88-6.6-48.08    c9.79-5.021,18.62-11.66,26.14-19.54C253.617,302.04,263.927,325.85,263.927,352.07z" id="XMLID_1999_" style="fill:#9BC9FF;"/><path d="M166.007,314.76v37.311h-51.3c0-17.471,2.4-33.88,6.61-48.08    C134.717,310.88,149.907,314.76,166.007,314.76z" id="XMLID_1998_" style="fill:#9BC9FF;"/><path d="M166.007,254.14c19.18,0,35.89,20.09,44.69,49.85    c-13.4,6.89-28.59,10.77-44.69,10.77V254.14z" id="XMLID_1997_" style="fill:#9BC9FF;"/><path d="M166.007,254.14c-19.18,0-35.9,20.09-44.69,49.85    c-9.79-5.021-18.62-11.66-26.14-19.54l-0.01-0.01C113.007,265.77,138.147,254.14,166.007,254.14z" id="XMLID_1996_" style="fill:#9BC9FF;"/><circle cx="458.507" cy="262.5" id="XMLID_1995_" r="7.5" style="fill:#1E81CE;"/><circle cx="373.507" cy="457.5" id="XMLID_1994_" r="7.5" style="fill:#1E81CE;"/><circle cx="353.507" cy="307.5" id="XMLID_1993_" r="7.5" style="fill:#1E81CE;"/><circle cx="283.507" cy="62.5" id="XMLID_1992_" r="7.5" style="fill:#1E81CE;"/><circle cx="218.507" cy="142.5" id="XMLID_1991_" r="7.5" style="fill:#1E81CE;"/><circle cx="53.507" cy="157.5" id="XMLID_1990_" r="7.5" style="fill:#1E81CE;"/><path d="M166.007,455c-20.79,0-39.752-20.471-49.485-53.424    c-4.457-15.035-6.814-32.156-6.814-49.506c0-17.344,2.357-34.461,6.816-49.501c9.734-32.955,28.695-53.429,49.484-53.429    c21.093,0,39.591,19.975,49.485,53.432c4.452,15.052,6.805,32.168,6.805,49.498c0,17.33-2.354,34.446-6.806,49.498    C205.599,435.025,187.1,455,166.007,455z M166.007,259.14c-16.179,0-31.465,17.729-39.895,46.267    c-4.191,14.136-6.405,30.27-6.405,46.664c0,16.4,2.214,32.538,6.404,46.669C134.539,427.275,149.826,445,166.007,445    c16.169,0,31.456-17.728,39.895-46.268c4.184-14.143,6.395-30.279,6.395-46.662c0-16.383-2.211-32.519-6.395-46.662    C197.463,276.869,182.176,259.14,166.007,259.14z" id="XMLID_8749_" style="fill:#1E81CE;"/><path d="M166.007,319.76c-16.558,0-32.363-3.81-46.976-11.323    c-10.231-5.246-19.476-12.156-27.471-20.534c-1.906-1.998-1.832-5.163,0.165-7.069c1.998-1.907,5.163-1.832,7.069,0.165    c7.221,7.567,15.567,13.806,24.805,18.543c13.189,6.781,27.456,10.219,42.408,10.219s29.219-3.438,42.404-10.216    c9.242-4.74,17.588-10.979,24.809-18.546c1.907-1.996,5.071-2.071,7.069-0.165c1.998,1.906,2.071,5.071,0.165,7.069    c-7.996,8.378-17.24,15.288-27.476,20.537C198.37,315.95,182.565,319.76,166.007,319.76z" id="XMLID_1987_" style="fill:#1E81CE;"/><path d="M236.837,424.69c-1.319,0-2.635-0.518-3.618-1.548    c-7.221-7.568-15.566-13.807-24.804-18.543c-13.189-6.782-27.456-10.22-42.409-10.22c-14.959,0-29.225,3.44-42.401,10.226    c-9.145,4.685-17.406,10.834-24.564,18.279c-1.914,1.991-5.08,2.054-7.07,0.14c-1.991-1.914-2.053-5.079-0.139-7.069    c7.928-8.246,17.08-15.058,27.205-20.245c14.597-7.517,30.402-11.33,46.97-11.33c16.559,0,32.364,3.81,46.977,11.324    c10.231,5.245,19.475,12.155,27.471,20.534c1.907,1.998,1.833,5.163-0.166,7.069C239.32,424.231,238.078,424.69,236.837,424.69z" id="XMLID_1986_" style="fill:#1E81CE;"/><path d="M263.937,357.07H68.077c-2.761,0-5-2.238-5-5c0-2.762,2.239-5,5-5h195.85    c2.761,0,5.005,2.238,5.005,5C268.932,354.832,266.698,357.07,263.937,357.07z" id="XMLID_1985_" style="fill:#1E81CE;"/><path d="M166.007,455c-2.761,0-5-2.238-5-5V254.14c0-2.761,2.239-5,5-5s5,2.239,5,5V450    C171.007,452.762,168.768,455,166.007,455z" id="XMLID_1984_" style="fill:#1E81CE;"/><path d="M166.007,455c-28.405,0-54.848-11.314-74.457-31.857    c-18.361-19.236-28.474-44.478-28.474-71.072c0-26.591,10.112-51.835,28.473-71.081c19.625-20.539,46.067-31.849,74.458-31.849    c28.388,0,54.827,11.314,74.446,31.857c18.363,19.249,28.474,44.489,28.474,71.073c0,26.595-10.112,51.836-28.473,71.072    C220.845,443.686,194.406,455,166.007,455z M166.007,259.14c-25.633,0-49.507,10.212-67.225,28.755    c-16.576,17.375-25.706,40.168-25.706,64.176c0,24.012,9.13,46.8,25.707,64.168C116.488,434.785,140.361,445,166.007,445    c25.639,0,49.509-10.215,67.213-28.762c16.577-17.368,25.707-40.156,25.707-64.168c0-24.002-9.13-46.791-25.708-64.169    C215.507,269.355,191.637,259.14,166.007,259.14z" id="XMLID_8729_" style="fill:#1E81CE;"/><path d="M264.507,495h-197c-25.64,0-46.5-20.859-46.5-46.5v-192    c0-25.64,20.86-46.5,46.5-46.5h197c25.64,0,46.5,20.86,46.5,46.5v192C311.007,474.141,290.147,495,264.507,495z M67.507,220    c-20.126,0-36.5,16.374-36.5,36.5v192c0,20.126,16.374,36.5,36.5,36.5h197c20.126,0,36.5-16.374,36.5-36.5v-192    c0-20.126-16.374-36.5-36.5-36.5H67.507z" id="XMLID_8721_" style="fill:#1E81CE;"/><path d="M393.177,203.96c-14.717,0-28.555-5.734-38.965-16.145    c-10.405-10.404-16.135-24.242-16.135-38.965c0-14.612,5.658-28.365,15.938-38.757c0.064-0.071,0.13-0.142,0.199-0.21    c10.415-10.403,24.252-16.132,38.963-16.132c30.388,0,55.11,24.718,55.11,55.1c0,14.728-5.734,28.567-16.146,38.967    C421.731,198.227,407.893,203.96,393.177,203.96z M361.459,116.78c-0.056,0.062-0.114,0.124-0.174,0.184    c-8.517,8.526-13.208,19.851-13.208,31.886c0,12.052,4.69,23.378,13.206,31.894c8.522,8.523,19.849,13.216,31.894,13.216    c12.045,0,23.373-4.693,31.895-13.216c8.523-8.513,13.215-19.839,13.215-31.894c0-24.868-20.236-45.1-45.11-45.1    C381.218,103.75,369.964,108.376,361.459,116.78z" id="XMLID_8713_" style="fill:#1E81CE;"/><path d="M393.177,59.48c-9.131,0-16.56-7.429-16.56-16.56    c0-9.137,7.429-16.57,16.56-16.57c9.137,0,16.57,7.433,16.57,16.57C409.747,52.051,402.313,59.48,393.177,59.48z M393.177,36.35    c-3.617,0-6.56,2.947-6.56,6.57c0,3.617,2.943,6.56,6.56,6.56c3.623,0,6.57-2.943,6.57-6.56    C399.747,39.297,396.8,36.35,393.177,36.35z" id="XMLID_8705_" style="fill:#1E81CE;"/><path d="M393.177,246.35c-9.131,0-16.56-7.429-16.56-16.56    c0-9.131,7.429-16.56,16.56-16.56c9.137,0,16.57,7.429,16.57,16.56C409.747,238.921,402.313,246.35,393.177,246.35z     M393.177,223.23c-3.617,0-6.56,2.943-6.56,6.56c0,3.617,2.943,6.56,6.56,6.56c3.623,0,6.57-2.943,6.57-6.56    C399.747,226.173,396.8,223.23,393.177,223.23z" id="XMLID_8697_" style="fill:#1E81CE;"/><path d="M393.177,223.23c-2.761,0-5-2.239-5-5v-19.27c0-2.761,2.239-5,5-5    c2.761,0,5,2.239,5,5v19.27C398.177,220.991,395.938,223.23,393.177,223.23z" id="XMLID_1973_" style="fill:#1E81CE;"/><path d="M393.177,103.75c-2.761,0-5-2.239-5-5V54.48c0-2.761,2.239-5,5-5    c2.761,0,5,2.239,5,5v44.27C398.177,101.511,395.938,103.75,393.177,103.75z" id="XMLID_1972_" style="fill:#1E81CE;"/><path d="M467.755,106.99c-6.21,0-12.049-2.416-16.442-6.802    c-9.07-9.071-9.07-23.825-0.002-32.894c4.396-4.389,10.234-6.804,16.444-6.804c6.212,0,12.049,2.417,16.437,6.804    c9.068,9.068,9.068,23.823,0,32.891C479.804,104.573,473.967,106.99,467.755,106.99z M467.755,70.49    c-3.542,0-6.871,1.377-9.375,3.878c-5.167,5.166-5.167,13.577,0.003,18.746c2.502,2.498,5.831,3.876,9.373,3.876    c3.541,0,6.867-1.376,9.366-3.876c5.169-5.169,5.169-13.58,0-18.749C474.622,71.866,471.296,70.49,467.755,70.49z" id="XMLID_8683_" style="fill:#1E81CE;"/><path d="M335.948,222.65c-4.426,0-8.585-1.726-11.711-4.858    c-3.123-3.116-4.848-7.271-4.851-11.693c-0.003-4.427,1.722-8.59,4.854-11.724c3.122-3.129,7.281-4.854,11.707-4.854    c4.423,0,8.584,1.724,11.714,4.854c6.452,6.466,6.45,16.971,0,23.421C344.532,220.926,340.371,222.65,335.948,222.65z     M335.948,199.52c-1.75,0-3.396,0.683-4.632,1.922c-1.247,1.247-1.931,2.897-1.93,4.651c0.001,1.748,0.684,3.392,1.922,4.627    c1.244,1.247,2.889,1.93,4.64,1.93c1.752,0,3.401-0.684,4.643-1.926c2.555-2.555,2.554-6.719-0.004-9.282    C339.35,200.204,337.701,199.52,335.948,199.52z" id="XMLID_8675_" style="fill:#1E81CE;"/><path d="M344.127,202.91c-1.279,0-2.558-0.488-3.534-1.463    c-1.954-1.952-1.955-5.118-0.003-7.071l13.621-13.63c1.951-1.953,5.117-1.956,7.071-0.002c1.954,1.952,1.955,5.118,0.003,7.071    l-13.621,13.63C346.688,202.421,345.407,202.91,344.127,202.91z" id="XMLID_1967_" style="fill:#1E81CE;"/><path d="M433.337,123.16c-1.28,0-2.559-0.488-3.536-1.464    c-1.953-1.953-1.953-5.119,0-7.071l21.51-21.51c1.953-1.952,5.118-1.952,7.071,0c1.953,1.953,1.953,5.119,0,7.071l-21.51,21.51    C435.896,122.672,434.617,123.16,433.337,123.16z" id="XMLID_1966_" style="fill:#1E81CE;"/><path d="M474.117,165.42c-9.131,0-16.56-7.433-16.56-16.57    c0-9.131,7.429-16.56,16.56-16.56c9.131,0,16.56,7.429,16.56,16.56C490.677,157.987,483.248,165.42,474.117,165.42z     M474.117,142.29c-3.617,0-6.56,2.943-6.56,6.56c0,3.623,2.943,6.57,6.56,6.57c3.617,0,6.56-2.947,6.56-6.57    C480.677,145.233,477.734,142.29,474.117,142.29z" id="XMLID_8661_" style="fill:#1E81CE;"/><path d="M301.027,169.97c-11.447,0-20.76-9.317-20.76-20.77    c0-11.447,9.313-20.76,20.76-20.76c11.453,0,20.77,9.313,20.77,20.76C321.797,160.653,312.479,169.97,301.027,169.97z     M301.027,138.44c-5.933,0-10.76,4.827-10.76,10.76c0,5.939,4.827,10.77,10.76,10.77c5.939,0,10.77-4.831,10.77-10.77    C311.797,143.267,306.965,138.44,301.027,138.44z" id="XMLID_8653_" style="fill:#1E81CE;"/><path d="M343.077,154.2h-26.28c-2.761,0-5-2.239-5-5s2.239-5,5-5h26.28    c2.761,0,5,2.239,5,5S345.838,154.2,343.077,154.2z" id="XMLID_1961_" style="fill:#1E81CE;"/><path d="M462.557,153.85h-19.27c-2.761,0-5-2.239-5-5s2.239-5,5-5h19.27    c2.761,0,5,2.239,5,5S465.318,153.85,462.557,153.85z" id="XMLID_1960_" style="fill:#1E81CE;"/><path d="M335.948,108.183c-4.424,0-8.581-1.722-11.707-4.848    c-3.133-3.133-4.857-7.296-4.854-11.723c0.002-4.422,1.728-8.578,4.858-11.701c3.118-3.125,7.277-4.851,11.703-4.851    c4.423,0,8.584,1.724,11.714,4.854c6.45,6.45,6.452,16.955,0.004,23.417C344.529,106.462,340.37,108.183,335.948,108.183z     M335.948,85.06c-1.75,0-3.396,0.683-4.632,1.922c-1.246,1.243-1.929,2.887-1.93,4.635c-0.001,1.754,0.683,3.404,1.926,4.647    c1.237,1.237,2.883,1.918,4.636,1.918c1.754,0,3.405-0.683,4.647-1.922c2.55-2.555,2.551-6.719-0.004-9.274    C339.35,85.744,337.701,85.06,335.948,85.06z" id="XMLID_8639_" style="fill:#1E81CE;"/><path d="M450.408,222.65c-4.426,0-8.584-1.726-11.711-4.858    c-3.122-3.116-4.848-7.271-4.851-11.693c-0.002-4.427,1.722-8.59,4.854-11.724c3.123-3.129,7.281-4.854,11.707-4.854    c4.423,0,8.584,1.724,11.714,4.854c3.133,3.133,4.857,7.296,4.854,11.724c-0.002,4.422-1.728,8.578-4.858,11.701    C458.992,220.926,454.831,222.65,450.408,222.65z M450.408,199.52c-1.75,0-3.395,0.683-4.632,1.922    c-1.247,1.247-1.931,2.897-1.93,4.651c0.001,1.748,0.684,3.392,1.922,4.627c1.244,1.247,2.889,1.93,4.64,1.93    c1.752,0,3.401-0.684,4.643-1.926c1.242-1.239,1.925-2.883,1.926-4.631c0.001-1.754-0.683-3.404-1.926-4.647    C453.809,200.204,452.161,199.52,450.408,199.52z" id="XMLID_8631_" style="fill:#1E81CE;"/><path d="M442.237,202.91c-1.28,0-2.559-0.488-3.536-1.464l-13.63-13.63    c-1.953-1.953-1.953-5.119,0-7.071c1.954-1.952,5.119-1.951,7.071,0l13.63,13.63c1.953,1.953,1.953,5.119,0,7.071    C444.796,202.422,443.516,202.91,442.237,202.91z" id="XMLID_1955_" style="fill:#1E81CE;"/><path d="M357.747,118.425c-1.466,0-2.785-0.629-3.7-1.633l-13.456-13.456    c-1.953-1.953-1.953-5.119,0-7.071c1.953-1.952,5.118-1.952,7.071,0l13.62,13.62c0.938,0.938,1.464,2.21,1.464,3.536    C362.747,116.181,360.508,118.425,357.747,118.425z" id="XMLID_1954_" style="fill:#1E81CE;"/><path d="M404.747,150c-9.137,0-16.57-7.429-16.57-16.56c0-9.131,7.434-16.56,16.57-16.56    c9.131,0,16.56,7.429,16.56,16.56C421.307,142.571,413.878,150,404.747,150z M404.747,126.88c-3.623,0-6.57,2.943-6.57,6.56    c0,3.617,2.947,6.56,6.57,6.56c3.617,0,6.56-2.943,6.56-6.56C411.307,129.823,408.364,126.88,404.747,126.88z" id="XMLID_8617_" style="fill:#1E81CE;"/><path d="M381.617,180.83c-7.008,0-12.71-5.702-12.71-12.71c0-7.003,5.702-12.7,12.71-12.7    s12.71,5.697,12.71,12.7C394.327,175.128,388.625,180.83,381.617,180.83z M381.617,165.42c-1.494,0-2.71,1.211-2.71,2.7    c0,1.494,1.216,2.71,2.71,2.71c1.494,0,2.71-1.216,2.71-2.71C384.327,166.631,383.111,165.42,381.617,165.42z" id="XMLID_8609_" style="fill:#1E81CE;"/><path d="M111.007,140c-22.056,0-40-17.944-40-40s17.944-40,40-40s40,17.944,40,40    S133.063,140,111.007,140z M111.007,70c-16.542,0-30,13.458-30,30s13.458,30,30,30s30-13.458,30-30S127.549,70,111.007,70z" id="XMLID_8601_" style="fill:#1E81CE;"/><path d="M406.007,415c-19.299,0-35-15.701-35-35s15.701-35,35-35s35,15.701,35,35    S425.306,415,406.007,415z M406.007,355c-13.785,0-25,11.215-25,25s11.215,25,25,25c13.785,0,25-11.215,25-25    S419.792,355,406.007,355z" id="XMLID_8590_" style="fill:#1E81CE;"/></g></g><g id="Layer_1"/></svg>