<?xml version="1.0" ?><svg viewBox="0 0 512 512" xmlns="http://www.w3.org/2000/svg"><defs><style>.cls-1{fill:#f0a5a5;}.cls-2{fill:#cc8c8c;}.cls-3{fill:#0071af;}.cls-4{fill:#006095;}.cls-5{fill:#00659d;}.cls-6{fill:#f9b7b7;}.cls-7{fill:#ea8383;}.cls-8{fill:#ec9090;}.cls-9{fill:#338dbf;}.cls-10{fill:#d27676;}.cls-11{fill:#d49c9c;}.cls-12{fill:#c97b7b;}.cls-13{fill:#c76f6f;}.cls-14{fill:#005686;}.cls-15{fill:#f9dbdb;}</style></defs><g data-name="/ FLAT" id="_FLAT"><rect class="cls-1" height="104" width="112" x="200" y="272"/><path class="cls-2" d="M224,360h88V272A88,88,0,0,1,224,360Z"/><path class="cls-3" d="M460.75623,408.81982a80,80,0,0,0-53.785-52.8872L312,328l-5.886,7.56763a63.48752,63.48752,0,0,1-100.228,0L200,328l-94.97119,27.93262a80,80,0,0,0-53.785,52.8872L24,496H488Z"/><path class="cls-4" d="M320.00024,496H488l-24.95825-79.86646A167.88491,167.88491,0,0,1,320.00024,496Z"/><rect class="cls-5" height="80" width="16" x="128" y="416"/><rect class="cls-5" height="80" width="16" x="368" y="416"/><path class="cls-1" d="M362.33447,152H344v72l31.60132-15.80078A29.66529,29.66529,0,0,0,392,181.66553h0A29.66557,29.66557,0,0,0,362.33447,152Z"/><path class="cls-1" d="M149.66553,152A29.66557,29.66557,0,0,0,120,181.66553h0a29.66529,29.66529,0,0,0,16.39868,26.53369L168,224V152Z"/><path class="cls-6" d="M152,112v94.76929A80.0001,80.0001,0,0,0,203.28174,281.437l24,9.23071a80.00155,80.00155,0,0,0,57.43652,0l24-9.23071A80.0001,80.0001,0,0,0,360,206.76929V64Z"/><path class="cls-7" d="M264,216h-7.05566A22.47191,22.47191,0,0,1,238.96729,180.044L257.6001,155.2002l12.7998,9.5996-18.6333,24.84473A6.47218,6.47218,0,0,0,256.94434,200H264Z"/><polygon class="cls-8" points="232 96 360 136 360 64 232 96"/><path class="cls-7" d="M256,264a32.03635,32.03635,0,0,1-32-32h16a16,16,0,0,0,32,0h16A32.03635,32.03635,0,0,1,256,264Z"/><path class="cls-7" d="M232,176H216v-8a8,8,0,0,0-16,0v8H184v-8a24,24,0,0,1,48,0Z"/><path class="cls-7" d="M328,176H312v-8a8,8,0,0,0-16,0v8H280v-8a24,24,0,0,1,48,0Z"/><path class="cls-8" d="M441.1775,374.74319h0a23.48773,23.48773,0,0,0-32.942,0L400,382.88284l-8.2355-8.13965a23.48773,23.48773,0,0,0-32.942,0h0a22.8334,22.8334,0,0,0,0,32.55858l32.942,32.55858L400,448l41.1775-40.69823A22.8334,22.8334,0,0,0,441.1775,374.74319Z"/><rect class="cls-9" height="88" width="16" x="248" y="360"/><path class="cls-10" d="M345.25567,82.907,152,128V80a56,56,0,0,1,56-56H392v.00005A60.48928,60.48928,0,0,1,345.25567,82.907Z"/><path class="cls-11" d="M215.46851,286.12427l11.81323,4.54345a80.00155,80.00155,0,0,0,57.43652,0l24-9.23071A80.0001,80.0001,0,0,0,360,206.76929V88.00024C360,180.73926,299.301,259.29,215.46851,286.12427Z"/><path class="cls-12" d="M360,136V88.00024a208.65033,208.65033,0,0,1-5.196,46.376Z"/><path class="cls-13" d="M282.43164,250.01367a208.603,208.603,0,0,1-17.58447,12.73242A32.11652,32.11652,0,0,0,282.43164,250.01367Z"/><path class="cls-14" d="M368,489.02856V496h16V483.37622A166.72978,166.72978,0,0,1,368,489.02856Z"/><path class="cls-15" d="M400,304a95.66329,95.66329,0,0,0-85.52783,52.3584l14.24609,7.2832a80.02072,80.02072,0,1,1-7.77954,48.61084l9.40454,9.40479,11.31348-11.31446L312,380.68652l-29.65674,29.65625,11.31348,11.31446,10.94433-10.94458A95.9993,95.9993,0,1,0,400,304Z"/><path class="cls-12" d="M388.76221,436.89307l3.00232,2.96728L400,448l41.17749-40.69824a22.81144,22.81144,0,0,0,1.08313-31.37427A106.99319,106.99319,0,0,1,388.76221,436.89307Z"/></g></svg>