<?xml version="1.0" encoding="utf-8"?>
<!-- Generator: Adobe Illustrator 21.1.0, SVG Export Plug-In . SVG Version: 6.00 Build 0)  -->
<svg version="1.1" id="Capa_1" xmlns="http://www.w3.org/2000/svg" xmlns:xlink="http://www.w3.org/1999/xlink" x="0px" y="0px"
	 viewBox="0 0 1200 1200" enable-background="new 0 0 1200 1200" xml:space="preserve">
<g>
	<g>
		<g>
			<g>
				<g>
					<path fill="#0E2C47" d="M453.22,255.616c-1.317,56.83-30.466,107.319-50.757,158.906
						c-21.801,55.425-24.11,109.669-23.922,168.552c0.195,61.321-1.515,122.648-5.13,183.862
						c67.46-23.239,141.577-26.78,210.946-10.078c87.185,20.991,165.142,72.591,253.193,89.585
						c5.308,1.025,10.826,1.916,16.074,0.614c10.906-2.705,17.611-14.44,18.186-25.662c0.575-11.222-3.603-22.08-7.712-32.538
						c-18.236-46.415-36.471-92.83-54.706-139.246c-9.788-24.913-19.623-49.926-32.884-73.182
						c-44.166-77.456-26.104-152.421-19.517-236.386c8.165-104.076-41.829-196.581-118.667-263.598"/>
				</g>
				<g>
					<path fill="#fcb598" d="M978.485,1150c19.165-396.472-78.474-461.95-78.474-461.95c-21.648-27.219-64.057-39.203-92.914-51.801
						c-34.26-14.957-68.944-28.7-102.29-46.374c-57.627-30.543-42.755-91.626-42.755-91.626l-142.683-20.181v42.542
						c4.215,65.544-125.271,91.52-162.601,107.601c-41.489,17.873-83.648,42.567-111.75,83.909
						c-54.357,79.97-64.678,204.173-67.466,302.58c-1.27,44.802-0.807,90.36,2.731,135.299H978.485z"/>
				</g>
				<g>
					<defs>
						<path id="SVGID_1_" d="M670.268,664.694c10.864,40.652-196.306,22.629-162.101,0c24.121-15.958,0-238.285,0-238.285h162.101
							C670.268,426.409,658.053,618.988,670.268,664.694z"/>
					</defs>
					<use xlink:href="#SVGID_1_"  overflow="visible" fill="#fcb598"/>
					<clipPath id="SVGID_2_">
						<use xlink:href="#SVGID_1_"  overflow="visible"/>
					</clipPath>
				</g>
				<g>
					<path fill="#963636" d="M356.768,628.212c0,0,259.975,38.516,360.532-37.342l37.846,214.262l-398.378,99.651l-119.806-70.836
						l8.056-121.825C245.019,712.121,266.435,660.558,356.768,628.212z"/>
				</g>
				<g opacity="0.28">
					<path fill="#8C4F44" d="M538.419,457.546c-10.733-3.129-19.591-3.405-27.484-3.022c1.314,14.262,2.9,32.822,4.31,53.035
						c14.51,15.851,30.064,30.778,48.593,36.179c34.94,10.186,70.572-10.077,102.584-37.914c0.708-19.462,1.541-37.225,2.251-50.998
						C627.501,469.754,579.996,469.667,538.419,457.546z"/>
				</g>
				<g>
					<g>
						<path fill="#D37A71" d="M707.744,307.277c2.809-10.425,24.662-20.77,33.659-20.78c30.336-0.035,24.409,48.416,14.87,66.668
							c-9.614,18.396-53.154,45.754-64.755,14.347C691.518,367.512,707.695,307.457,707.744,307.277z"/>
					</g>
					<g>
						<path fill="#0E2C47" d="M740.708,355.715l-2.347-2.232c6.076-6.39,15.625-19.41,11.316-34.8
							c-1.456-5.2-4.415-8.934-8.118-10.246c-3.168-1.117-6.676-0.412-10.148,2.05l-1.875-2.64c4.308-3.056,8.963-3.93,13.104-2.462
							c4.71,1.667,8.412,6.197,10.156,12.426C756.259,330.176,751.854,343.991,740.708,355.715z"/>
					</g>
					<g>
						<path fill="#0E2C47" d="M720.619,351.288l-0.816-3.134c26.723-6.961,30.176-28.429,30.207-28.645l3.205,0.47
							C753.18,320.219,749.395,343.793,720.619,351.288z"/>
					</g>
				</g>
				<g>
					<g>
						<path fill="#D37A71" d="M472.819,307.277c-2.809-10.425-24.662-20.77-33.659-20.78c-30.336-0.035-24.409,48.416-14.87,66.668
							c9.614,18.396,53.154,45.754,64.755,14.347C489.045,367.512,472.867,307.457,472.819,307.277z"/>
					</g>
					<g>
						<path fill="#0E2C47" d="M439.854,355.715c-11.145-11.723-15.551-25.539-12.088-37.904c1.744-6.228,5.445-10.758,10.154-12.426
							c4.144-1.471,8.798-0.594,13.105,2.46l-1.875,2.642c-3.473-2.464-6.985-3.176-10.148-2.048
							c-3.703,1.311-6.661,5.046-8.117,10.244c-4.309,15.39,5.24,28.41,11.316,34.8L439.854,355.715z"/>
					</g>
					<g>
						<path fill="#0E2C47" d="M459.944,351.288c-28.776-7.495-32.562-31.07-32.597-31.308l3.204-0.474
							c0.134,0.882,3.576,21.711,30.208,28.648L459.944,351.288z"/>
					</g>
				</g>
				<g>
					<path fill="#fcb598" d="M714.126,175.471c2.362,44.243,7.379,136.209-0.965,179.74c-6.553,34.19-15.386,71.808-38.508,97.455
						c-20.584,22.833-62.556,51.7-96.432,42.145c-15.084-4.255-51.897-15.515-74.416-42.145
						c-44.257-52.337-34.873-167.989-37.296-233.488c-0.031-0.836,18.106-33.002,18.075-33.838c0,0,25.947-54.204,107.138-53.38
						C629.303,132.34,659.272,159.599,714.126,175.471z"/>
				</g>
				<g>
					<path fill="#fcb598" d="M686.901,365.435c12.506-8.679,12.506-22.75,0-31.429c-12.506-8.679-32.782-8.679-45.289,0
						s-12.506,22.75,0,31.429C654.119,374.114,674.395,374.115,686.901,365.435z"/>
				</g>
				<g>
					<path fill="#EA5653" d="M610.67,346.82c0.012-0.257,0.024-0.515,0.019-0.773c-0.496-21.193-18.015-43.563-17.255-44.607
						c-9.462,12.997-18.499,27.792-19.749,42.965c-0.769,9.333,4.353,19.26,18.04,19.261
						C603.782,363.665,610.282,355.346,610.67,346.82z"/>
				</g>
				<g>
					<path fill="#0E2C47" d="M693.688,248.429c-0.003-0.003-0.006-0.006-0.009-0.008c-2.559-2.196-5.497-4.168-8.665-5.893
						c-17.273-9.404-44.765-12.107-54.366,3.973c-0.57,0.954,0.359,2.052,1.807,2.105l59.586,2.171
						C693.755,250.839,694.781,249.406,693.688,248.429z"/>
				</g>
				<g>
					<path fill="#0E2C47" d="M579.096,434.011c-2.788,1.104-5.537,2.424-8.235,3.887c-4.417,2.394-12.717,7.63-15.943,0.761
						c-2.817-5.999,3.605-14.106,7.428-17.275c9.837-8.152,23.306-12,35.793-10.363c9.291,1.217,18.367,6.089,23.605,14.171
						c3.356,5.179,4.236,15.192-4.516,12.429c-4.319-1.363-7.901-4.387-12.31-5.689
						C596.307,429.389,587.349,430.745,579.096,434.011z"/>
				</g>
				<g>
					<path fill="#0E2C47" d="M638.013,309.61c2.115-1.99,4.68-3.256,7.322-4.173c2.658-0.89,5.461-1.356,8.284-1.406
						c2.821-0.079,5.676,0.352,8.374,1.237c2.707,0.837,5.234,2.344,7.275,4.343c-2.92,0.076-5.454-0.192-8.029-0.165
						c-2.543-0.05-5.026-0.079-7.534-0.017l-7.606,0.17C643.506,309.66,640.887,309.724,638.013,309.61z"/>
				</g>
				<g>
					<path fill="#0E2C47" d="M508.99,309.61c2.115-1.99,4.679-3.256,7.322-4.173c2.659-0.89,5.461-1.356,8.284-1.406
						c2.821-0.079,5.675,0.352,8.374,1.237c2.707,0.837,5.234,2.344,7.275,4.343c-2.92,0.076-5.454-0.192-8.029-0.165
						c-2.543-0.05-5.027-0.079-7.534-0.017l-7.606,0.17C514.483,309.66,511.864,309.724,508.99,309.61z"/>
				</g>
				<g>
					<g>
						<path fill="#CE4741" d="M644.473,352.497c-0.328,0-0.653-0.149-0.865-0.433c-0.358-0.477-0.261-1.153,0.216-1.512
							l25.162-18.865c0.48-0.352,1.155-0.261,1.512,0.217c0.358,0.477,0.261,1.153-0.216,1.512l-25.162,18.865
							C644.926,352.425,644.699,352.497,644.473,352.497z"/>
					</g>
					<g>
						<path fill="#CE4741" d="M649.729,359.97c-0.328,0-0.653-0.149-0.865-0.433c-0.358-0.477-0.261-1.153,0.216-1.512
							l25.161-18.863c0.478-0.354,1.156-0.261,1.512,0.217c0.358,0.477,0.261,1.153-0.216,1.512l-25.161,18.863
							C650.182,359.899,649.955,359.97,649.729,359.97z"/>
					</g>
					<g>
						<path fill="#CE4741" d="M654.985,367.446c-0.328,0-0.653-0.149-0.865-0.433c-0.358-0.477-0.261-1.153,0.216-1.512
							l25.161-18.863c0.478-0.354,1.155-0.261,1.512,0.217c0.358,0.477,0.261,1.153-0.216,1.512l-25.161,18.863
							C655.438,367.375,655.211,367.446,654.985,367.446z"/>
					</g>
				</g>
				<g>
					<path fill="#fcb598" d="M539.253,365.435c12.506-8.679,12.506-22.75,0-31.429c-12.506-8.679-32.782-8.679-45.289,0
						s-12.506,22.75,0,31.429C506.47,374.114,526.746,374.115,539.253,365.435z"/>
				</g>
				<g>
					<g>
						<path fill="#CE4741" d="M496.825,352.497c-0.328,0-0.653-0.149-0.865-0.433c-0.358-0.477-0.261-1.153,0.216-1.512
							l25.161-18.865c0.478-0.352,1.155-0.261,1.512,0.217c0.358,0.477,0.261,1.153-0.216,1.512l-25.161,18.865
							C497.278,352.425,497.051,352.497,496.825,352.497z"/>
					</g>
					<g>
						<path fill="#CE4741" d="M502.08,359.97c-0.328,0-0.653-0.149-0.864-0.433c-0.358-0.477-0.261-1.153,0.216-1.512l25.162-18.863
							c0.478-0.354,1.156-0.261,1.512,0.217c0.358,0.477,0.261,1.153-0.216,1.512l-25.162,18.863
							C502.533,359.899,502.306,359.97,502.08,359.97z"/>
					</g>
					<g>
						<path fill="#CE4741" d="M507.336,367.446c-0.328,0-0.653-0.149-0.864-0.433c-0.358-0.477-0.261-1.153,0.216-1.512
							l25.161-18.863c0.479-0.354,1.156-0.261,1.512,0.217c0.358,0.477,0.261,1.153-0.216,1.512l-25.161,18.863
							C507.789,367.375,507.561,367.446,507.336,367.446z"/>
					</g>
				</g>
				<g>
					<path fill="#4fb7ad" d="M1036.954,1150c2.885-57.192-1.225-109.281-1.094-109.264
						c-6.361-105.392-55.175-324.824-144.776-393.528c-51.189-39.251-109.412-59.45-173.783-56.338
						c-143.691,157.793-370.164,43.161-393.246,53.105c-41.488,17.873-50.935,26.805-79.036,68.147
						c-54.357,79.97-77.762,230.207-80.55,328.613c-0.013,0.462-6.057,56.865,0.884,109.265H1036.954z"/>
				</g>
				<g>
					<path fill="#A3A3A3" d="M338.509,1150c-8.202-88.101-9.566-289.177-9.566-289.177
						c-11.373,32.142-14.015,208.817-14.629,289.177H338.509z"/>
				</g>
				<g>
					<path fill="#A3A3A3" d="M853.568,1150c-0.614-80.36-3.256-257.035-14.629-289.177c0,0-1.364,201.076-9.567,289.177H853.568z"/>
				</g>
				<g>
					<g>
						
							<rect x="433.024" y="920.853" transform="matrix(0.8494 -0.5277 0.5277 0.8494 -400.71 440.7071)" fill="#A3A3A3" width="277.736" height="3.322"/>
					</g>
					<g>
						
							<rect x="462.769" y="965.803" transform="matrix(0.8494 -0.5277 0.5277 0.8494 -419.9517 463.1726)" fill="#A3A3A3" width="277.736" height="3.322"/>
					</g>
					<g>
						
							<rect x="492.515" y="1010.753" transform="matrix(0.8494 -0.5277 0.5277 0.8494 -439.1934 485.6383)" fill="#A3A3A3" width="277.737" height="3.322"/>
					</g>
				</g>
				<g>
					<path fill="#0E2C47" d="M496.263,258.937c0.003-0.003,0.005-0.006,0.008-0.009c2.128-2.492,4.673-4.811,7.489-6.914
						c15.356-11.467,42.038-17.594,54.464-2.907c0.737,0.872,0.02,2.074-1.402,2.308l-58.502,9.636
						C496.637,261.327,495.361,260.04,496.263,258.937z"/>
				</g>
				<g>
					<g>
						<ellipse fill="#0E2C47" cx="654.098" cy="293.793" rx="18.937" ry="15.96"/>
					</g>
					<g>
						<ellipse fill="#0E2C47" cx="529.156" cy="293.793" rx="18.937" ry="15.96"/>
					</g>
					<g>
						<path fill="#0E2C47" d="M646.705,281.19c1.338-1.784,3.7-2.789,5.915-3.207c2.26-0.446,4.518-0.418,6.667-0.272
							c1.071,0.082,2.128,0.191,3.13,0.319l2.894,0.303c1.915,0.175,3.803,0.318,5.696,0.362c3.753,0.117,7.655-0.036,11.567-0.255
							c1.937-0.121,3.863-0.272,5.744-0.601c1.9-0.334,3.727-0.78,5.505-2.087c-0.418,2.215-2.232,4.084-4.07,5.365
							c-1.886,1.323-3.959,2.218-6.04,2.933c-4.149,1.352-8.472,2.063-12.937,1.92c-2.215-0.084-4.423-0.358-6.564-0.835
							c-1.069-0.249-2.126-0.513-3.159-0.852c-1.005-0.311-1.952-0.654-2.895-0.98c-1.875-0.659-3.696-1.3-5.549-1.76
							C650.736,281.067,648.878,280.79,646.705,281.19z"/>
					</g>
					<g>
						<path fill="#0E2C47" d="M538.52,281.19c-2.174-0.4-4.031-0.123-5.902,0.352c-1.853,0.46-3.674,1.101-5.549,1.76
							c-0.942,0.325-1.89,0.668-2.895,0.98c-1.033,0.338-2.091,0.603-3.159,0.852c-2.142,0.478-4.349,0.752-6.564,0.835
							c-4.465,0.144-8.789-0.568-12.937-1.92c-2.081-0.715-4.154-1.611-6.04-2.933c-1.838-1.281-3.652-3.15-4.07-5.365
							c1.778,1.306,3.605,1.752,5.505,2.087c1.881,0.328,3.807,0.48,5.744,0.601c3.912,0.219,7.814,0.372,11.567,0.255
							c1.892-0.044,3.781-0.187,5.695-0.362l2.894-0.303c1.002-0.128,2.059-0.237,3.13-0.319c2.148-0.146,4.406-0.174,6.666,0.272
							C534.82,278.401,537.181,279.406,538.52,281.19z"/>
					</g>
				</g>
				<g>
					<path fill="#0E2C47" d="M690.159,114.132c-9.47-12.432-22.678-26.479-39.032-29.9c-19.963-4.176-35.374,12.059-52.816,18.643
						c-20.171,7.612-42.24,11.888-63.369,7.604c-10.445-2.118-20.366-6.239-30.575-9.292
						c-36.372,25.212-39.496,76.933-56.503,114.661c-0.159,0.352-0.334,0.674-0.517,0.98c3.263,29.357,9.736,58.359,19.416,86.268
						c-4.785-13.794,6.234-33.25,9.242-46.598c10.905-48.397,34.577-89.586,84.667-104.857c18.873-5.754,39.174-6.603,58.504-2.723
						c8.357,1.677,20.458,3.837,27.232,9.312c6.591,5.327,10.44,16.052,14.579,23.23c15.284,26.507,28.44,54.415,42.495,81.59
						c2.863,5.535,5.763,11.177,6.849,17.313c1.015,5.731,1.109,12.871,6.291,15.521c-4.474-2.287,15.499-60.686,16.685-67.892
						c0.025-0.153,0.05-0.307,0.074-0.46C739.786,187.131,713.547,144.836,690.159,114.132z M582.152,140.27
						c10.166-2.585,23.86,0.345,34.072,2.143c0.769,0.135,1.494,0.306,2.237,0.461C604.418,142.839,585.43,141.871,582.152,140.27z"
						/>
				</g>
				<g>
					<path fill="#0E2C47" d="M566.652,175.442c-15.355,14.334-30.709,28.668-46.064,43.002
						c-22.264,20.784-47.21,42.822-79.494,46.523c-30.231,3.466-62.031-12.223-74.281-36.649
						c11.753,6.183,27.448,4.229,38.923-2.344c33.982-19.465,36.834-63.718,50.678-96.361
						c16.74-39.472,59.709-72.687,102.197-78.646c32.862-4.608,67.201,7.631,90.285,28.604c23.084,20.972,35.565,49.74,38.757,78.72
						c0.843,7.65-31.121,4.534-34.719,3.148c-8.126-3.129-11.536-11.266-19.532-14.105
						C607.559,138.161,582.35,160.787,566.652,175.442z"/>
				</g>
			</g>
			<g>
				<g>
					<path fill="#EFFAFD" d="M713.778,373.894c0.394-10.159-56.371,2.563-80.428-13.802c-9.398-6.393-18.458-13.852-28.584-18.562
						c-9.898-4.604-21.153-2.389-30.986,1.317c-34.235,12.905-38.48,43.071-103.26,31.714c0.872,0.28,4.007,20.371,4.447,22.039
						c4.514,17.104,11.089,33.53,19.759,48.235c29.257,49.618,84.49,73.797,133.553,54.495
						c38.123-14.998,72.104-49.345,82.06-96.783C712.307,393.166,713.404,383.544,713.778,373.894z"/>
				</g>
				<g opacity="0.4">
					<g>
						<path fill="#606060" d="M555.339,426.51c-1.103,0-2.192-0.501-2.904-1.452c-1.202-1.602-0.877-3.875,0.727-5.077
							l47.722-35.776c1.601-1.203,3.876-0.877,5.077,0.727c1.202,1.602,0.877,3.875-0.727,5.077l-47.722,35.776
							C556.86,426.275,556.097,426.51,555.339,426.51z"/>
					</g>
					<g>
						<path fill="#606060" d="M565.307,440.689c-1.103,0-2.191-0.501-2.904-1.452c-1.202-1.602-0.877-3.875,0.727-5.077
							l47.723-35.778c1.602-1.199,3.874-0.877,5.077,0.727c1.202,1.602,0.877,3.875-0.727,5.077l-47.723,35.778
							C566.827,440.452,566.064,440.689,565.307,440.689z"/>
					</g>
					<g>
						<path fill="#606060" d="M575.275,454.866c-1.103,0-2.191-0.501-2.904-1.452c-1.202-1.602-0.877-3.875,0.726-5.077
							l47.722-35.778c1.604-1.199,3.875-0.876,5.077,0.727c1.202,1.602,0.877,3.875-0.726,5.077l-47.722,35.778
							C576.796,454.629,576.032,454.866,575.275,454.866z"/>
					</g>
				</g>
				<g>
					<path fill="#A0A0A0" d="M553.703,374.511c-1.145,0-2.211-0.728-2.585-1.877c-0.466-1.429,0.315-2.963,1.743-3.429
						c5.149-1.68,9.696-4.705,14.51-7.907c1.617-1.077,3.233-2.151,4.87-3.171c11.022-6.869,23.916-7.102,34.491-0.628
						c3.405,2.086,6.557,4.551,9.604,6.935c1.076,0.842,2.151,1.684,3.238,2.508c1.496,1.137,3.191,2.254,4.407,1.961
						c1.456-0.36,2.932,0.537,3.288,1.995c0.357,1.46-0.537,2.932-1.996,3.289c-3.897,0.959-7.336-1.658-8.989-2.911
						c-1.107-0.842-2.204-1.698-3.301-2.556c-3.062-2.396-5.954-4.658-9.094-6.582c-8.779-5.378-19.536-5.151-28.772,0.605
						c-1.591,0.993-3.161,2.037-4.734,3.083c-4.906,3.265-9.981,6.64-15.836,8.549C554.267,374.469,553.983,374.511,553.703,374.511
						z"/>
				</g>
				<g>
					<g opacity="0.3">
						<g>
							<path fill="#606060" d="M701.578,381.125c-0.209,0.023-0.254,0.229-0.308,0.401c-0.052,0.178-0.088,0.367-0.119,0.558
								c-0.062,0.382-0.106,0.773-0.151,1.167l-0.342,2.362c-0.249,1.585-0.636,3.148-1.049,4.718
								c-0.881,3.117-2.132,6.144-3.644,9.028c-3.045,5.769-7.14,10.944-11.797,15.422c-4.664,4.485-9.903,8.287-15.457,11.429
								c-5.573,3.113-11.452,5.623-17.679,7.14c4.838-4.199,9.744-7.964,14.471-11.855c4.735-3.871,9.317-7.799,13.641-11.941
								c4.318-4.147,8.373-8.509,12.028-13.248c1.838-2.364,3.558-4.832,5.198-7.408c0.852-1.276,1.605-2.613,2.406-3.959
								l1.195-2.048c0.212-0.341,0.426-0.684,0.66-1.023c0.118-0.169,0.239-0.337,0.384-0.495
								C701.145,381.235,701.37,381.028,701.578,381.125z"/>
						</g>
					</g>
					<g opacity="0.3">
						<g>
							<path fill="#606060" d="M537.405,430.034c-0.047-0.205-0.249-0.237-0.424-0.272c-0.18-0.035-0.37-0.052-0.562-0.062
								c-0.384-0.022-0.776-0.024-1.171-0.027l-2.378-0.092c-1.599-0.084-3.191-0.313-4.79-0.573
								c-3.184-0.577-6.306-1.556-9.304-2.815c-5.997-2.537-11.464-6.198-16.282-10.46c-4.828-4.266-9.022-9.152-12.606-14.393
								c-3.557-5.264-6.561-10.868-8.63-16.909c4.613,4.41,8.788,8.945,13.054,13.309c4.248,4.372,8.526,8.604,12.988,12.563
								c4.465,3.955,9.112,7.634,14.111,10.854c2.495,1.621,5.085,3.11,7.787,4.489c1.342,0.723,2.736,1.338,4.149,1.993l2.15,0.972
								c0.36,0.174,0.723,0.351,1.083,0.548c0.179,0.1,0.359,0.204,0.53,0.334C537.264,429.611,537.477,429.821,537.405,430.034z"/>
						</g>
					</g>
				</g>
			</g>
		</g>
		<g>
			<path fill="#EFFAFD" d="M727.95,387.844L727.95,387.844c-6.052,0-11.003-4.951-11.003-11.003v0
				c0-6.052,4.951-11.003,11.003-11.003h0c6.052,0,11.003,4.951,11.003,11.003v0C738.953,382.892,734.002,387.844,727.95,387.844z"
				/>
		</g>
		<g>
			<path fill="#EFFAFD" d="M457.232,387.844L457.232,387.844c-6.052,0-11.003-4.951-11.003-11.003v0
				c0-6.052,4.951-11.003,11.003-11.003h0c6.052,0,11.003,4.951,11.003,11.003v0C468.236,382.892,463.284,387.844,457.232,387.844z"
				/>
		</g>
	</g>
	<g>
		<g>
			<path fill="#FFFDFD" d="M493.646,379.266c-0.91,0-1.788-0.498-2.232-1.364c-1.165-2.272-28.505-55.911-28.016-78.006
				c0.03-1.385,1.203-2.511,2.56-2.451c1.384,0.031,2.481,1.178,2.45,2.561c-0.461,20.835,27.187,75.066,27.466,75.612
				c0.631,1.231,0.144,2.741-1.087,3.372C494.422,379.177,494.031,379.266,493.646,379.266z"/>
		</g>
		<g>
			<path fill="#FFFDFD" d="M691.319,379.61c-0.349,0-0.704-0.063-1.049-0.199c-1.463-0.581-2.18-2.237-1.6-3.7
				c0.28-0.707,28.006-71.05,27.541-98.249c-0.028-1.573,1.226-2.871,2.8-2.898c1.525-0.021,2.871,1.228,2.898,2.801
				c0.486,28.332-26.779,97.515-27.94,100.446C693.526,378.929,692.453,379.61,691.319,379.61z"/>
		</g>
	</g>
</g>
</svg>
